<svg version="1.1" id="Layer_1" xmlns="http://www.w3.org/2000/svg" xmlns:xlink="http://www.w3.org/1999/xlink" x="0px" y="0px"
	 width="100%" viewBox="0 0 462 645" enable-background="new 0 0 462 645" xml:space="preserve">
<path fill="#FBFCFD" opacity="1.000000" stroke="none" 
	d="
M1.000000,3.000000 
	C0.388942,-0.049107 2.704564,1.035414 3.973828,1.032624 
	C24.863506,0.986711 45.753311,1.000000 66.643089,1.000000 
	C71.119469,1.000000 75.595856,1.000000 80.521721,1.468456 
	C80.969994,8.755239 80.901260,15.575010 81.047089,22.390190 
	C81.066864,23.314545 82.161911,24.215891 82.759079,25.127890 
	C83.241425,24.250467 84.007446,23.417385 84.152817,22.487293 
	C84.585144,19.721256 84.378601,16.789221 85.223053,14.181558 
	C85.647255,12.871646 87.809303,12.124510 89.185440,11.122869 
	C89.918282,12.426760 91.090919,13.668098 91.287224,15.048301 
	C91.635048,17.493725 91.189491,20.047699 91.486465,22.506668 
	C91.613579,23.559187 92.770058,24.487389 93.458817,25.472078 
	C93.925362,25.252872 94.391907,25.033665 94.858452,24.814459 
	C94.858452,20.854897 95.106758,16.875271 94.788910,12.941391 
	C94.468369,8.974236 91.793083,7.622641 88.066879,8.367624 
	C86.835564,8.613803 85.684006,9.258931 84.000000,9.914822 
	C84.000000,6.624485 84.000000,3.812242 84.000000,1.000000 
	C210.307892,1.000000 336.615784,1.000000 462.961853,1.000000 
	C462.961853,215.931274 462.961853,430.862549 462.961853,645.896912 
	C309.099792,645.896912 155.199493,645.896912 1.000000,645.896912 
	C1.000000,433.309357 1.000000,220.618561 1.352753,7.603274 
	C3.109144,12.222207 4.384538,17.208332 6.006208,22.079168 
	C6.413800,23.303406 7.931654,24.158001 8.939270,25.182472 
	C9.818103,24.201286 11.119401,23.360418 11.500235,22.213823 
	C12.903250,17.989712 14.001381,13.664334 15.541587,8.219682 
	C17.208113,13.921165 18.408409,18.402466 19.885824,22.790462 
	C20.211813,23.758669 21.407490,24.691296 22.417494,25.075214 
	C23.020731,25.304512 24.626591,24.599770 24.785799,24.034420 
	C26.733421,17.118387 28.496429,10.150365 30.307253,3.195807 
	C29.640633,2.948612 28.974012,2.701416 28.307392,2.454220 
	C24.370132,6.933024 25.474461,13.717214 22.375546,19.117308 
	C21.168440,14.997444 20.264614,11.288563 18.960592,7.726174 
	C18.311625,5.953303 16.929054,4.448970 15.878338,2.823161 
	C14.690445,4.515123 13.121577,6.059962 12.398818,7.931546 
	C11.132775,11.209960 10.385875,14.688854 9.421483,18.083759 
	C7.345550,13.852164 6.084321,9.794748 5.223975,5.654037 
	C4.675173,3.012737 3.345442,2.393726 1.000000,3.000000 
M413.123413,539.491821 
	C413.133636,386.879761 413.144287,234.267731 413.145203,81.655685 
	C413.145203,80.494583 413.011810,79.333481 413.126099,77.225929 
	C413.126099,66.287598 413.126099,55.349270 413.126099,44.585457 
	C412.354187,44.286846 412.057861,44.071693 411.761658,44.071888 
	C378.117767,44.094242 344.473877,44.132626 309.921906,44.042736 
	C207.666061,44.042736 105.410225,44.042736 3.156600,44.042736 
	C3.156600,243.283340 3.156600,441.980042 3.156600,640.993591 
	C4.772151,640.993591 6.078170,640.993591 7.384190,640.993591 
	C88.370346,640.993591 169.356506,640.994385 250.342667,640.986633 
	C251.839951,640.986511 253.337250,640.883606 255.784378,640.975403 
	C308.191254,640.975403 360.598114,640.975403 412.803711,640.975403 
	C412.803711,629.346375 412.803711,618.428650 412.803711,607.165527 
	C410.480774,607.165527 408.509491,607.165466 406.538208,607.165527 
	C358.550964,607.165833 310.563751,607.152832 262.576508,607.171631 
	C234.400833,607.182678 202.365112,589.799316 195.066223,555.638916 
	C194.943878,555.066345 194.472031,554.568420 194.019348,553.103271 
	C194.025833,542.087708 194.032303,531.072205 194.544189,520.831787 
	C194.886734,522.454041 195.171387,524.091064 195.580399,525.696350 
	C202.873901,554.323303 230.453674,574.787781 261.948425,574.818481 
	C310.574036,574.865906 359.199707,574.832458 407.825348,574.833313 
	C409.442383,574.833313 411.059418,574.833252 412.946625,574.833252 
	C412.946625,563.026550 412.946625,551.750977 413.123413,539.491821 
M446.811890,408.884827 
	C445.633240,409.709717 444.535461,411.048340 443.258636,411.249329 
	C440.827118,411.632141 438.254669,411.108917 435.818207,411.475830 
	C434.593292,411.660339 433.538208,412.972198 432.406311,413.774200 
	C433.443573,414.479919 434.433380,415.691315 435.527222,415.793945 
	C438.490112,416.071899 441.508972,416.046295 444.484192,415.836914 
	C450.034546,415.446228 451.986816,411.915100 449.672394,406.835175 
	C449.255463,405.920044 448.684265,404.881622 448.777679,403.960327 
	C449.235229,399.448822 449.893494,394.957733 450.527039,390.105469 
	C444.868256,390.105469 440.226471,389.979156 435.601044,390.198425 
	C434.509155,390.250183 433.472382,391.464996 432.410278,392.144806 
	C433.515930,392.971985 434.526764,394.288605 435.746826,394.524902 
	C438.323730,395.024078 441.102783,394.607849 443.612518,395.271729 
	C444.873383,395.605225 445.726135,397.481415 446.763458,398.659973 
	C445.459503,399.422363 444.207397,400.707367 442.841278,400.842834 
	C439.580841,401.166107 436.266663,400.947144 432.995331,400.947144 
	C431.701569,404.138977 432.681458,405.086090 435.658844,405.099365 
	C439.508545,405.116486 443.811737,403.925323 446.811890,408.884827 
M447.416016,573.415710 
	C451.376740,571.440308 451.048370,568.383728 449.618317,564.973267 
	C449.231598,564.050903 448.896271,562.976013 448.980438,562.009705 
	C449.367157,557.570679 449.910797,553.145203 450.434540,548.383667 
	C444.861298,548.383667 440.203491,548.250854 435.563843,548.482361 
	C434.481171,548.536438 433.460205,549.827637 432.410828,550.549622 
	C433.543365,551.329285 434.595367,552.574890 435.825928,552.787720 
	C438.095184,553.180115 440.616425,552.494629 442.751129,553.160645 
	C444.331482,553.653687 445.465912,555.576111 446.799011,556.861755 
	C445.336731,557.560974 443.918488,558.719238 442.403107,558.864624 
	C439.170837,559.174683 435.888153,558.959412 432.597809,558.959412 
	C432.890411,563.175964 432.890778,563.152405 437.047852,563.219604 
	C441.028717,563.283997 445.521454,562.425842 447.087341,569.223816 
	C442.916382,569.426086 439.209381,569.459229 435.545380,569.873047 
	C434.447693,569.997009 433.469971,571.183533 432.437286,571.883240 
	C433.510620,572.552917 434.555878,573.737549 435.662415,573.797852 
	C439.310150,573.996704 442.980011,573.788574 447.416016,573.415710 
M435.229004,514.245544 
	C443.037140,520.054810 453.195557,518.586792 455.983032,511.246277 
	C457.986694,505.969788 456.118103,500.152496 451.499054,497.287018 
	C446.643311,494.274658 438.323822,494.938751 434.752502,498.623810 
	C431.131683,502.359924 431.127899,508.071350 435.229004,514.245544 
M143.820892,28.395811 
	C144.922424,34.126694 152.680405,36.243443 157.391815,31.808302 
	C158.691254,30.585058 159.688171,27.825930 159.206558,26.273155 
	C158.742203,24.775949 156.324097,23.555225 154.515396,22.896339 
	C152.675110,22.225946 150.531097,22.389299 148.520081,22.187565 
	C148.231461,21.647751 147.942841,21.107935 147.654205,20.568119 
	C158.016098,22.487175 158.289062,15.236667 159.982498,8.272847 
	C156.605225,8.272847 153.319962,7.928248 150.137466,8.353273 
	C145.313217,8.997555 143.715714,12.783138 144.622803,17.575291 
	C145.222076,20.741152 144.225601,24.209068 143.820892,28.395811 
M454.538696,636.981445 
	C453.288910,636.893433 452.039093,636.805481 450.875427,636.723572 
	C450.530792,634.739258 450.401917,633.070312 449.937531,631.500610 
	C448.649963,627.148315 444.135590,624.788513 438.722443,625.507568 
	C435.089600,625.990112 432.192139,627.581543 432.097015,631.589966 
	C432.023956,634.666504 432.735992,637.761658 433.110046,640.943115 
	C441.317871,640.943115 449.531921,640.943115 457.745972,640.943115 
	C458.040192,640.542053 458.334412,640.140991 458.628662,639.739929 
	C457.572449,638.820984 456.516266,637.901978 454.538696,636.981445 
M424.093414,582.385925 
	C426.617432,582.806641 429.141449,583.227356 431.719147,583.656982 
	C432.078430,585.522095 432.195618,587.531799 432.865326,589.336487 
	C434.671783,594.204773 438.768250,595.231262 443.356964,594.913940 
	C446.922852,594.667358 450.123596,593.306152 450.337952,589.244934 
	C450.514374,585.902283 449.806000,582.512939 449.475067,578.987488 
	C441.959930,578.987488 434.506714,578.891479 427.061829,579.097412 
	C426.020966,579.126160 425.021118,580.637512 424.093414,582.385925 
M432.405060,619.443970 
	C433.272003,620.171448 434.097809,621.458740 435.013245,621.525940 
	C438.311676,621.768066 441.727234,622.043091 444.924805,621.417603 
	C446.825684,621.045776 449.547668,619.249146 449.873505,617.673889 
	C450.465088,614.813660 449.587524,611.633972 449.127014,608.617554 
	C449.103882,608.466187 447.225464,608.598083 446.127899,608.598083 
	C447.570099,615.541687 447.458435,615.880432 443.597839,616.723511 
	C443.169922,614.977173 442.884338,613.177368 442.282104,611.490601 
	C441.156891,608.339233 438.964752,606.256836 435.476379,607.246094 
	C431.828217,608.280640 431.581848,611.209717 432.349701,614.486938 
	C432.659546,615.809326 432.443268,617.254944 432.405060,619.443970 
M432.618652,302.479401 
	C432.618652,304.588745 432.618652,306.698059 432.618652,309.034027 
	C436.458801,309.034027 439.765930,309.084930 443.070953,309.023193 
	C449.462128,308.903809 452.924744,302.959534 449.795959,297.244843 
	C449.315308,296.366852 447.660645,296.131653 446.064117,295.366974 
	C447.498260,302.894409 447.498260,302.894409 443.857361,304.250946 
	C441.297577,295.800659 439.487335,293.611511 435.645966,294.649292 
	C431.847198,295.675507 431.647339,298.577881 432.618652,302.479401 
M445.663300,290.563873 
	C447.305237,288.978119 450.047058,287.575592 450.348450,285.766479 
	C450.890808,282.510773 449.970184,279.011353 449.634308,275.323914 
	C444.911835,275.323914 440.265259,275.163574 435.644501,275.438019 
	C434.506866,275.505615 433.453369,276.989685 432.361176,277.822571 
	C433.413208,278.521698 434.401001,279.667694 435.530212,279.830017 
	C438.143799,280.205750 440.939362,279.687378 443.434662,280.365265 
	C444.788239,280.732941 445.677765,282.808929 446.776611,284.114319 
	C445.452728,284.767792 444.175903,285.827545 442.794861,285.987518 
	C440.168121,286.291748 437.460175,285.891357 434.832092,286.189941 
	C433.932648,286.292114 433.171417,287.610779 432.347015,288.373627 
	C433.177521,289.137787 433.961884,290.491699 434.846802,290.560974 
	C438.153137,290.819824 441.492432,290.657898 445.663300,290.563873 
M450.467224,223.003769 
	C450.490967,215.503128 450.112762,214.888062 446.134644,215.968140 
	C446.146729,218.790726 449.137299,222.604797 444.036804,224.050629 
	C442.936890,221.047806 442.513855,218.225525 440.980255,216.277695 
	C439.913391,214.922699 437.176239,213.999191 435.456268,214.322891 
	C434.092041,214.579590 432.301819,216.954575 432.177856,218.506943 
	C431.920044,221.735519 432.641754,225.042297 432.949677,228.201950 
	C436.885010,228.201950 440.531311,228.116837 444.171631,228.227280 
	C447.435211,228.326324 449.650970,227.195007 450.467224,223.003769 
M445.698029,530.098633 
	C441.967224,531.501465 438.275940,533.023926 434.494232,534.272583 
	C430.907135,535.456909 428.479523,534.202820 427.316650,530.440186 
	C426.993103,529.393372 425.908264,528.581848 424.560883,526.897705 
	C423.147888,532.415955 423.963562,535.642029 428.145660,537.309631 
	C435.222626,540.131531 442.335632,542.863220 449.959534,545.838074 
	C450.779846,537.693665 442.784241,540.664246 440.625610,537.587402 
	C442.672241,533.539368 450.939362,536.901611 449.995209,528.831604 
	C448.596558,529.252380 447.539978,529.570190 445.698029,530.098633 
M448.466858,351.990265 
	C443.208954,351.990265 437.951080,351.990265 432.693176,351.990265 
	C432.452789,352.591003 432.212433,353.191772 431.972046,353.792511 
	C433.183380,354.587585 434.307922,355.828705 435.624115,356.084778 
	C438.358337,356.616760 441.289062,356.279510 443.945801,357.006042 
	C445.162537,357.338745 445.922546,359.341644 446.889648,360.587067 
	C445.575378,361.331757 444.325378,362.521973 442.932648,362.722839 
	C440.487000,363.075623 437.952118,362.883850 435.458008,362.808167 
	C432.117096,362.706848 431.960632,364.331207 433.089661,366.995117 
	C436.988800,366.995117 440.812531,367.133423 444.622131,366.960571 
	C449.543793,366.737305 451.328796,364.113403 450.100403,359.241821 
	C449.868713,358.322968 449.506531,357.437042 449.184845,356.477081 
	C458.158844,355.735931 458.158844,355.735931 457.358215,351.990021 
	C454.754944,351.990021 452.105042,351.990021 448.466858,351.990265 
M444.481750,471.016510 
	C441.222198,472.256165 438.013885,473.661652 434.688873,474.689636 
	C431.233826,475.757874 428.548981,474.901886 427.313507,471.015930 
	C426.985382,469.983795 425.813568,469.219879 424.411591,467.634521 
	C423.626099,474.256439 424.129608,476.085663 427.914948,477.689514 
	C435.048248,480.711853 442.351807,483.332245 449.997803,486.278992 
	C450.843994,478.140503 442.486694,481.251160 440.511871,477.670990 
	C443.148193,474.418152 450.834991,476.994995 450.052673,468.960358 
	C448.020050,469.737091 446.627869,470.269073 444.481750,471.016510 
M276.515564,21.908218 
	C280.070709,17.166965 280.535583,11.819759 277.526672,7.039468 
	C273.676605,0.922862 267.224304,2.529862 261.180359,3.024349 
	C261.180359,10.400948 261.180359,17.626558 261.180359,24.997463 
	C266.573792,26.052250 271.534576,25.864605 276.515564,21.908218 
M449.417419,76.722618 
	C449.953064,74.517937 451.471558,71.937927 450.804932,70.192383 
	C449.670837,67.222740 447.637421,63.307281 445.108795,62.489784 
	C442.032227,61.495148 437.515198,62.391949 434.603638,64.122917 
	C431.229523,66.128868 431.305450,70.359474 432.764587,74.056847 
	C435.298004,80.476494 442.229095,81.868111 449.417419,76.722618 
M439.800842,335.986450 
	C449.267212,333.229156 453.051056,336.525452 452.244629,348.036743 
	C453.888306,347.178375 455.635101,346.863159 456.042847,345.950073 
	C457.825684,341.957092 455.889526,335.561401 452.433502,332.889984 
	C448.325867,329.714783 439.967072,329.510925 435.968231,332.488434 
	C432.514862,335.059692 430.825348,341.158081 432.718719,345.618591 
	C433.162415,346.663910 435.001282,347.117096 436.198273,347.842682 
	C435.689362,342.783081 435.319672,339.088593 439.800842,335.986450 
M446.232727,371.886932 
	C441.766235,370.271210 436.871429,369.505524 433.991272,373.793213 
	C432.328827,376.268005 432.837677,380.301941 432.748352,383.644257 
	C432.731384,384.279022 434.494019,384.961365 436.244751,386.189331 
	C436.030029,381.072388 433.830322,376.115845 440.980469,375.140015 
	C440.980469,379.068848 440.980469,382.507568 440.980469,385.940674 
	C445.180908,386.513947 448.526428,385.840149 449.970093,381.854736 
	C451.353455,378.035950 450.475006,374.643951 446.232727,371.886932 
M447.628662,164.660660 
	C445.596100,164.043350 443.587311,163.000443 441.526703,162.885284 
	C434.139893,162.472519 430.059143,167.975021 432.481842,175.015503 
	C432.841156,176.059631 434.299957,176.725433 435.250092,177.566254 
	C435.198761,168.903549 435.546997,168.200012 440.951202,167.439072 
	C440.951202,170.938385 440.951202,174.384262 440.951202,179.640274 
	C444.527649,177.651718 447.771790,176.809158 449.401459,174.712051 
	C451.730865,171.714462 450.814758,168.078354 447.628662,164.660660 
M431.990204,263.310547 
	C432.450287,264.709961 432.647949,266.278076 433.418945,267.477722 
	C435.884277,271.313995 439.713013,272.015137 443.882935,271.384979 
	C447.274078,270.872467 450.342133,269.133942 450.091736,265.507477 
	C449.875183,262.371368 448.929230,258.344543 446.775360,256.467560 
	C441.284760,251.682724 433.375763,255.230637 431.990204,263.310547 
M434.704376,15.094955 
	C433.553772,18.283041 432.403168,21.471127 431.252594,24.659212 
	C431.755066,24.991434 432.257568,25.323656 432.760071,25.655878 
	C434.142761,23.922350 435.525482,22.188824 437.187561,20.105026 
	C440.685211,20.540709 445.889435,17.773537 447.408966,24.563759 
	C447.495758,24.951532 449.504761,24.909143 451.090240,25.133665 
	C448.530701,18.125441 446.336121,11.868791 443.912323,5.702247 
	C443.461761,4.555892 441.787750,2.828944 441.203491,3.015399 
	C439.949249,3.415699 438.656708,4.708747 438.064026,5.960274 
	C436.791229,8.648087 435.951538,11.540998 434.704376,15.094955 
M433.250427,131.131180 
	C431.614746,133.715225 432.181091,134.948090 435.382629,135.066681 
	C438.327545,135.175781 441.350769,135.323944 444.151794,136.117432 
	C445.288208,136.439362 445.927917,138.514725 446.793610,139.792236 
	C445.574677,140.458679 444.402771,141.565079 443.127197,141.701431 
	C440.335449,141.999863 437.479431,141.667114 434.675751,141.902740 
	C433.890503,141.968750 432.904022,143.001617 432.582581,143.816818 
	C432.420258,144.228424 433.523621,145.726944 434.078461,145.740234 
	C438.381866,145.843231 442.753784,146.094803 446.963257,145.419724 
	C448.372040,145.193787 450.209259,142.491699 450.374542,140.779053 
	C450.677032,137.644501 449.880859,134.403931 449.520050,130.991943 
	C444.390533,130.991943 439.253876,130.991943 433.250427,131.131180 
M438.597412,210.018616 
	C440.916382,209.990036 443.244537,210.080872 445.552063,209.903503 
	C448.625397,209.667236 450.547241,207.922150 450.487335,204.790634 
	C450.426483,201.607666 449.914246,198.433334 449.597076,195.229233 
	C444.027527,195.229233 438.455902,195.229233 432.884308,195.229233 
	C432.580688,195.634903 432.277069,196.040588 431.973450,196.446259 
	C433.079224,197.359344 434.074768,198.825546 435.313293,199.072296 
	C438.028137,199.613159 440.977936,199.138474 443.606873,199.878006 
	C444.934601,200.251511 445.772522,202.366211 446.831909,203.693619 
	C445.482086,204.398758 444.192535,205.502701 442.768677,205.717758 
	C440.500458,206.060333 438.139160,205.893921 435.823883,205.792023 
	C432.523926,205.646820 431.620789,206.907425 433.160095,210.018677 
	C434.708374,210.018677 436.195343,210.018677 438.597412,210.018616 
M432.363770,50.639381 
	C432.363678,51.470219 432.187286,52.349262 432.398682,53.122257 
	C432.901764,54.961643 433.588165,56.750877 434.200500,58.560368 
	C434.912598,56.857449 435.613007,55.149441 436.349030,53.456909 
	C436.464020,53.192543 436.741028,52.998627 437.139069,52.552544 
	C438.322510,53.661297 439.431244,54.831055 440.673187,55.836239 
	C443.210785,57.890015 446.072205,58.869980 448.799805,56.481827 
	C452.030640,53.653038 451.552307,49.889957 450.193481,46.382683 
	C449.888885,45.596432 447.924377,45.453262 447.584747,45.328976 
	C446.809448,48.338596 446.243774,50.534546 445.678131,52.730492 
	C443.688995,51.526119 441.674866,50.360168 439.727173,49.092175 
	C439.195465,48.746052 438.945068,47.980930 438.424347,47.602367 
	C436.915710,46.505615 435.335266,45.507610 433.783020,44.470863 
	C433.310150,46.235714 432.837250,48.000561 432.363770,50.639381 
M450.375336,97.308342 
	C449.268311,96.774048 448.161285,96.239761 447.531738,95.935913 
	C446.787964,98.880569 446.200806,101.205147 445.613678,103.529732 
	C443.518402,102.180481 441.387909,100.881508 439.348236,99.452896 
	C438.692841,98.993828 438.374634,98.064522 437.731293,97.574692 
	C436.366760,96.535706 434.889923,95.644165 433.026886,94.404541 
	C431.338196,105.804558 431.994812,108.694328 435.925690,108.692558 
	C436.139740,106.860001 436.355255,105.014771 436.645752,102.527565 
	C438.308868,104.206413 439.258759,105.814217 440.644836,106.413841 
	C442.771332,107.333786 445.612244,108.544144 447.379120,107.800270 
	C449.100433,107.075600 450.084503,104.141953 450.935272,101.996910 
	C451.373688,100.891502 450.818207,99.391884 450.375336,97.308342 
M301.656219,5.096963 
	C300.770325,6.476108 299.572876,7.748327 299.056030,9.254142 
	C297.411652,14.045021 297.013062,19.405514 301.114166,22.618774 
	C303.812653,24.733065 308.350433,24.624567 312.114655,25.158566 
	C312.962311,25.278816 314.018341,23.930193 316.122375,22.456594 
	C311.579132,22.161730 308.018982,22.936787 305.981354,21.520842 
	C303.863007,20.048786 302.609680,16.562227 302.133301,13.760193 
	C301.800629,11.803219 302.807953,8.433381 304.285248,7.608737 
	C307.071259,6.053538 310.628052,5.879035 313.920013,5.117780 
	C313.458130,1.607250 308.510956,1.194361 301.656219,5.096963 
M415.470825,10.974743 
	C415.074005,9.690546 414.677185,8.406349 414.280365,7.122154 
	C416.935883,6.319462 419.591400,5.516771 422.246948,4.714079 
	C421.413239,3.301015 419.698792,2.093379 418.541199,2.494144 
	C415.794434,3.445094 412.723083,4.667668 410.969788,6.770208 
	C410.089905,7.825321 411.292542,11.390162 412.504913,13.172910 
	C413.479462,14.605969 416.070038,14.831762 417.595215,16.034803 
	C418.708038,16.912569 420.071075,18.692606 419.836273,19.736004 
	C419.571136,20.914373 417.766174,22.220280 416.405518,22.555065 
	C414.796783,22.950882 412.947144,22.367590 409.638824,22.066439 
	C411.319794,23.885517 411.960938,25.215446 412.915710,25.502602 
	C417.092194,26.758690 422.153595,24.492359 423.463379,21.051035 
	C424.922302,17.217972 423.269012,14.556726 417.942932,12.165625 
	C417.339813,11.894858 416.736237,11.625123 415.470825,10.974743 
M394.589203,22.107895 
	C388.279297,23.753883 386.088013,22.218710 386.017426,16.043505 
	C385.975647,12.391179 386.078949,8.735316 385.943298,5.087495 
	C385.915680,4.345268 385.110535,3.631961 384.663818,2.905334 
	C384.053864,3.644998 382.944763,4.365895 382.916138,5.127414 
	C382.747833,9.604069 382.823761,14.090211 382.832306,18.573128 
	C382.841583,23.423937 385.898895,25.366587 390.137390,25.675482 
	C394.343506,25.982019 398.759521,25.085224 399.582916,20.357010 
	C400.482361,15.192073 400.051605,9.788355 400.070496,4.488255 
	C400.072388,3.959742 399.171234,3.428012 398.689209,2.897772 
	C398.126495,3.509043 397.104645,4.100225 397.076874,4.734901 
	C396.917358,8.380847 397.182861,12.051033 396.915588,15.684408 
	C396.765656,17.722454 395.866455,19.705383 394.589203,22.107895 
M432.031860,155.826035 
	C432.531799,157.251846 433.031738,158.677658 433.531708,160.103485 
	C434.388580,159.110580 435.128235,157.969025 436.139374,157.171692 
	C436.950684,156.531921 438.070221,156.035812 439.089935,155.957581 
	C441.393463,155.780853 443.719910,155.902054 445.446564,155.902054 
	C446.708649,157.615982 447.647644,158.891159 448.586639,160.166321 
	C449.473999,158.843948 450.361389,157.521591 451.331696,156.075653 
	C452.863251,155.920792 454.612976,155.743851 456.362701,155.566925 
	C456.592407,155.142654 456.822113,154.718369 457.051788,154.294098 
	C454.214813,152.246475 451.392578,150.177444 448.512054,148.193008 
	C448.288605,148.039093 447.327637,148.396179 447.263184,148.654114 
	C446.125366,153.207397 442.472168,150.909607 439.896362,151.327332 
	C436.912567,151.811203 433.311859,150.751465 432.031860,155.826035 
M201.226456,19.553558 
	C201.983978,15.290177 202.138336,11.174621 197.461121,8.907333 
	C193.488052,6.981375 188.902786,8.640512 186.904099,12.532372 
	C184.603958,17.011225 185.923157,22.972786 189.633911,24.868681 
	C193.771393,26.982599 198.080582,25.258333 201.226456,19.553558 
M41.749599,11.105419 
	C44.446625,10.851850 46.733692,11.128246 46.660870,14.753035 
	C44.277405,15.472455 41.595936,15.576012 40.036572,16.951593 
	C38.486244,18.319199 38.063763,20.965330 37.146706,23.050812 
	C39.128242,23.845507 41.058681,25.074934 43.105347,25.315485 
	C45.252327,25.567825 47.510761,24.871914 50.028641,24.551167 
	C50.028641,21.585880 49.713627,18.404327 50.092976,15.307843 
	C50.931740,8.461364 45.010269,6.958353 39.579487,8.943266 
	C38.918026,9.185026 38.571987,10.289802 38.079765,10.994615 
	C39.043713,11.081457 40.007656,11.168299 41.749599,11.105419 
M221.621475,13.458735 
	C221.682251,16.771574 221.679779,20.087898 221.861893,23.394049 
	C221.894806,23.991863 222.609573,24.905848 223.148270,25.020180 
	C223.662140,25.129240 224.888412,24.388916 224.891342,24.014902 
	C224.924713,19.720984 225.221954,15.342540 224.430832,11.180111 
	C224.184753,9.885444 220.942719,8.624267 218.932419,8.341428 
	C216.609177,8.014564 214.131561,8.785114 211.113861,9.153235 
	C211.113861,13.423657 211.033127,18.017366 211.185745,22.603313 
	C211.214386,23.463675 212.175629,24.292999 212.706528,25.136639 
	C213.346832,24.219948 214.397232,23.365007 214.546387,22.374363 
	C214.913803,19.934254 214.548431,17.363598 215.060577,14.970151 
	C215.859100,11.238307 218.104095,10.547646 221.621475,13.458735 
M450.148224,453.368988 
	C449.693451,448.238983 454.285614,451.207214 456.985352,448.916901 
	C455.545380,447.838104 454.357208,446.839081 453.058685,446.013672 
	C452.199310,445.467468 450.643036,445.414093 450.328552,444.719299 
	C449.008606,441.802948 448.103577,441.756012 446.684631,444.653839 
	C446.335815,445.366272 444.942444,445.844910 443.986053,445.926849 
	C441.682281,446.124268 439.341522,445.884125 437.036469,446.073517 
	C433.063629,446.399933 431.046112,449.269043 432.213043,452.919861 
	C432.451660,453.666504 433.332153,454.539642 434.051910,454.684967 
	C434.536072,454.782745 435.223877,453.657623 435.880829,453.159088 
	C437.224854,452.139313 438.487823,450.684265 440.007568,450.305969 
	C441.995819,449.811096 444.200256,450.184723 445.735901,450.184723 
	C447.593933,451.775177 445.460541,456.432373 450.148224,453.368988 
M122.698975,8.591353 
	C121.835213,9.393688 120.355370,10.108433 120.226448,11.015244 
	C119.878601,13.461883 119.913750,16.009689 120.162315,18.480593 
	C120.388039,20.724331 121.094482,22.919704 121.589005,25.136400 
	C125.632782,23.957823 123.149490,20.718317 123.543259,18.477957 
	C124.095329,15.336920 123.901642,11.249064 127.982620,11.323689 
	C132.101959,11.399014 130.322845,15.542951 130.790253,18.058115 
	C131.231171,20.430769 131.781494,22.783089 132.283691,25.144356 
	C132.870758,22.716373 133.915909,20.297506 133.964447,17.858810 
	C134.159348,8.064810 133.216339,7.375155 124.091759,9.536901 
	C123.877930,9.587559 123.559906,9.198394 122.698975,8.591353 
M442.503601,437.994110 
	C443.524536,436.667206 444.545502,435.340302 445.566467,434.013397 
	C446.304993,435.960815 447.043518,437.908234 448.204498,440.969666 
	C449.208435,439.376740 450.657684,438.086273 450.431610,437.247314 
	C449.744843,434.698853 449.074524,431.149536 447.208405,430.095184 
	C440.620239,426.372925 440.925751,434.653656 436.686523,437.337128 
	C436.167816,434.427002 435.771820,432.205475 435.147125,428.700867 
	C433.746399,430.276123 432.007446,431.456238 432.181152,432.172394 
	C432.883972,435.069855 433.504089,438.493042 435.442444,440.440216 
	C437.309601,442.315826 440.477539,441.597076 442.503601,437.994110 
M441.518799,238.177338 
	C443.134308,238.177338 444.749786,238.177338 445.756805,238.177338 
	C446.832458,240.167480 447.540009,241.476593 448.247559,242.785736 
	C449.263824,241.400406 450.280121,240.015076 451.489655,238.366272 
	C452.781525,238.209564 454.533539,237.997009 457.625214,237.621948 
	C455.841064,235.924622 454.955017,234.358398 453.796875,234.121307 
	C450.830750,233.514130 447.950134,229.371658 444.536499,233.851242 
	C443.863220,234.734772 441.047577,233.962540 439.220825,233.998093 
	C437.895477,234.023880 436.117310,233.612305 435.345490,234.299377 
	C433.920715,235.567657 432.587494,237.388062 432.184418,239.194489 
	C431.922363,240.368988 433.373596,241.925766 434.057281,243.311264 
	C436.416840,238.497650 436.416840,238.497650 441.518799,238.177338 
M446.474701,525.929504 
	C450.241394,525.929504 454.008118,525.929504 458.240692,525.929504 
	C458.107941,524.114624 458.009674,522.771179 457.903015,521.312927 
	C449.932556,521.312927 442.479401,521.224304 435.034210,521.427002 
	C434.119568,521.451843 433.247345,523.034729 432.355469,523.895569 
	C433.255463,524.572571 434.120117,525.769592 435.061737,525.833618 
	C438.524353,526.068909 442.012512,525.928345 446.474701,525.929504 
M440.587646,314.068970 
	C439.096405,314.069214 437.508514,313.748169 436.140991,314.159576 
	C434.760529,314.574921 433.598633,315.716675 432.341003,316.540192 
	C433.547363,317.256989 434.734406,318.552216 435.963348,318.593262 
	C442.252625,318.803406 448.554626,318.597351 454.848389,318.724396 
	C458.730713,318.802734 458.899200,317.054291 457.591614,314.068848 
	C452.161133,314.068848 446.862091,314.068848 440.587646,314.068970 
M433.297424,121.240326 
	C431.179108,124.407127 432.241211,125.716400 435.826630,125.692558 
	C441.467957,125.655052 447.113708,125.559082 452.749939,125.733948 
	C456.615356,125.853874 456.911621,124.167953 455.623352,121.092186 
	C448.403412,121.092186 441.274506,121.092186 433.297424,121.240326 
M435.952484,186.648788 
	C441.817474,184.529999 445.491089,189.884903 450.375977,192.354843 
	C450.135620,188.053452 449.978851,185.247253 449.802643,182.093628 
	C444.753662,182.093628 439.957336,181.989426 435.173035,182.182129 
	C434.223450,182.220383 433.319733,183.397263 432.394867,184.049072 
	C433.297516,184.913925 434.200165,185.778763 435.952484,186.648788 
M449.880005,84.763535 
	C448.884674,83.936440 447.889374,83.109352 446.894043,82.282257 
	C446.293213,83.508301 445.692383,84.734352 444.908203,86.334526 
	C441.846710,86.334526 438.357025,86.184731 434.896667,86.436920 
	C434.000214,86.502251 433.195526,87.826500 432.348694,88.572472 
	C433.152679,89.353729 433.931427,90.778709 434.764801,90.811409 
	C440.032684,91.018089 445.312683,90.916245 451.178802,90.916245 
	C450.726654,88.664886 450.411621,87.096382 449.880005,84.763535 
M71.041512,20.463264 
	C69.975151,18.969017 69.026352,17.369423 67.808762,16.010704 
	C66.634972,14.700866 65.183617,13.639769 63.854206,12.469391 
	C65.459625,12.000545 67.067284,11.539167 68.668976,11.057916 
	C69.102013,10.927803 69.516975,10.737500 70.628319,10.310366 
	C67.808418,6.950021 64.351891,7.536689 62.400982,9.472190 
	C54.714920,17.097555 65.782417,16.970108 68.238815,21.445038 
	C65.091988,22.332928 62.577274,23.042465 59.540485,23.899309 
	C64.848854,26.857849 68.335472,25.873602 71.041512,20.463264 
M175.414215,25.601753 
	C176.376770,25.143726 177.339325,24.685701 179.144669,23.826633 
	C172.655746,21.840189 172.433243,21.244019 173.637939,11.657135 
	C175.044479,11.328167 176.525833,10.981700 178.007187,10.635233 
	C178.085342,10.265229 178.163498,9.895226 178.241669,9.525223 
	C176.673843,8.901544 175.106003,8.277864 173.461853,7.623825 
	C173.252380,6.068274 173.038010,4.476449 172.608109,1.284101 
	C170.331085,4.984990 168.750687,7.553650 167.122665,10.199696 
	C169.883759,11.949540 169.923325,11.949376 169.952835,19.079300 
	C169.966660,22.418337 169.995438,25.614796 175.414215,25.601753 
M446.409485,467.115479 
	C447.659576,467.473358 448.909698,467.831238 450.249420,468.214783 
	C450.064484,464.709534 449.917908,461.931915 449.753052,458.807465 
	C444.876038,458.807465 440.064026,458.816925 435.252045,458.804230 
	C431.744965,458.794983 432.078705,460.603485 433.091705,463.024231 
	C435.466278,463.024231 437.741150,462.597992 439.758392,463.136658 
	C442.061615,463.751678 444.135468,465.225739 446.409485,467.115479 
M436.799896,250.932846 
	C441.080933,250.932846 445.362000,250.932846 449.904175,250.932846 
	C449.904175,249.283905 449.904175,247.933167 449.904175,246.317917 
	C444.916260,246.317917 440.288483,246.159302 435.685852,246.429108 
	C434.530334,246.496841 433.455444,247.939499 432.343506,248.750275 
	C433.528107,249.477753 434.712738,250.205231 436.799896,250.932846 
M441.525024,603.008240 
	C444.293121,603.008240 447.061218,603.008240 449.829315,603.008240 
	C450.103271,602.511963 450.377258,602.015686 450.651215,601.519409 
	C449.548187,600.623108 448.500977,599.050415 447.331970,598.953857 
	C443.393341,598.628784 439.410187,598.890015 435.446472,598.808838 
	C432.133972,598.741028 431.969452,600.326843 433.099091,603.008057 
	C435.627960,603.008057 438.093689,603.008057 441.525024,603.008240 
M432.634308,421.737366 
	C432.185547,423.855164 432.463715,425.290253 435.199280,425.203369 
	C439.172089,425.077179 443.156616,425.052490 447.127350,425.208466 
	C450.452393,425.339081 450.450378,423.681671 449.840363,421.147308 
	C444.140594,421.147308 438.701111,421.147308 432.634308,421.737366 
M353.581482,19.763130 
	C354.747131,19.243683 356.771942,18.890194 356.910583,18.172369 
	C357.267151,16.326517 356.787689,14.319172 356.642334,12.376365 
	C354.587036,12.637015 351.618805,12.150821 350.667084,13.314243 
	C348.703857,15.714095 349.757538,18.280952 353.581482,19.763130 
M109.172768,11.008060 
	C108.627586,10.179699 108.082397,9.351338 107.537209,8.522982 
	C107.025177,9.201511 106.093544,9.865843 106.070023,10.560902 
	C105.930130,14.694929 105.934181,18.838112 106.062325,22.972874 
	C106.084717,23.695408 106.925949,24.392567 107.389008,25.101442 
	C107.981140,24.344999 109.044678,23.612658 109.084793,22.827993 
	C109.270523,19.195219 109.171989,15.547912 109.172768,11.008060 
M234.858765,28.117840 
	C235.321350,28.697668 235.783951,29.277496 236.246536,29.857323 
	C237.217316,27.715986 238.335938,25.620871 239.032288,23.393721 
	C239.169052,22.956257 237.674042,22.008604 236.931595,21.296255 
	C236.379486,22.147276 235.572342,22.934668 235.340103,23.865505 
	C235.052536,25.018082 235.241776,26.289616 234.858765,28.117840 
z"/>
<path fill="#1369B1" opacity="1.000000" stroke="none" 
	d="
M1.000000,3.399996 
	C3.345442,2.393726 4.675173,3.012737 5.223975,5.654037 
	C6.084321,9.794748 7.345550,13.852164 9.421483,18.083759 
	C10.385875,14.688854 11.132775,11.209960 12.398818,7.931546 
	C13.121577,6.059962 14.690445,4.515123 15.878338,2.823161 
	C16.929054,4.448970 18.311625,5.953303 18.960592,7.726174 
	C20.264614,11.288563 21.168440,14.997444 22.375546,19.117308 
	C25.474461,13.717214 24.370132,6.933024 28.307392,2.454220 
	C28.974012,2.701416 29.640633,2.948612 30.307253,3.195807 
	C28.496429,10.150365 26.733421,17.118387 24.785799,24.034420 
	C24.626591,24.599770 23.020731,25.304512 22.417494,25.075214 
	C21.407490,24.691296 20.211813,23.758669 19.885824,22.790462 
	C18.408409,18.402466 17.208113,13.921165 15.541587,8.219682 
	C14.001381,13.664334 12.903250,17.989712 11.500235,22.213823 
	C11.119401,23.360418 9.818103,24.201286 8.939270,25.182472 
	C7.931654,24.158001 6.413800,23.303406 6.006208,22.079168 
	C4.384538,17.208332 3.109144,12.222207 1.352753,7.139390 
	C1.000000,5.933331 1.000000,4.866662 1.000000,3.399996 
z"/>
<path fill="#166BB2" opacity="1.000000" stroke="none" 
	d="
M83.625000,1.000000 
	C84.000000,3.812242 84.000000,6.624485 84.000000,9.914822 
	C85.684006,9.258931 86.835564,8.613803 88.066879,8.367624 
	C91.793083,7.622641 94.468369,8.974236 94.788910,12.941391 
	C95.106758,16.875271 94.858452,20.854897 94.858452,24.814459 
	C94.391907,25.033665 93.925362,25.252872 93.458817,25.472078 
	C92.770058,24.487389 91.613579,23.559187 91.486465,22.506668 
	C91.189491,20.047699 91.635048,17.493725 91.287224,15.048301 
	C91.090919,13.668098 89.918282,12.426760 89.185440,11.122869 
	C87.809303,12.124510 85.647255,12.871646 85.223053,14.181558 
	C84.378601,16.789221 84.585144,19.721256 84.152817,22.487293 
	C84.007446,23.417385 83.241425,24.250467 82.759079,25.127890 
	C82.161911,24.215891 81.066864,23.314545 81.047089,22.390190 
	C80.901260,15.575010 80.969994,8.755239 80.985603,1.468456 
	C81.750000,1.000000 82.500000,1.000000 83.625000,1.000000 
z"/>
<path fill="#015DAB" opacity="1.000000" stroke="none" 
	d="
M254.834534,640.828613 
	C253.337250,640.883606 251.839951,640.986511 250.342667,640.986633 
	C169.356506,640.994385 88.370346,640.993591 7.384190,640.993591 
	C6.078170,640.993591 4.772151,640.993591 3.156600,640.993591 
	C3.156600,441.980042 3.156600,243.283340 3.156600,44.042736 
	C105.410225,44.042736 207.666061,44.042736 310.380432,44.563770 
	C310.838928,56.008472 310.838928,66.932137 310.838928,78.336281 
	C318.632416,78.336281 325.721191,78.336281 332.886810,78.336281 
	C332.998840,79.802689 333.139069,80.783905 333.139343,81.765152 
	C333.150726,122.585228 333.452393,163.408508 333.019714,204.223999 
	C332.809540,224.047958 328.575134,243.288925 319.114380,260.910553 
	C281.506958,330.958160 243.794785,400.950012 205.898865,470.841858 
	C197.511627,486.310516 192.647873,502.362183 194.038788,520.056641 
	C194.032303,531.072205 194.025833,542.087708 194.025116,554.031738 
	C194.072205,561.772644 194.131866,568.584961 194.151566,575.397461 
	C194.228989,602.176086 206.695862,621.392395 230.458679,632.975403 
	C238.055084,636.678162 246.680145,638.270569 254.834534,640.828613 
M38.988121,484.914276 
	C38.945576,484.983124 38.903034,485.052002 39.134823,485.732819 
	C48.723129,496.594238 57.778599,507.997467 68.082825,518.130920 
	C75.220123,525.149902 77.045990,531.539490 71.472534,539.894775 
	C70.569328,541.248840 70.183617,542.947205 69.553421,544.484314 
	C65.431770,554.537170 61.308670,564.589417 56.678295,575.880005 
	C71.673325,568.411743 85.445999,561.552307 99.465775,554.569763 
	C111.852493,568.465698 124.096161,582.201172 137.158569,596.855103 
	C136.892914,594.357117 136.869202,593.102783 136.614700,591.897217 
	C133.316666,576.273865 130.142471,560.621216 126.541603,545.067444 
	C125.744507,541.624390 126.774040,540.405334 129.540192,539.021362 
	C142.277374,532.648926 154.921997,526.091553 168.312500,519.235535 
	C166.648636,518.603333 165.788284,518.187256 164.881516,517.945251 
	C150.906326,514.214661 136.940002,510.448975 122.933914,506.837646 
	C119.778740,506.024109 117.875870,504.847931 117.274086,501.184082 
	C115.818993,492.325226 113.802559,483.558136 111.990646,474.758514 
	C110.439545,467.225555 108.858231,459.698822 106.989388,450.724426 
	C100.267296,467.253784 94.163475,482.262848 88.006966,497.401428 
	C72.764259,493.351715 58.152393,489.444122 43.518768,485.619812 
	C41.998074,485.222351 40.348240,485.319061 38.988121,484.914276 
M111.013550,323.454437 
	C111.013550,313.349457 111.013550,303.244476 111.013550,292.718201 
	C119.860153,292.718201 128.116150,292.718201 136.607422,292.718201 
	C136.607422,287.869934 136.607422,283.452942 136.607422,278.392090 
	C128.072540,278.392090 119.695061,278.392090 110.885086,278.392090 
	C110.885086,247.679855 110.885086,217.607239 110.885086,187.144867 
	C105.639534,187.144867 100.822540,187.406723 96.049026,187.063660 
	C92.090309,186.779144 89.805809,188.162292 87.680695,191.558792 
	C70.737869,218.637909 53.725815,245.676697 36.377617,272.496704 
	C32.941124,277.809418 31.860884,282.526947 33.586609,288.663086 
	C34.608212,292.295593 35.965813,292.949554 39.275391,292.921173 
	C56.102001,292.776764 72.930511,292.853973 89.758362,292.853516 
	C91.534767,292.853455 93.311172,292.853485 95.679733,292.853485 
	C95.679733,306.529144 95.679733,319.582367 95.679733,332.585785 
	C101.050591,332.585785 105.820030,332.585785 111.013550,332.585785 
	C111.013550,329.699524 111.013550,327.069061 111.013550,323.454437 
M182.242371,216.718216 
	C170.508453,235.267395 159.219193,254.121262 146.820923,272.215210 
	C141.888306,279.413849 142.897446,285.593353 145.450836,293.004089 
	C165.512695,293.004089 185.584305,293.004089 206.175262,293.004089 
	C206.175262,306.479553 206.175262,319.531464 206.175262,332.488464 
	C211.444794,332.488464 216.181351,332.488464 221.297440,332.488464 
	C221.297440,319.199951 221.297440,306.264862 221.297440,292.726379 
	C230.064133,292.726379 238.444412,292.726379 246.714172,292.726379 
	C246.714172,287.684082 246.714172,283.260010 246.714172,278.350525 
	C238.178360,278.350525 229.922623,278.350525 221.187027,278.350525 
	C221.187027,247.798813 221.187027,217.739349 221.187027,187.151581 
	C215.416885,187.151581 210.129181,187.298584 204.855301,187.092361 
	C202.027039,186.981766 200.363556,187.865433 198.856445,190.364182 
	C193.618790,199.047913 188.085678,207.553436 182.242371,216.718216 
M284.473755,85.938065 
	C257.678040,75.410423 230.800812,88.129097 223.583603,114.988571 
	C220.179947,127.655472 220.729401,140.360504 224.992172,152.801376 
	C227.658524,160.583130 232.251556,167.026825 239.356842,171.364563 
	C257.007111,182.139969 289.105286,180.300812 301.919128,153.878815 
	C308.535583,140.235672 308.666351,125.923531 305.219727,111.488899 
	C302.486572,100.042397 295.978851,91.366074 284.473755,85.938065 
M148.993195,127.500000 
	C148.993195,143.585648 148.993195,159.671280 148.993195,175.749847 
	C154.214050,175.749847 158.804077,175.749847 163.847015,175.749847 
	C163.847015,173.876724 163.843536,172.253708 163.847580,170.630722 
	C163.872559,160.638306 163.685211,150.639450 163.984772,140.655243 
	C164.292786,130.389526 169.840591,122.098473 177.386810,119.735634 
	C185.014435,117.347305 190.538528,120.833801 190.997498,128.709564 
	C191.345764,134.685898 191.142044,140.695419 191.151672,146.690231 
	C191.167099,156.304306 191.155823,165.918411 191.155823,175.685349 
	C196.349335,175.685349 201.056503,175.685349 205.948547,175.685349 
	C205.948547,158.730240 206.158661,142.091827 205.853806,125.462852 
	C205.715622,117.925743 202.826080,111.437592 195.235443,108.252495 
	C186.167923,104.447685 173.831161,107.046127 167.035416,114.182442 
	C166.062637,115.203987 165.510513,116.626137 164.763702,117.862885 
	C164.318756,117.520241 163.873825,117.177589 163.428894,116.834938 
	C163.428894,103.408249 163.428894,89.981552 163.428894,76.410873 
	C158.605240,76.410873 154.026352,76.410873 148.993195,76.410873 
	C148.993195,93.274231 148.993195,109.887115 148.993195,127.500000 
M68.684906,151.794464 
	C73.604942,166.957199 84.615410,174.713608 99.886841,176.641571 
	C110.994476,178.043839 121.978386,177.090515 132.532181,172.585022 
	C131.914322,168.028397 131.358795,163.931366 130.795135,159.774277 
	C126.548485,160.860336 122.601440,162.256516 118.540291,162.799896 
	C114.456673,163.346298 110.226974,163.409393 106.118324,163.043671 
	C94.775925,162.034042 87.121208,155.454514 84.070190,144.418365 
	C81.769165,136.095093 81.540283,127.629318 83.324516,119.219551 
	C86.855934,102.574654 98.329720,94.530716 115.367401,96.606514 
	C120.228882,97.198814 125.049477,98.126793 130.140381,98.941086 
	C130.679718,94.386566 131.182037,90.144676 131.718567,85.613930 
	C121.336288,83.046021 111.207039,82.013290 100.878143,83.843178 
	C84.607910,86.725632 73.898560,96.084343 68.879631,111.741638 
	C64.711380,124.745102 64.694252,137.910339 68.684906,151.794464 
M34.132488,148.499985 
	C34.132488,157.581696 34.132488,166.663406 34.132488,175.792664 
	C39.568142,175.792664 44.328712,175.792664 49.245251,175.792664 
	C49.245251,145.081314 49.245251,114.600296 49.245251,83.999710 
	C44.125263,83.999710 39.352654,83.999710 34.132519,83.999710 
	C34.132519,105.313400 34.132519,126.406685 34.132488,148.499985 
z"/>
<path fill="#005DAB" opacity="1.000000" stroke="none" 
	d="
M412.940674,78.172379 
	C413.011810,79.333481 413.145203,80.494583 413.145203,81.655685 
	C413.144287,234.267731 413.133636,386.879761 412.570496,539.964111 
	C363.044861,540.426819 314.072113,540.415527 265.099365,540.409668 
	C258.450012,540.408875 251.986969,539.628723 245.830475,536.267822 
	C246.350372,535.215149 246.688004,534.473755 247.073807,533.758423 
	C266.254761,498.193024 285.448883,462.634735 304.621643,427.064941 
	C320.243774,398.082306 336.352814,369.347260 351.304596,340.022461 
	C366.137085,310.931793 368.997589,279.322906 367.923340,247.193817 
	C367.909973,246.794449 367.447479,246.410080 367.112000,245.660645 
	C367.038544,244.568146 367.047699,243.833740 367.403107,242.837570 
	C367.776978,230.642242 367.804596,218.708694 367.898621,206.261597 
	C367.965027,163.348740 367.965027,120.949432 367.965027,78.172379 
	C383.350952,78.172379 398.145813,78.172379 412.940674,78.172379 
z"/>
<path fill="#E41A39" opacity="1.000000" stroke="none" 
	d="
M367.194611,246.018723 
	C367.447479,246.410080 367.909973,246.794449 367.923340,247.193817 
	C368.997589,279.322906 366.137085,310.931793 351.304596,340.022461 
	C336.352814,369.347260 320.243774,398.082306 304.621643,427.064941 
	C285.448883,462.634735 266.254761,498.193024 247.073807,533.758423 
	C246.688004,534.473755 246.350372,535.215149 245.830475,536.267822 
	C251.986969,539.628723 258.450012,540.408875 265.099365,540.409668 
	C314.072113,540.415527 363.044861,540.426819 412.482117,540.455933 
	C412.946625,551.750977 412.946625,563.026550 412.946625,574.833252 
	C411.059418,574.833252 409.442383,574.833313 407.825348,574.833313 
	C359.199707,574.832458 310.574036,574.865906 261.948425,574.818481 
	C230.453674,574.787781 202.873901,554.323303 195.580399,525.696350 
	C195.171387,524.091064 194.886734,522.454041 194.291489,520.444214 
	C192.647873,502.362183 197.511627,486.310516 205.898865,470.841858 
	C243.794785,400.950012 281.506958,330.958160 319.114380,260.910553 
	C328.575134,243.288925 332.809540,224.047958 333.019714,204.223999 
	C333.452393,163.408508 333.150726,122.585228 333.139343,81.765152 
	C333.139069,80.783905 332.998840,79.802689 332.886810,78.336281 
	C325.721191,78.336281 318.632416,78.336281 310.838928,78.336281 
	C310.838928,66.932137 310.838928,56.008472 310.834473,44.627464 
	C344.473877,44.132626 378.117767,44.094242 411.761658,44.071888 
	C412.057861,44.071693 412.354187,44.286846 413.126099,44.585457 
	C413.126099,55.349270 413.126099,66.287598 413.033386,77.699158 
	C398.145813,78.172379 383.350952,78.172379 367.965027,78.172379 
	C367.965027,120.949432 367.965027,163.348740 367.741272,206.532608 
	C367.041351,212.232437 366.565155,217.147690 366.032715,222.464798 
	C363.029205,243.075470 357.589691,262.450195 347.791718,280.549011 
	C310.598480,349.252258 273.523895,418.019867 236.503738,486.816528 
	C233.763855,491.908203 231.309723,497.267303 229.605164,502.775146 
	C227.188919,510.582764 227.561508,518.337891 232.958939,525.834839 
	C233.828644,524.360901 234.427063,523.420532 234.954697,522.441956 
	C272.032776,453.677368 308.911987,384.804352 346.289856,316.203125 
	C358.303101,294.154663 364.811310,270.778534 367.194611,246.018723 
z"/>
<path fill="#E51A39" opacity="1.000000" stroke="none" 
	d="
M255.309448,640.901978 
	C246.680145,638.270569 238.055084,636.678162 230.458679,632.975403 
	C206.695862,621.392395 194.228989,602.176086 194.151566,575.397461 
	C194.131866,568.584961 194.072205,561.772644 194.097092,554.497925 
	C194.472031,554.568420 194.943878,555.066345 195.066223,555.638916 
	C202.365112,589.799316 234.400833,607.182678 262.576508,607.171631 
	C310.563751,607.152832 358.550964,607.165833 406.538208,607.165527 
	C408.509491,607.165466 410.480774,607.165527 412.803711,607.165527 
	C412.803711,618.428650 412.803711,629.346375 412.803711,640.975403 
	C360.598114,640.975403 308.191254,640.975403 255.309448,640.901978 
z"/>
<path fill="#1A6DB3" opacity="1.000000" stroke="none" 
	d="
M446.681976,408.497650 
	C443.811737,403.925323 439.508545,405.116486 435.658844,405.099365 
	C432.681458,405.086090 431.701569,404.138977 432.995331,400.947144 
	C436.266663,400.947144 439.580841,401.166107 442.841278,400.842834 
	C444.207397,400.707367 445.459503,399.422363 446.763458,398.659973 
	C445.726135,397.481415 444.873383,395.605225 443.612518,395.271729 
	C441.102783,394.607849 438.323730,395.024078 435.746826,394.524902 
	C434.526764,394.288605 433.515930,392.971985 432.410278,392.144775 
	C433.472382,391.464996 434.509155,390.250183 435.601044,390.198425 
	C440.226471,389.979156 444.868256,390.105469 450.527039,390.105469 
	C449.893494,394.957733 449.235229,399.448822 448.777679,403.960327 
	C448.684265,404.881622 449.255463,405.920044 449.672394,406.835175 
	C451.986816,411.915100 450.034546,415.446228 444.484192,415.836914 
	C441.508972,416.046295 438.490112,416.071899 435.527222,415.793945 
	C434.433380,415.691315 433.443573,414.479919 432.406311,413.774231 
	C433.538208,412.972198 434.593292,411.660339 435.818207,411.475830 
	C438.254669,411.108917 440.827118,411.632141 443.258636,411.249329 
	C444.535461,411.048340 445.633240,409.709717 446.681976,408.497650 
z"/>
<path fill="#196CB3" opacity="1.000000" stroke="none" 
	d="
M447.028687,573.576233 
	C442.980011,573.788574 439.310150,573.996704 435.662415,573.797852 
	C434.555878,573.737549 433.510620,572.552917 432.437286,571.883240 
	C433.469971,571.183533 434.447693,569.997009 435.545380,569.873047 
	C439.209381,569.459229 442.916382,569.426086 447.087341,569.223816 
	C445.521454,562.425842 441.028717,563.283997 437.047852,563.219604 
	C432.890778,563.152405 432.890411,563.175964 432.597809,558.959412 
	C435.888153,558.959412 439.170837,559.174683 442.403107,558.864624 
	C443.918488,558.719238 445.336731,557.560974 446.799011,556.861755 
	C445.465912,555.576111 444.331482,553.653687 442.751129,553.160645 
	C440.616425,552.494629 438.095184,553.180115 435.825928,552.787720 
	C434.595367,552.574890 433.543365,551.329285 432.410828,550.549622 
	C433.460205,549.827637 434.481171,548.536438 435.563843,548.482361 
	C440.203491,548.250854 444.861298,548.383667 450.434540,548.383667 
	C449.910797,553.145203 449.367157,557.570679 448.980438,562.009705 
	C448.896271,562.976013 449.231598,564.050903 449.618317,564.973267 
	C451.048370,568.383728 451.376740,571.440308 447.028687,573.576233 
z"/>
<path fill="#1167B0" opacity="1.000000" stroke="none" 
	d="
M434.985748,513.952881 
	C431.127899,508.071350 431.131683,502.359924 434.752502,498.623810 
	C438.323822,494.938751 446.643311,494.274658 451.499054,497.287018 
	C456.118103,500.152496 457.986694,505.969788 455.983032,511.246277 
	C453.195557,518.586792 443.037140,520.054810 434.985748,513.952881 
M436.383545,504.148163 
	C435.664215,511.300110 441.911316,515.575623 448.710541,512.241150 
	C450.474213,511.376190 452.493927,508.911346 452.510712,507.163361 
	C452.530090,505.145966 450.925568,502.483124 449.205109,501.210876 
	C445.697235,498.616974 440.405853,499.885376 436.383545,504.148163 
z"/>
<path fill="#1C6EB4" opacity="1.000000" stroke="none" 
	d="
M143.882233,27.968781 
	C144.225601,24.209068 145.222076,20.741152 144.622803,17.575291 
	C143.715714,12.783138 145.313217,8.997555 150.137466,8.353273 
	C153.319962,7.928248 156.605225,8.272847 159.982498,8.272847 
	C158.289062,15.236667 158.016098,22.487175 147.654205,20.568119 
	C147.942841,21.107935 148.231461,21.647751 148.520081,22.187565 
	C150.531097,22.389299 152.675110,22.225946 154.515396,22.896339 
	C156.324097,23.555225 158.742203,24.775949 159.206558,26.273155 
	C159.688171,27.825930 158.691254,30.585058 157.391815,31.808302 
	C152.680405,36.243443 144.922424,34.126694 143.882233,27.968781 
M153.823822,11.586854 
	C151.935760,11.910823 149.904861,11.938301 148.245850,12.737652 
	C147.741684,12.980574 147.724228,15.912963 148.449478,16.612713 
	C149.404755,17.534388 152.370468,18.122641 152.624771,17.711565 
	C153.621231,16.100910 153.891281,14.040832 153.823822,11.586854 
M154.778519,30.348730 
	C154.952591,28.981840 155.126663,27.614948 155.300720,26.248055 
	C153.059265,26.173008 150.795486,25.903057 148.591568,26.155619 
	C148.017883,26.221359 147.116394,28.666876 147.237152,28.749792 
	C148.595337,29.682291 150.076309,30.498905 151.628479,31.056862 
	C152.309250,31.301573 153.228592,30.882627 154.778519,30.348730 
z"/>
<path fill="#0D65AF" opacity="1.000000" stroke="none" 
	d="
M454.999390,636.982178 
	C456.516266,637.901978 457.572449,638.820984 458.628662,639.739929 
	C458.334412,640.140991 458.040192,640.542053 457.745972,640.943115 
	C449.531921,640.943115 441.317871,640.943115 433.110046,640.943115 
	C432.735992,637.761658 432.023956,634.666504 432.097015,631.589966 
	C432.192139,627.581543 435.089600,625.990112 438.722443,625.507568 
	C444.135590,624.788513 448.649963,627.148315 449.937531,631.500610 
	C450.401917,633.070312 450.530792,634.739258 450.875427,636.723572 
	C452.039093,636.805481 453.288910,636.893433 454.999390,636.982178 
M442.167023,629.988831 
	C439.499390,630.139648 435.083649,629.346313 436.137390,633.434387 
	C437.523987,638.813416 442.717224,636.657227 446.621643,636.763550 
	C447.522308,633.109802 446.311493,630.991272 442.167023,629.988831 
z"/>
<path fill="#0A63AE" opacity="1.000000" stroke="none" 
	d="
M424.047852,581.924194 
	C425.021118,580.637512 426.020966,579.126160 427.061829,579.097412 
	C434.506714,578.891479 441.959930,578.987488 449.475067,578.987488 
	C449.806000,582.512939 450.514374,585.902283 450.337952,589.244934 
	C450.123596,593.306152 446.922852,594.667358 443.356964,594.913940 
	C438.768250,595.231262 434.671783,594.204773 432.865326,589.336487 
	C432.195618,587.531799 432.078430,585.522095 431.719147,583.656982 
	C429.141449,583.227356 426.617432,582.806641 424.047852,581.924194 
M438.437378,589.942200 
	C440.384308,590.006226 442.417542,590.432129 444.245209,589.996216 
	C445.309113,589.742371 446.043610,588.107544 446.926331,587.094116 
	C445.495514,585.900513 444.222107,584.081909 442.593964,583.671875 
	C440.566772,583.161316 438.246826,583.813293 436.053284,583.963196 
	C436.603607,585.851196 437.153900,587.739258 438.437378,589.942200 
z"/>
<path fill="#1C6EB4" opacity="1.000000" stroke="none" 
	d="
M432.435730,619.044189 
	C432.443268,617.254944 432.659546,615.809326 432.349701,614.486938 
	C431.581848,611.209717 431.828217,608.280640 435.476379,607.246094 
	C438.964752,606.256836 441.156891,608.339233 442.282104,611.490601 
	C442.884338,613.177368 443.169922,614.977173 443.597839,616.723511 
	C447.458435,615.880432 447.570099,615.541687 446.127899,608.598083 
	C447.225464,608.598083 449.103882,608.466187 449.127014,608.617554 
	C449.587524,611.633972 450.465088,614.813660 449.873505,617.673889 
	C449.547668,619.249146 446.825684,621.045776 444.924805,621.417603 
	C441.727234,622.043091 438.311676,621.768066 435.013245,621.525940 
	C434.097809,621.458740 433.272003,620.171448 432.435730,619.044189 
z"/>
<path fill="#166BB2" opacity="1.000000" stroke="none" 
	d="
M432.460205,302.134521 
	C431.647339,298.577881 431.847198,295.675507 435.645966,294.649292 
	C439.487335,293.611511 441.297577,295.800659 443.857361,304.250946 
	C447.498260,302.894409 447.498260,302.894409 446.064117,295.366974 
	C447.660645,296.131653 449.315308,296.366852 449.795959,297.244843 
	C452.924744,302.959534 449.462128,308.903809 443.070953,309.023193 
	C439.765930,309.084930 436.458801,309.034027 432.618652,309.034027 
	C432.618652,306.698059 432.618652,304.588745 432.460205,302.134521 
z"/>
<path fill="#2575B7" opacity="1.000000" stroke="none" 
	d="
M445.241333,290.608826 
	C441.492432,290.657898 438.153137,290.819824 434.846802,290.560974 
	C433.961884,290.491699 433.177521,289.137787 432.347015,288.373627 
	C433.171417,287.610779 433.932648,286.292114 434.832092,286.189941 
	C437.460175,285.891357 440.168121,286.291748 442.794861,285.987518 
	C444.175903,285.827545 445.452728,284.767792 446.776611,284.114319 
	C445.677765,282.808929 444.788239,280.732941 443.434662,280.365265 
	C440.939362,279.687378 438.143799,280.205750 435.530212,279.830017 
	C434.401001,279.667694 433.413208,278.521698 432.361176,277.822571 
	C433.453369,276.989685 434.506866,275.505615 435.644501,275.438019 
	C440.265259,275.163574 444.911835,275.323914 449.634308,275.323914 
	C449.970184,279.011353 450.890808,282.510773 450.348450,285.766479 
	C450.047058,287.575592 447.305237,288.978119 445.241333,290.608826 
z"/>
<path fill="#1469B1" opacity="1.000000" stroke="none" 
	d="
M450.383209,223.396179 
	C449.650970,227.195007 447.435211,228.326324 444.171631,228.227280 
	C440.531311,228.116837 436.885010,228.201950 432.949677,228.201950 
	C432.641754,225.042297 431.920044,221.735519 432.177856,218.506943 
	C432.301819,216.954575 434.092041,214.579590 435.456268,214.322891 
	C437.176239,213.999191 439.913391,214.922699 440.980255,216.277695 
	C442.513855,218.225525 442.936890,221.047806 444.036804,224.050629 
	C449.137299,222.604797 446.146729,218.790726 446.138672,215.969482 
	C450.112762,214.888062 450.490967,215.503128 450.383209,223.396179 
z"/>
<path fill="#1067B0" opacity="1.000000" stroke="none" 
	d="
M446.090698,529.993347 
	C447.539978,529.570190 448.596558,529.252380 449.995209,528.831604 
	C450.939362,536.901611 442.672241,533.539368 440.625610,537.587402 
	C442.784241,540.664246 450.779846,537.693665 449.959534,545.838074 
	C442.335632,542.863220 435.222626,540.131531 428.145660,537.309631 
	C423.963562,535.642029 423.147888,532.415955 424.560883,526.897705 
	C425.908264,528.581848 426.993103,529.393372 427.316650,530.440186 
	C428.479523,534.202820 430.907135,535.456909 434.494232,534.272583 
	C438.275940,533.023926 441.967224,531.501465 446.090698,529.993347 
z"/>
<path fill="#0962AE" opacity="1.000000" stroke="none" 
	d="
M448.960999,351.990143 
	C452.105042,351.990021 454.754944,351.990021 457.358215,351.990021 
	C458.158844,355.735931 458.158844,355.735931 449.184845,356.477081 
	C449.506531,357.437042 449.868713,358.322968 450.100403,359.241821 
	C451.328796,364.113403 449.543793,366.737305 444.622131,366.960571 
	C440.812531,367.133423 436.988800,366.995117 433.089661,366.995117 
	C431.960632,364.331207 432.117096,362.706848 435.458008,362.808167 
	C437.952118,362.883850 440.487000,363.075623 442.932648,362.722839 
	C444.325378,362.521973 445.575378,361.331757 446.889648,360.587097 
	C445.922546,359.341644 445.162537,357.338745 443.945801,357.006042 
	C441.289062,356.279510 438.358337,356.616760 435.624115,356.084778 
	C434.307922,355.828705 433.183380,354.587585 431.972046,353.792511 
	C432.212433,353.191772 432.452789,352.591003 432.693176,351.990265 
	C437.951080,351.990265 443.208954,351.990265 448.960999,351.990143 
z"/>
<path fill="#1067B0" opacity="1.000000" stroke="none" 
	d="
M444.858704,470.908752 
	C446.627869,470.269073 448.020050,469.737091 450.052673,468.960358 
	C450.834991,476.994995 443.148193,474.418152 440.511871,477.670990 
	C442.486694,481.251160 450.843994,478.140503 449.997803,486.278992 
	C442.351807,483.332245 435.048248,480.711853 427.914948,477.689514 
	C424.129608,476.085663 423.626099,474.256439 424.411591,467.634521 
	C425.813568,469.219879 426.985382,469.983795 427.313507,471.015930 
	C428.548981,474.901886 431.233826,475.757874 434.688873,474.689636 
	C438.013885,473.661652 441.222198,472.256165 444.858704,470.908752 
z"/>
<path fill="#1067B0" opacity="1.000000" stroke="none" 
	d="
M276.239868,22.179504 
	C271.534576,25.864605 266.573792,26.052250 261.180359,24.997463 
	C261.180359,17.626558 261.180359,10.400948 261.180359,3.024349 
	C267.224304,2.529862 273.676605,0.922862 277.526672,7.039468 
	C280.535583,11.819759 280.070709,17.166965 276.239868,22.179504 
M264.164093,15.475451 
	C264.164093,17.602566 264.164093,19.729681 264.164093,23.587891 
	C268.095795,21.997816 272.326416,21.587708 273.729034,19.380472 
	C275.371765,16.795349 275.706238,12.113583 274.430206,9.345137 
	C273.435120,7.186105 269.109924,6.561959 266.264557,5.255738 
	C265.564301,7.181273 264.734558,9.072721 264.214996,11.045843 
	C263.928802,12.132632 264.163910,13.356692 264.164093,15.475451 
z"/>
<path fill="#1369B1" opacity="1.000000" stroke="none" 
	d="
M449.174011,77.036621 
	C442.229095,81.868111 435.298004,80.476494 432.764587,74.056847 
	C431.305450,70.359474 431.229523,66.128868 434.603638,64.122917 
	C437.515198,62.391949 442.032227,61.495148 445.108795,62.489784 
	C447.637421,63.307281 449.670837,67.222740 450.804932,70.192383 
	C451.471558,71.937927 449.953064,74.517937 449.174011,77.036621 
M436.989777,67.492088 
	C437.273834,69.824638 436.803101,73.508774 438.012543,74.184196 
	C440.002930,75.295715 443.273834,75.002617 445.605988,74.176064 
	C446.538025,73.845726 447.311005,69.341988 446.593384,68.797310 
	C444.632721,67.309212 441.859375,66.849014 439.360718,66.150612 
	C438.890747,66.019257 438.202576,66.668777 436.989777,67.492088 
z"/>
<path fill="#1469B1" opacity="1.000000" stroke="none" 
	d="
M439.435669,336.147491 
	C435.319672,339.088593 435.689362,342.783081 436.198273,347.842682 
	C435.001282,347.117096 433.162415,346.663910 432.718719,345.618591 
	C430.825348,341.158081 432.514862,335.059692 435.968231,332.488434 
	C439.967072,329.510925 448.325867,329.714783 452.433502,332.889984 
	C455.889526,335.561401 457.825684,341.957092 456.042847,345.950073 
	C455.635101,346.863159 453.888306,347.178375 452.244629,348.036743 
	C453.051056,336.525452 449.267212,333.229156 439.435669,336.147491 
z"/>
<path fill="#1067B0" opacity="1.000000" stroke="none" 
	d="
M446.594299,372.052795 
	C450.475006,374.643951 451.353455,378.035950 449.970093,381.854736 
	C448.526428,385.840149 445.180908,386.513947 440.980469,385.940674 
	C440.980469,382.507568 440.980469,379.068848 440.980469,375.140015 
	C433.830322,376.115845 436.030029,381.072388 436.244751,386.189331 
	C434.494019,384.961365 432.731384,384.279022 432.748352,383.644257 
	C432.837677,380.301941 432.328827,376.268005 433.991272,373.793213 
	C436.871429,369.505524 441.766235,370.271210 446.594299,372.052795 
z"/>
<path fill="#1067B0" opacity="1.000000" stroke="none" 
	d="
M447.943329,164.892609 
	C450.814758,168.078354 451.730865,171.714462 449.401459,174.712051 
	C447.771790,176.809158 444.527649,177.651718 440.951202,179.640274 
	C440.951202,174.384262 440.951202,170.938385 440.951202,167.439072 
	C435.546997,168.200012 435.198761,168.903549 435.250092,177.566254 
	C434.299957,176.725433 432.841156,176.059631 432.481842,175.015503 
	C430.059143,167.975021 434.139893,162.472519 441.526703,162.885284 
	C443.587311,163.000443 445.596100,164.043350 447.943329,164.892609 
z"/>
<path fill="#1067B0" opacity="1.000000" stroke="none" 
	d="
M431.987823,262.910156 
	C433.375763,255.230637 441.284760,251.682724 446.775360,256.467560 
	C448.929230,258.344543 449.875183,262.371368 450.091736,265.507477 
	C450.342133,269.133942 447.274078,270.872467 443.882935,271.384979 
	C439.713013,272.015137 435.884277,271.313995 433.418945,267.477722 
	C432.647949,266.278076 432.450287,264.709961 431.987823,262.910156 
M437.534882,266.149567 
	C439.621521,266.411560 441.832672,267.234070 443.765656,266.804565 
	C446.682983,266.156342 448.227844,263.372925 445.934082,261.267456 
	C444.270660,259.740601 440.771240,259.191315 438.414764,259.702087 
	C435.496826,260.334534 435.063110,263.031067 437.534882,266.149567 
z"/>
<path fill="#1167B0" opacity="1.000000" stroke="none" 
	d="
M434.819458,14.722450 
	C435.951538,11.540998 436.791229,8.648087 438.064026,5.960274 
	C438.656708,4.708747 439.949249,3.415699 441.203491,3.015399 
	C441.787750,2.828944 443.461761,4.555892 443.912323,5.702247 
	C446.336121,11.868791 448.530701,18.125441 451.090240,25.133665 
	C449.504761,24.909143 447.495758,24.951532 447.408966,24.563759 
	C445.889435,17.773537 440.685211,20.540709 437.187561,20.105026 
	C435.525482,22.188824 434.142761,23.922350 432.760071,25.655878 
	C432.257568,25.323656 431.755066,24.991434 431.252594,24.659212 
	C432.403168,21.471127 433.553772,18.283041 434.819458,14.722450 
M438.259186,14.147066 
	C437.229431,21.177906 441.851135,16.340401 444.819702,17.854086 
	C443.313568,13.884987 442.256378,11.099066 440.817963,7.308461 
	C439.814331,10.119939 439.222656,11.777417 438.259186,14.147066 
z"/>
<path fill="#1167B0" opacity="1.000000" stroke="none" 
	d="
M433.683838,131.061554 
	C439.253876,130.991943 444.390533,130.991943 449.520050,130.991943 
	C449.880859,134.403931 450.677032,137.644501 450.374542,140.779053 
	C450.209259,142.491699 448.372040,145.193787 446.963257,145.419724 
	C442.753784,146.094803 438.381866,145.843231 434.078461,145.740234 
	C433.523621,145.726944 432.420258,144.228424 432.582581,143.816818 
	C432.904022,143.001617 433.890503,141.968750 434.675751,141.902740 
	C437.479431,141.667114 440.335449,141.999863 443.127197,141.701431 
	C444.402771,141.565079 445.574677,140.458679 446.793610,139.792236 
	C445.927917,138.514725 445.288208,136.439362 444.151794,136.117432 
	C441.350769,135.323944 438.327545,135.175781 435.382629,135.066681 
	C432.181091,134.948090 431.614746,133.715225 433.683838,131.061554 
z"/>
<path fill="#0D65AF" opacity="1.000000" stroke="none" 
	d="
M438.139832,210.018646 
	C436.195343,210.018677 434.708374,210.018677 433.160095,210.018677 
	C431.620789,206.907425 432.523926,205.646820 435.823883,205.792023 
	C438.139160,205.893921 440.500458,206.060333 442.768677,205.717758 
	C444.192535,205.502701 445.482086,204.398758 446.831909,203.693634 
	C445.772522,202.366211 444.934601,200.251511 443.606873,199.878006 
	C440.977936,199.138474 438.028137,199.613159 435.313293,199.072296 
	C434.074768,198.825546 433.079224,197.359344 431.973450,196.446259 
	C432.277069,196.040588 432.580688,195.634903 432.884308,195.229233 
	C438.455902,195.229233 444.027527,195.229233 449.597076,195.229233 
	C449.914246,198.433334 450.426483,201.607666 450.487335,204.790634 
	C450.547241,207.922150 448.625397,209.667236 445.552063,209.903503 
	C443.244537,210.080872 440.916382,209.990036 438.139832,210.018646 
z"/>
<path fill="#1B6EB4" opacity="1.000000" stroke="none" 
	d="
M432.364075,50.202396 
	C432.837250,48.000561 433.310150,46.235714 433.783020,44.470860 
	C435.335266,45.507610 436.915710,46.505615 438.424347,47.602367 
	C438.945068,47.980930 439.195465,48.746052 439.727173,49.092175 
	C441.674866,50.360168 443.688995,51.526119 445.678101,52.730492 
	C446.243774,50.534546 446.809448,48.338596 447.584747,45.328976 
	C447.924377,45.453262 449.888885,45.596432 450.193481,46.382683 
	C451.552307,49.889957 452.030640,53.653038 448.799805,56.481827 
	C446.072205,58.869980 443.210785,57.890015 440.673187,55.836239 
	C439.431244,54.831055 438.322510,53.661297 437.139069,52.552544 
	C436.741028,52.998627 436.464020,53.192543 436.349030,53.456909 
	C435.613007,55.149441 434.912598,56.857449 434.200500,58.560368 
	C433.588165,56.750877 432.901764,54.961643 432.398682,53.122257 
	C432.187286,52.349262 432.363678,51.470219 432.364075,50.202396 
z"/>
<path fill="#166BB2" opacity="1.000000" stroke="none" 
	d="
M450.543579,97.689362 
	C450.818207,99.391884 451.373688,100.891502 450.935272,101.996910 
	C450.084503,104.141953 449.100433,107.075600 447.379120,107.800270 
	C445.612244,108.544144 442.771332,107.333786 440.644836,106.413841 
	C439.258759,105.814217 438.308868,104.206413 436.645752,102.527565 
	C436.355255,105.014771 436.139740,106.860001 435.925690,108.692558 
	C431.994812,108.694328 431.338196,105.804558 433.026886,94.404541 
	C434.889923,95.644165 436.366760,96.535706 437.731293,97.574692 
	C438.374634,98.064522 438.692841,98.993828 439.348236,99.452896 
	C441.387909,100.881508 443.518402,102.180481 445.613678,103.529724 
	C446.200806,101.205147 446.787964,98.880569 447.531738,95.935913 
	C448.161285,96.239761 449.268311,96.774048 450.543579,97.689362 
z"/>
<path fill="#1F71B5" opacity="1.000000" stroke="none" 
	d="
M301.939941,4.841416 
	C308.510956,1.194361 313.458130,1.607250 313.920013,5.117780 
	C310.628052,5.879035 307.071259,6.053538 304.285248,7.608737 
	C302.807953,8.433381 301.800629,11.803219 302.133301,13.760193 
	C302.609680,16.562227 303.863007,20.048786 305.981354,21.520842 
	C308.018982,22.936787 311.579132,22.161730 316.122375,22.456594 
	C314.018341,23.930193 312.962311,25.278816 312.114655,25.158566 
	C308.350433,24.624567 303.812653,24.733065 301.114166,22.618774 
	C297.013062,19.405514 297.411652,14.045021 299.056030,9.254142 
	C299.572876,7.748327 300.770325,6.476108 301.939941,4.841416 
z"/>
<path fill="#1F71B5" opacity="1.000000" stroke="none" 
	d="
M415.801849,11.164825 
	C416.736237,11.625123 417.339813,11.894858 417.942932,12.165625 
	C423.269012,14.556726 424.922302,17.217972 423.463379,21.051035 
	C422.153595,24.492359 417.092194,26.758690 412.915710,25.502602 
	C411.960938,25.215446 411.319794,23.885517 409.638824,22.066439 
	C412.947144,22.367590 414.796783,22.950882 416.405518,22.555065 
	C417.766174,22.220280 419.571136,20.914373 419.836273,19.736004 
	C420.071075,18.692606 418.708038,16.912569 417.595215,16.034803 
	C416.070038,14.831762 413.479462,14.605969 412.504913,13.172910 
	C411.292542,11.390162 410.089905,7.825321 410.969788,6.770208 
	C412.723083,4.667668 415.794434,3.445094 418.541199,2.494144 
	C419.698792,2.093379 421.413239,3.301015 422.246948,4.714079 
	C419.591400,5.516771 416.935883,6.319462 414.280365,7.122153 
	C414.677185,8.406349 415.074005,9.690546 415.801849,11.164825 
z"/>
<path fill="#0962AE" opacity="1.000000" stroke="none" 
	d="
M394.947021,21.910519 
	C395.866455,19.705383 396.765656,17.722454 396.915588,15.684408 
	C397.182861,12.051033 396.917358,8.380847 397.076874,4.734901 
	C397.104645,4.100225 398.126495,3.509043 398.689209,2.897774 
	C399.171234,3.428012 400.072388,3.959742 400.070496,4.488255 
	C400.051605,9.788355 400.482361,15.192073 399.582916,20.357010 
	C398.759521,25.085224 394.343506,25.982019 390.137390,25.675482 
	C385.898895,25.366587 382.841583,23.423937 382.832306,18.573128 
	C382.823761,14.090211 382.747833,9.604069 382.916138,5.127414 
	C382.944763,4.365895 384.053864,3.644998 384.663818,2.905327 
	C385.110535,3.631961 385.915680,4.345268 385.943298,5.087495 
	C386.078949,8.735316 385.975647,12.391179 386.017426,16.043505 
	C386.088013,22.218710 388.279297,23.753883 394.947021,21.910519 
z"/>
<path fill="#1A6DB3" opacity="1.000000" stroke="none" 
	d="
M432.081909,155.407074 
	C433.311859,150.751465 436.912567,151.811203 439.896362,151.327332 
	C442.472168,150.909607 446.125366,153.207397 447.263184,148.654114 
	C447.327637,148.396179 448.288605,148.039093 448.512054,148.193008 
	C451.392578,150.177444 454.214813,152.246475 457.051788,154.294098 
	C456.822113,154.718369 456.592407,155.142654 456.362701,155.566925 
	C454.612976,155.743851 452.863251,155.920792 451.331696,156.075653 
	C450.361389,157.521591 449.473999,158.843948 448.586670,160.166321 
	C447.647644,158.891159 446.708649,157.615982 445.446564,155.902054 
	C443.719910,155.902054 441.393463,155.780853 439.089935,155.957581 
	C438.070221,156.035812 436.950684,156.531921 436.139374,157.171692 
	C435.128235,157.969025 434.388580,159.110580 433.531677,160.103485 
	C433.031738,158.677658 432.531799,157.251846 432.081909,155.407074 
z"/>
<path fill="#1B6EB4" opacity="1.000000" stroke="none" 
	d="
M201.135437,19.928232 
	C198.080582,25.258333 193.771393,26.982599 189.633911,24.868681 
	C185.923157,22.972786 184.603958,17.011225 186.904099,12.532372 
	C188.902786,8.640512 193.488052,6.981375 197.461121,8.907333 
	C202.138336,11.174621 201.983978,15.290177 201.135437,19.928232 
M189.226730,16.557493 
	C190.343735,18.564217 191.245316,20.758629 192.721268,22.452595 
	C193.116058,22.905684 196.164154,22.157082 196.440918,21.395626 
	C197.285645,19.071507 197.852737,16.410812 197.544662,14.007105 
	C197.400009,12.878506 194.410843,10.926774 193.740402,11.283460 
	C191.967407,12.226703 190.756409,14.226343 189.226730,16.557493 
z"/>
<path fill="#1369B1" opacity="1.000000" stroke="none" 
	d="
M41.360603,11.180280 
	C40.007656,11.168299 39.043713,11.081457 38.079765,10.994616 
	C38.571987,10.289802 38.918026,9.185026 39.579487,8.943266 
	C45.010269,6.958353 50.931740,8.461364 50.092976,15.307843 
	C49.713627,18.404327 50.028641,21.585880 50.028641,24.551167 
	C47.510761,24.871914 45.252327,25.567825 43.105347,25.315485 
	C41.058681,25.074934 39.128242,23.845507 37.146706,23.050812 
	C38.063763,20.965330 38.486244,18.319199 40.036572,16.951593 
	C41.595936,15.576012 44.277405,15.472455 46.660870,14.753035 
	C46.733692,11.128246 44.446625,10.851850 41.360603,11.180280 
M40.158627,21.352184 
	C43.798489,23.849861 44.929974,23.295797 46.810432,16.633364 
	C43.870899,18.370455 42.011852,19.469044 40.158627,21.352184 
z"/>
<path fill="#1A6DB3" opacity="1.000000" stroke="none" 
	d="
M221.465088,13.068980 
	C218.104095,10.547646 215.859100,11.238307 215.060577,14.970151 
	C214.548431,17.363598 214.913803,19.934254 214.546387,22.374363 
	C214.397232,23.365007 213.346832,24.219948 212.706528,25.136642 
	C212.175629,24.292999 211.214386,23.463675 211.185745,22.603313 
	C211.033127,18.017366 211.113861,13.423657 211.113861,9.153235 
	C214.131561,8.785114 216.609177,8.014564 218.932419,8.341428 
	C220.942719,8.624267 224.184753,9.885444 224.430832,11.180111 
	C225.221954,15.342540 224.924713,19.720984 224.891342,24.014902 
	C224.888412,24.388916 223.662140,25.129240 223.148270,25.020180 
	C222.609573,24.905848 221.894806,23.991863 221.861893,23.394049 
	C221.679779,20.087898 221.682251,16.771574 221.465088,13.068980 
z"/>
<path fill="#0A63AE" opacity="1.000000" stroke="none" 
	d="
M450.041351,453.768677 
	C445.460541,456.432373 447.593933,451.775177 445.735901,450.184723 
	C444.200256,450.184723 441.995819,449.811096 440.007568,450.305969 
	C438.487823,450.684265 437.224854,452.139313 435.880829,453.159088 
	C435.223877,453.657623 434.536072,454.782745 434.051910,454.684967 
	C433.332153,454.539642 432.451660,453.666504 432.213043,452.919861 
	C431.046112,449.269043 433.063629,446.399933 437.036469,446.073517 
	C439.341522,445.884125 441.682281,446.124268 443.986053,445.926849 
	C444.942444,445.844910 446.335815,445.366272 446.684631,444.653839 
	C448.103577,441.756012 449.008606,441.802948 450.328552,444.719299 
	C450.643036,445.414093 452.199310,445.467468 453.058685,446.013672 
	C454.357208,446.839081 455.545380,447.838104 456.985352,448.916901 
	C454.285614,451.207214 449.693451,448.238983 450.041351,453.768677 
z"/>
<path fill="#1B6EB4" opacity="1.000000" stroke="none" 
	d="
M122.994736,8.802865 
	C123.559906,9.198394 123.877930,9.587559 124.091759,9.536901 
	C133.216339,7.375155 134.159348,8.064810 133.964447,17.858810 
	C133.915909,20.297506 132.870758,22.716373 132.283691,25.144356 
	C131.781494,22.783089 131.231171,20.430769 130.790253,18.058115 
	C130.322845,15.542951 132.101959,11.399014 127.982620,11.323689 
	C123.901642,11.249064 124.095329,15.336920 123.543259,18.477957 
	C123.149490,20.718317 125.632782,23.957823 121.589005,25.136400 
	C121.094482,22.919704 120.388039,20.724331 120.162315,18.480593 
	C119.913750,16.009689 119.878601,13.461883 120.226448,11.015244 
	C120.355370,10.108433 121.835213,9.393688 122.994736,8.802865 
z"/>
<path fill="#1369B1" opacity="1.000000" stroke="none" 
	d="
M442.319550,438.342163 
	C440.477539,441.597076 437.309601,442.315826 435.442444,440.440216 
	C433.504089,438.493042 432.883972,435.069855 432.181152,432.172394 
	C432.007446,431.456238 433.746399,430.276123 435.147125,428.700867 
	C435.771820,432.205475 436.167816,434.427002 436.686523,437.337128 
	C440.925751,434.653656 440.620239,426.372925 447.208405,430.095184 
	C449.074524,431.149536 449.744843,434.698853 450.431610,437.247314 
	C450.657684,438.086273 449.208435,439.376740 448.204498,440.969666 
	C447.043518,437.908234 446.304993,435.960815 445.566467,434.013397 
	C444.545502,435.340302 443.524536,436.667206 442.319550,438.342163 
z"/>
<path fill="#0962AE" opacity="1.000000" stroke="none" 
	d="
M441.081299,238.177872 
	C436.416840,238.497650 436.416840,238.497650 434.057281,243.311264 
	C433.373596,241.925766 431.922363,240.368988 432.184418,239.194489 
	C432.587494,237.388062 433.920715,235.567657 435.345490,234.299377 
	C436.117310,233.612305 437.895477,234.023880 439.220825,233.998093 
	C441.047577,233.962540 443.863220,234.734772 444.536499,233.851242 
	C447.950134,229.371658 450.830750,233.514130 453.796875,234.121307 
	C454.955017,234.358398 455.841064,235.924622 457.625214,237.621948 
	C454.533539,237.997009 452.781525,238.209564 451.489655,238.366272 
	C450.280121,240.015076 449.263824,241.400406 448.247559,242.785721 
	C447.540009,241.476593 446.832458,240.167480 445.756805,238.177338 
	C444.749786,238.177338 443.134308,238.177338 441.081299,238.177872 
z"/>
<path fill="#2977B8" opacity="1.000000" stroke="none" 
	d="
M445.982880,525.929321 
	C442.012512,525.928345 438.524353,526.068909 435.061737,525.833618 
	C434.120117,525.769592 433.255463,524.572571 432.355469,523.895569 
	C433.247345,523.034729 434.119568,521.451843 435.034210,521.427002 
	C442.479401,521.224304 449.932556,521.312927 457.903015,521.312927 
	C458.009674,522.771179 458.107941,524.114624 458.240692,525.929504 
	C454.008118,525.929504 450.241394,525.929504 445.982880,525.929321 
z"/>
<path fill="#2977B8" opacity="1.000000" stroke="none" 
	d="
M441.075348,314.068909 
	C446.862091,314.068848 452.161133,314.068848 457.591614,314.068848 
	C458.899200,317.054291 458.730713,318.802734 454.848389,318.724396 
	C448.554626,318.597351 442.252625,318.803406 435.963348,318.593262 
	C434.734406,318.552216 433.547363,317.256989 432.341003,316.540192 
	C433.598633,315.716675 434.760529,314.574921 436.140991,314.159576 
	C437.508514,313.748169 439.096405,314.069214 441.075348,314.068909 
z"/>
<path fill="#2977B8" opacity="1.000000" stroke="none" 
	d="
M433.721497,121.166260 
	C441.274506,121.092186 448.403412,121.092186 455.623352,121.092186 
	C456.911621,124.167953 456.615356,125.853874 452.749939,125.733948 
	C447.113708,125.559082 441.467957,125.655052 435.826630,125.692558 
	C432.241211,125.716400 431.179108,124.407127 433.721497,121.166260 
z"/>
<path fill="#1F71B5" opacity="1.000000" stroke="none" 
	d="
M435.527649,186.646194 
	C434.200165,185.778763 433.297516,184.913925 432.394867,184.049072 
	C433.319733,183.397263 434.223450,182.220383 435.173035,182.182129 
	C439.957336,181.989426 444.753662,182.093628 449.802643,182.093628 
	C449.978851,185.247253 450.135620,188.053452 450.375977,192.354843 
	C445.491089,189.884903 441.817474,184.529999 435.527649,186.646194 
z"/>
<path fill="#2575B7" opacity="1.000000" stroke="none" 
	d="
M449.988281,85.145706 
	C450.411621,87.096382 450.726654,88.664886 451.178802,90.916245 
	C445.312683,90.916245 440.032684,91.018089 434.764801,90.811409 
	C433.931427,90.778709 433.152679,89.353729 432.348694,88.572479 
	C433.195526,87.826500 434.000214,86.502251 434.896667,86.436920 
	C438.357025,86.184731 441.846710,86.334526 444.908203,86.334526 
	C445.692383,84.734352 446.293213,83.508301 446.894043,82.282257 
	C447.889374,83.109352 448.884674,83.936440 449.988281,85.145706 
z"/>
<path fill="#1D6FB4" opacity="1.000000" stroke="none" 
	d="
M71.021957,20.857979 
	C68.335472,25.873602 64.848854,26.857849 59.540485,23.899309 
	C62.577274,23.042465 65.091988,22.332928 68.238815,21.445038 
	C65.782417,16.970108 54.714920,17.097555 62.400982,9.472190 
	C64.351891,7.536689 67.808418,6.950021 70.628319,10.310366 
	C69.516975,10.737500 69.102013,10.927803 68.668976,11.057916 
	C67.067284,11.539167 65.459625,12.000545 63.854206,12.469391 
	C65.183617,13.639769 66.634972,14.700866 67.808762,16.010704 
	C69.026352,17.369423 69.975151,18.969017 71.021957,20.857979 
z"/>
<path fill="#1469B1" opacity="1.000000" stroke="none" 
	d="
M175.014465,25.602325 
	C169.995438,25.614796 169.966660,22.418337 169.952835,19.079300 
	C169.923325,11.949376 169.883759,11.949540 167.122665,10.199696 
	C168.750687,7.553650 170.331085,4.984990 172.608109,1.284101 
	C173.038010,4.476449 173.252380,6.068274 173.461853,7.623825 
	C175.106003,8.277864 176.673843,8.901544 178.241669,9.525223 
	C178.163498,9.895226 178.085342,10.265229 178.007187,10.635233 
	C176.525833,10.981700 175.044479,11.328167 173.637939,11.657135 
	C172.433243,21.244019 172.655746,21.840189 179.144669,23.826633 
	C177.339325,24.685701 176.376770,25.143726 175.014465,25.602325 
z"/>
<path fill="#1067B0" opacity="1.000000" stroke="none" 
	d="
M446.359253,466.720978 
	C444.135468,465.225739 442.061615,463.751678 439.758392,463.136658 
	C437.741150,462.597992 435.466278,463.024231 433.091705,463.024231 
	C432.078705,460.603485 431.744965,458.794983 435.252045,458.804230 
	C440.064026,458.816925 444.876038,458.807465 449.753052,458.807465 
	C449.917908,461.931915 450.064484,464.709534 450.249420,468.214783 
	C448.909698,467.831238 447.659576,467.473358 446.359253,466.720978 
z"/>
<path fill="#2977B8" opacity="1.000000" stroke="none" 
	d="
M436.348633,250.932770 
	C434.712738,250.205231 433.528107,249.477753 432.343506,248.750275 
	C433.455444,247.939499 434.530334,246.496841 435.685852,246.429108 
	C440.288483,246.159302 444.916260,246.317917 449.904175,246.317917 
	C449.904175,247.933167 449.904175,249.283905 449.904175,250.932846 
	C445.362000,250.932846 441.080933,250.932846 436.348633,250.932770 
z"/>
<path fill="#0862AD" opacity="1.000000" stroke="none" 
	d="
M441.042236,603.008179 
	C438.093689,603.008057 435.627960,603.008057 433.099091,603.008057 
	C431.969452,600.326843 432.133972,598.741028 435.446472,598.808838 
	C439.410187,598.890015 443.393341,598.628784 447.331970,598.953857 
	C448.500977,599.050415 449.548187,600.623108 450.651215,601.519409 
	C450.377258,602.015686 450.103271,602.511963 449.829315,603.008240 
	C447.061218,603.008240 444.293121,603.008240 441.042236,603.008179 
z"/>
<path fill="#0862AD" opacity="1.000000" stroke="none" 
	d="
M432.947968,421.442322 
	C438.701111,421.147308 444.140594,421.147308 449.840363,421.147308 
	C450.450378,423.681671 450.452393,425.339081 447.127350,425.208466 
	C443.156616,425.052490 439.172089,425.077179 435.199280,425.203369 
	C432.463715,425.290253 432.185547,423.855164 432.947968,421.442322 
z"/>
<path fill="#E72A45" opacity="1.000000" stroke="none" 
	d="
M353.208435,19.671345 
	C349.757538,18.280952 348.703857,15.714095 350.667084,13.314243 
	C351.618805,12.150821 354.587036,12.637015 356.642334,12.376365 
	C356.787689,14.319172 357.267151,16.326517 356.910583,18.172369 
	C356.771942,18.890194 354.747131,19.243683 353.208435,19.671345 
z"/>
<path fill="#0862AD" opacity="1.000000" stroke="none" 
	d="
M109.174026,11.456934 
	C109.171989,15.547912 109.270523,19.195219 109.084793,22.827993 
	C109.044678,23.612658 107.981140,24.344999 107.389008,25.101444 
	C106.925949,24.392567 106.084717,23.695408 106.062325,22.972874 
	C105.934181,18.838112 105.930130,14.694929 106.070023,10.560902 
	C106.093544,9.865843 107.025177,9.201511 107.537209,8.522980 
	C108.082397,9.351338 108.627586,10.179699 109.174026,11.456934 
z"/>
<path fill="#1D6FB4" opacity="1.000000" stroke="none" 
	d="
M235.041901,27.813801 
	C235.241776,26.289616 235.052536,25.018082 235.340103,23.865505 
	C235.572342,22.934668 236.379486,22.147276 236.931610,21.296253 
	C237.674042,22.008604 239.169052,22.956257 239.032288,23.393721 
	C238.335938,25.620871 237.217316,27.715986 236.246536,29.857323 
	C235.783951,29.277496 235.321350,28.697668 235.041901,27.813801 
z"/>
<path fill="#FCFDFE" opacity="1.000000" stroke="none" 
	d="
M38.758324,485.186462 
	C40.348240,485.319061 41.998074,485.222351 43.518768,485.619812 
	C58.152393,489.444122 72.764259,493.351715 88.006966,497.401428 
	C94.163475,482.262848 100.267296,467.253784 106.989388,450.724426 
	C108.858231,459.698822 110.439545,467.225555 111.990646,474.758514 
	C113.802559,483.558136 115.818993,492.325226 117.274086,501.184082 
	C117.875870,504.847931 119.778740,506.024109 122.933914,506.837646 
	C136.940002,510.448975 150.906326,514.214661 164.881516,517.945251 
	C165.788284,518.187256 166.648636,518.603333 168.312500,519.235535 
	C154.921997,526.091553 142.277374,532.648926 129.540192,539.021362 
	C126.774040,540.405334 125.744507,541.624390 126.541603,545.067444 
	C130.142471,560.621216 133.316666,576.273865 136.614700,591.897217 
	C136.869202,593.102783 136.892914,594.357117 137.158569,596.855103 
	C124.096161,582.201172 111.852493,568.465698 99.465775,554.569763 
	C85.445999,561.552307 71.673325,568.411743 56.678295,575.880005 
	C61.308670,564.589417 65.431770,554.537170 69.553421,544.484314 
	C70.183617,542.947205 70.569328,541.248840 71.472534,539.894775 
	C77.045990,531.539490 75.220123,525.149902 68.082825,518.130920 
	C57.778599,507.997467 48.723129,496.594238 38.971767,485.442688 
	C38.808712,485.152557 38.758324,485.186462 38.758324,485.186462 
z"/>
<path fill="#F8FAFC" opacity="1.000000" stroke="none" 
	d="
M111.013550,323.946533 
	C111.013550,327.069061 111.013550,329.699524 111.013550,332.585785 
	C105.820030,332.585785 101.050591,332.585785 95.679733,332.585785 
	C95.679733,319.582367 95.679733,306.529144 95.679733,292.853485 
	C93.311172,292.853485 91.534767,292.853455 89.758362,292.853516 
	C72.930511,292.853973 56.102001,292.776764 39.275391,292.921173 
	C35.965813,292.949554 34.608212,292.295593 33.586609,288.663086 
	C31.860884,282.526947 32.941124,277.809418 36.377617,272.496704 
	C53.725815,245.676697 70.737869,218.637909 87.680695,191.558792 
	C89.805809,188.162292 92.090309,186.779144 96.049026,187.063660 
	C100.822540,187.406723 105.639534,187.144867 110.885086,187.144867 
	C110.885086,217.607239 110.885086,247.679855 110.885086,278.392090 
	C119.695061,278.392090 128.072540,278.392090 136.607422,278.392090 
	C136.607422,283.452942 136.607422,287.869934 136.607422,292.718201 
	C128.116150,292.718201 119.860153,292.718201 111.013550,292.718201 
	C111.013550,303.244476 111.013550,313.349457 111.013550,323.946533 
M86.127098,217.679672 
	C73.412285,237.879639 60.697475,258.079590 47.896118,278.417053 
	C63.888584,278.417053 79.391151,278.417053 94.963745,278.417053 
	C94.963745,253.614349 94.963745,229.380188 94.963745,203.818863 
	C91.663345,209.013824 89.101036,213.046997 86.127098,217.679672 
z"/>
<path fill="#FBFCFD" opacity="1.000000" stroke="none" 
	d="
M182.453644,216.422485 
	C188.085678,207.553436 193.618790,199.047913 198.856445,190.364182 
	C200.363556,187.865433 202.027039,186.981766 204.855301,187.092361 
	C210.129181,187.298584 215.416885,187.151581 221.187027,187.151581 
	C221.187027,217.739349 221.187027,247.798813 221.187027,278.350525 
	C229.922623,278.350525 238.178360,278.350525 246.714172,278.350525 
	C246.714172,283.260010 246.714172,287.684082 246.714172,292.726379 
	C238.444412,292.726379 230.064133,292.726379 221.297440,292.726379 
	C221.297440,306.264862 221.297440,319.199951 221.297440,332.488464 
	C216.181351,332.488464 211.444794,332.488464 206.175262,332.488464 
	C206.175262,319.531464 206.175262,306.479553 206.175262,293.004089 
	C185.584305,293.004089 165.512695,293.004089 145.450836,293.004089 
	C142.897446,285.593353 141.888306,279.413849 146.820923,272.215210 
	C159.219193,254.121262 170.508453,235.267395 182.453644,216.422485 
M168.963333,261.474030 
	C165.379944,267.136261 161.796555,272.798523 158.216309,278.455811 
	C174.437592,278.455811 190.006638,278.455811 205.740967,278.455811 
	C205.740967,253.432007 205.740967,228.942276 205.740967,203.106689 
	C193.142044,223.065796 181.221741,241.949860 168.963333,261.474030 
z"/>
<path fill="#FAFCFD" opacity="1.000000" stroke="none" 
	d="
M284.834106,86.060486 
	C295.978851,91.366074 302.486572,100.042397 305.219727,111.488899 
	C308.666351,125.923531 308.535583,140.235672 301.919128,153.878815 
	C289.105286,180.300812 257.007111,182.139969 239.356842,171.364563 
	C232.251556,167.026825 227.658524,160.583130 224.992172,152.801376 
	C220.729401,140.360504 220.179947,127.655472 223.583603,114.988571 
	C230.800812,88.129097 257.678040,75.410423 284.834106,86.060486 
M244.131836,154.270462 
	C256.792297,169.602646 279.622192,166.364960 287.782043,147.879440 
	C292.776855,136.564056 292.402496,124.768288 288.719269,113.221939 
	C285.517517,103.184875 278.536407,97.002007 267.712585,95.972954 
	C256.221039,94.880424 247.191635,99.348434 242.212021,109.653656 
	C235.104065,124.363548 235.909103,139.241409 244.131836,154.270462 
z"/>
<path fill="#FBFCFD" opacity="1.000000" stroke="none" 
	d="
M148.993195,127.000000 
	C148.993195,109.887115 148.993195,93.274231 148.993195,76.410873 
	C154.026352,76.410873 158.605240,76.410873 163.428894,76.410873 
	C163.428894,89.981552 163.428894,103.408249 163.428894,116.834938 
	C163.873825,117.177589 164.318756,117.520241 164.763702,117.862885 
	C165.510513,116.626137 166.062637,115.203987 167.035416,114.182442 
	C173.831161,107.046127 186.167923,104.447685 195.235443,108.252495 
	C202.826080,111.437592 205.715622,117.925743 205.853806,125.462852 
	C206.158661,142.091827 205.948547,158.730240 205.948547,175.685349 
	C201.056503,175.685349 196.349335,175.685349 191.155823,175.685349 
	C191.155823,165.918411 191.167099,156.304306 191.151672,146.690231 
	C191.142044,140.695419 191.345764,134.685898 190.997498,128.709564 
	C190.538528,120.833801 185.014435,117.347305 177.386810,119.735634 
	C169.840591,122.098473 164.292786,130.389526 163.984772,140.655243 
	C163.685211,150.639450 163.872559,160.638306 163.847580,170.630722 
	C163.843536,172.253708 163.847015,173.876724 163.847015,175.749847 
	C158.804077,175.749847 154.214050,175.749847 148.993195,175.749847 
	C148.993195,159.671280 148.993195,143.585648 148.993195,127.000000 
z"/>
<path fill="#FAFCFD" opacity="1.000000" stroke="none" 
	d="
M68.513428,151.433960 
	C64.694252,137.910339 64.711380,124.745102 68.879631,111.741638 
	C73.898560,96.084343 84.607910,86.725632 100.878143,83.843178 
	C111.207039,82.013290 121.336288,83.046021 131.718567,85.613930 
	C131.182037,90.144676 130.679718,94.386566 130.140381,98.941086 
	C125.049477,98.126793 120.228882,97.198814 115.367401,96.606514 
	C98.329720,94.530716 86.855934,102.574654 83.324516,119.219551 
	C81.540283,127.629318 81.769165,136.095093 84.070190,144.418365 
	C87.121208,155.454514 94.775925,162.034042 106.118324,163.043671 
	C110.226974,163.409393 114.456673,163.346298 118.540291,162.799896 
	C122.601440,162.256516 126.548485,160.860336 130.795135,159.774277 
	C131.358795,163.931366 131.914322,168.028397 132.532181,172.585022 
	C121.978386,177.090515 110.994476,178.043839 99.886841,176.641571 
	C84.615410,174.713608 73.604942,166.957199 68.513428,151.433960 
z"/>
<path fill="#F3F7FB" opacity="1.000000" stroke="none" 
	d="
M34.132504,147.999969 
	C34.132519,126.406685 34.132519,105.313400 34.132519,83.999710 
	C39.352654,83.999710 44.125263,83.999710 49.245251,83.999710 
	C49.245251,114.600296 49.245251,145.081314 49.245251,175.792664 
	C44.328712,175.792664 39.568142,175.792664 34.132488,175.792664 
	C34.132488,166.663406 34.132488,157.581696 34.132504,147.999969 
z"/>
<path fill="#FCFDFE" opacity="1.000000" stroke="none" 
	d="
M38.834602,485.136719 
	C38.903034,485.052002 38.945576,484.983124 38.873222,485.050354 
	C38.758324,485.186462 38.808712,485.152557 38.834602,485.136719 
z"/>
<path fill="#FEFBFB" opacity="1.000000" stroke="none" 
	d="
M367.112000,245.660645 
	C364.811310,270.778534 358.303101,294.154663 346.289856,316.203125 
	C308.911987,384.804352 272.032776,453.677368 234.954697,522.441956 
	C234.427063,523.420532 233.828644,524.360901 232.958939,525.834839 
	C227.561508,518.337891 227.188919,510.582764 229.605164,502.775146 
	C231.309723,497.267303 233.763855,491.908203 236.503738,486.816528 
	C273.523895,418.019867 310.598480,349.252258 347.791718,280.549011 
	C357.589691,262.450195 363.029205,243.075470 366.349518,222.734558 
	C366.834015,229.434769 366.945465,236.267059 367.056885,243.099335 
	C367.047699,243.833740 367.038544,244.568146 367.112000,245.660645 
z"/>
<path fill="#F7B5BE" opacity="1.000000" stroke="none" 
	d="
M367.403137,242.837570 
	C366.945465,236.267059 366.834015,229.434769 366.405762,222.332733 
	C366.565155,217.147690 367.041351,212.232437 367.674866,207.046143 
	C367.804596,218.708694 367.776978,230.642242 367.403137,242.837570 
z"/>
<path fill="#F8FAFC" opacity="1.000000" stroke="none" 
	d="
M436.575317,503.804047 
	C440.405853,499.885376 445.697235,498.616974 449.205109,501.210876 
	C450.925568,502.483124 452.530090,505.145966 452.510712,507.163361 
	C452.493927,508.911346 450.474213,511.376190 448.710541,512.241150 
	C441.911316,515.575623 435.664215,511.300110 436.575317,503.804047 
z"/>
<path fill="#F3F7FB" opacity="1.000000" stroke="none" 
	d="
M154.127502,11.867285 
	C153.891281,14.040832 153.621231,16.100910 152.624771,17.711565 
	C152.370468,18.122641 149.404755,17.534388 148.449478,16.612713 
	C147.724228,15.912963 147.741684,12.980574 148.245850,12.737652 
	C149.904861,11.938301 151.935760,11.910823 154.127502,11.867285 
z"/>
<path fill="#EFF5FA" opacity="1.000000" stroke="none" 
	d="
M154.409058,30.556881 
	C153.228592,30.882627 152.309250,31.301573 151.628479,31.056862 
	C150.076309,30.498905 148.595337,29.682291 147.237152,28.749792 
	C147.116394,28.666876 148.017883,26.221359 148.591568,26.155619 
	C150.795486,25.903057 153.059265,26.173008 155.300720,26.248055 
	C155.126663,27.614948 154.952591,28.981840 154.409058,30.556881 
z"/>
<path fill="#F5F8FB" opacity="1.000000" stroke="none" 
	d="
M442.579956,630.034180 
	C446.311493,630.991272 447.522308,633.109802 446.621643,636.763550 
	C442.717224,636.657227 437.523987,638.813416 436.137390,633.434387 
	C435.083649,629.346313 439.499390,630.139648 442.579956,630.034180 
z"/>
<path fill="#EBF2F8" opacity="1.000000" stroke="none" 
	d="
M438.070801,589.784729 
	C437.153900,587.739258 436.603607,585.851196 436.053284,583.963257 
	C438.246826,583.813293 440.566772,583.161316 442.593964,583.671875 
	C444.222107,584.081909 445.495514,585.900513 446.926331,587.094116 
	C446.043610,588.107544 445.309113,589.742371 444.245209,589.996216 
	C442.417542,590.432129 440.384308,590.006226 438.070801,589.784729 
z"/>
<path fill="#EFF5FA" opacity="1.000000" stroke="none" 
	d="
M264.164062,14.997159 
	C264.163910,13.356692 263.928802,12.132632 264.214996,11.045843 
	C264.734558,9.072721 265.564301,7.181273 266.264557,5.255735 
	C269.109924,6.561959 273.435120,7.186105 274.430206,9.345137 
	C275.706238,12.113583 275.371765,16.795349 273.729034,19.380472 
	C272.326416,21.587708 268.095795,21.997816 264.164093,23.587891 
	C264.164093,19.729681 264.164093,17.602566 264.164062,14.997159 
z"/>
<path fill="#F5F8FB" opacity="1.000000" stroke="none" 
	d="
M437.302429,67.225021 
	C438.202576,66.668777 438.890747,66.019257 439.360718,66.150612 
	C441.859375,66.849014 444.632721,67.309212 446.593384,68.797310 
	C447.311005,69.341988 446.538025,73.845726 445.605988,74.176064 
	C443.273834,75.002617 440.002930,75.295715 438.012543,74.184196 
	C436.803101,73.508774 437.273834,69.824638 437.302429,67.225021 
z"/>
<path fill="#F5F8FB" opacity="1.000000" stroke="none" 
	d="
M437.211914,265.894012 
	C435.063110,263.031067 435.496826,260.334534 438.414764,259.702087 
	C440.771240,259.191315 444.270660,259.740601 445.934082,261.267456 
	C448.227844,263.372925 446.682983,266.156342 443.765656,266.804565 
	C441.832672,267.234070 439.621521,266.411560 437.211914,265.894012 
z"/>
<path fill="#DCE9F3" opacity="1.000000" stroke="none" 
	d="
M438.445068,13.790981 
	C439.222656,11.777417 439.814331,10.119939 440.817963,7.308461 
	C442.256378,11.099066 443.313568,13.884987 444.819702,17.854086 
	C441.851135,16.340401 437.229431,21.177906 438.445068,13.790981 
z"/>
<path fill="#F3F7FB" opacity="1.000000" stroke="none" 
	d="
M189.274231,16.181511 
	C190.756409,14.226343 191.967407,12.226703 193.740402,11.283460 
	C194.410843,10.926774 197.400009,12.878506 197.544662,14.007105 
	C197.852737,16.410812 197.285645,19.071507 196.440918,21.395626 
	C196.164154,22.157082 193.116058,22.905684 192.721268,22.452595 
	C191.245316,20.758629 190.343735,18.564217 189.274231,16.181511 
z"/>
<path fill="#EFF5FA" opacity="1.000000" stroke="none" 
	d="
M40.155716,20.959908 
	C42.011852,19.469044 43.870899,18.370455 46.810432,16.633364 
	C44.929974,23.295797 43.798489,23.849861 40.155716,20.959908 
z"/>
<path fill="#035FAC" opacity="1.000000" stroke="none" 
	d="
M86.332909,217.379929 
	C89.101036,213.046997 91.663345,209.013824 94.963745,203.818863 
	C94.963745,229.380188 94.963745,253.614349 94.963745,278.417053 
	C79.391151,278.417053 63.888584,278.417053 47.896118,278.417053 
	C60.697475,258.079590 73.412285,237.879639 86.332909,217.379929 
z"/>
<path fill="#025EAC" opacity="1.000000" stroke="none" 
	d="
M169.132385,261.153992 
	C181.221741,241.949860 193.142044,223.065796 205.740967,203.106689 
	C205.740967,228.942276 205.740967,253.432007 205.740967,278.455811 
	C190.006638,278.455811 174.437592,278.455811 158.216309,278.455811 
	C161.796555,272.798523 165.379944,267.136261 169.132385,261.153992 
z"/>
<path fill="#025EAC" opacity="1.000000" stroke="none" 
	d="
M243.931442,153.964478 
	C235.909103,139.241409 235.104065,124.363548 242.212021,109.653656 
	C247.191635,99.348434 256.221039,94.880424 267.712585,95.972954 
	C278.536407,97.002007 285.517517,103.184875 288.719269,113.221939 
	C292.402496,124.768288 292.776855,136.564056 287.782043,147.879440 
	C279.622192,166.364960 256.792297,169.602646 243.931442,153.964478 
z"/>
</svg>