<svg version="1.1" id="Layer_1" xmlns="http://www.w3.org/2000/svg" xmlns:xlink="http://www.w3.org/1999/xlink" x="0px" y="0px"
	 width="100%" viewBox="0 0 360 360" enable-background="new 0 0 360 360" xml:space="preserve">
<path fill="#FFFFFF" opacity="1.000000" stroke="none" 
	d="
M1.000000,128.000000 
	C1.000000,85.347969 1.000000,43.195930 1.000000,1.021949 
	C120.943726,1.021949 240.887451,1.021949 360.915588,1.021949 
	C360.915588,120.902023 360.915588,240.804138 360.915588,360.853119 
	C241.000137,360.853119 121.000092,360.853119 1.000000,360.853119 
	C1.000000,283.445892 1.000000,205.972946 1.000000,128.000000 
M257.690948,249.318481 
	C257.690948,249.318481 257.463837,249.162140 257.146332,248.673813 
	C256.377716,247.632584 255.609116,246.591370 254.690964,245.318466 
	C254.690964,245.318466 254.463821,245.162140 254.146332,244.673813 
	C253.377716,243.632584 252.609116,242.591370 251.690979,241.318451 
	C251.690979,241.318451 251.463821,241.162140 251.146332,240.673813 
	C250.377716,239.632584 249.609116,238.591370 248.690979,237.318451 
	C248.690979,237.318451 248.463821,237.162140 248.146332,236.673813 
	C247.377716,235.632584 246.609116,234.591370 245.690979,233.318451 
	C245.690979,233.318451 245.463821,233.162140 245.146332,232.673813 
	C244.377716,231.632584 243.609116,230.591370 242.690979,229.318451 
	C242.690979,229.318451 242.463821,229.162140 242.146332,228.673813 
	C241.377716,227.632584 240.609116,226.591370 239.690308,225.316437 
	C239.690308,225.316437 239.460403,225.160477 239.118912,224.625031 
	C237.693298,222.601120 236.267670,220.577209 234.692886,218.319077 
	C234.692886,218.319077 234.463821,218.162140 234.146332,217.673813 
	C233.377731,216.632584 232.609116,215.591354 231.690979,214.318451 
	C231.690979,214.318451 231.463821,214.162140 231.146332,213.673813 
	C230.377716,212.632584 229.609116,211.591370 228.690979,210.318451 
	C228.690979,210.318451 228.463821,210.162140 228.146332,209.673813 
	C227.377716,208.632584 226.609116,207.591370 225.690979,206.318451 
	C225.690979,206.318451 225.463821,206.162140 225.146332,205.673813 
	C224.377731,204.632584 223.609116,203.591354 222.690979,202.318451 
	C222.690979,202.318451 222.463821,202.162140 222.146332,201.673813 
	C221.377716,200.632584 220.609100,199.591370 219.690979,198.318451 
	C219.690979,198.318451 219.463821,198.162140 219.146332,197.673813 
	C218.377716,196.632599 217.609100,195.591370 216.690308,194.316437 
	C216.690308,194.316437 216.460403,194.160477 216.118912,193.625031 
	C214.693298,191.601120 213.267670,189.577209 211.692886,187.319077 
	C211.692886,187.319077 211.463821,187.162140 211.146332,186.673813 
	C210.377731,185.632584 209.609116,184.591370 208.690979,183.318451 
	C208.690979,183.318451 208.463821,183.162140 208.146332,182.673813 
	C207.377716,181.632599 206.609100,180.591370 205.690979,179.318451 
	C205.690979,179.318451 205.463821,179.162140 205.146332,178.673813 
	C204.377716,177.632584 203.609116,176.591370 202.690979,175.318451 
	C202.690979,175.318451 202.463821,175.162140 202.146332,174.673813 
	C201.377731,173.632584 200.609116,172.591354 199.690979,171.318451 
	C199.690979,171.318451 199.463821,171.162140 199.146332,170.673813 
	C198.377716,169.632599 197.609100,168.591370 196.690277,167.316315 
	C196.690277,167.316315 196.460220,167.160370 196.112640,166.612213 
	C194.111374,163.059006 192.110107,159.505783 190.015610,155.318344 
	C190.048096,154.893463 190.080582,154.468567 190.734879,153.736847 
	C195.626862,148.517029 200.272034,143.036331 205.459274,138.128601 
	C218.522781,125.769035 231.814697,113.650414 245.045502,101.468277 
	C257.053192,90.412292 268.906250,79.177284 281.187408,68.432617 
	C292.860535,58.219917 305.620209,49.697697 321.024475,45.853168 
	C323.149048,45.322922 324.906158,43.320126 327.182465,41.296894 
	C328.751923,35.823132 326.243774,31.301653 321.030914,31.078600 
	C314.050629,30.779926 307.045441,30.886822 300.055420,31.032949 
	C289.114685,31.261669 278.177185,31.948656 267.239258,31.928181 
	C254.323502,31.904001 241.408234,31.352161 228.493866,30.989058 
	C224.530182,30.877615 221.689606,32.414520 221.076569,36.482834 
	C220.464813,40.542603 221.295624,43.805904 226.147751,45.140869 
	C232.175888,46.799393 238.028885,49.094379 244.085236,51.576145 
	C244.270096,51.872265 244.536896,52.027733 245.252975,52.780502 
	C245.248428,55.624561 245.825211,58.618645 245.136780,61.286209 
	C242.431229,71.769783 235.373978,79.710472 228.146973,87.149864 
	C215.071823,100.609276 201.353470,113.442886 187.937180,126.572044 
	C170.472672,143.662766 153.112885,160.861786 135.501602,177.799576 
	C133.356583,179.862549 129.935196,180.598434 127.012985,181.022461 
	C127.045921,142.696594 127.078857,104.370712 127.734833,65.733177 
	C127.767670,64.822388 127.800507,63.911598 127.980484,62.357079 
	C128.024261,61.919655 128.068039,61.482235 128.759003,60.699699 
	C130.573624,53.257195 134.662323,47.993050 142.407898,45.974125 
	C146.665741,44.864296 150.834259,43.411793 155.692169,41.779430 
	C156.072556,40.186592 156.452957,38.593754 156.976135,36.339180 
	C156.928543,35.892952 156.880936,35.446724 156.966492,34.231697 
	C154.645569,33.154472 152.322006,31.144197 150.004135,31.150728 
	C134.409210,31.194666 118.815491,31.666620 103.221382,32.000072 
	C101.393173,32.039165 99.562691,32.034481 97.737206,32.127422 
	C92.636665,32.387108 87.527016,33.056568 82.440994,32.902534 
	C67.079590,32.437313 51.731606,31.510742 36.369396,31.101688 
	C32.325363,30.994005 29.648935,33.252785 29.961432,37.977074 
	C30.274176,42.705109 32.927025,45.784012 38.733620,46.959690 
	C47.164196,48.666656 55.582836,50.311893 63.187405,55.700451 
	C64.420151,56.814487 65.652893,57.928524 67.178879,59.696140 
	C72.596672,66.960144 73.975639,75.384995 73.980927,84.122185 
	C74.017242,144.064331 74.083008,204.006775 73.910637,263.948456 
	C73.884743,272.954346 73.359306,282.077545 71.821228,290.930420 
	C69.891014,302.040375 64.636826,311.146484 52.393223,314.052246 
	C49.742313,314.681396 46.527576,315.189850 44.814884,316.957581 
	C42.575161,319.269318 41.570793,322.777954 40.034981,325.771667 
	C42.368988,326.847778 44.703739,328.848114 47.036869,328.846222 
	C59.786125,328.835907 72.533295,328.181122 85.284409,328.039886 
	C100.434608,327.872070 115.589409,327.877472 130.739670,328.042419 
	C141.326462,328.157623 151.909515,328.650146 162.492981,329.010925 
	C165.327438,329.107513 167.635742,328.772919 166.978775,324.207581 
	C166.930298,323.138550 166.881821,322.069519 166.969101,320.266357 
	C164.767792,318.841980 162.724518,317.023987 160.336319,316.065033 
	C152.304398,312.840088 144.149643,309.921021 135.828033,306.316406 
	C134.923492,305.530090 134.018936,304.743805 132.821930,303.304901 
	C130.917587,299.520782 129.013245,295.736694 127.013428,291.025543 
	C127.046165,266.032013 127.078903,241.038498 127.741173,215.728607 
	C132.672897,206.055756 140.292847,198.727478 148.719711,192.211945 
	C149.828140,191.354904 152.181015,192.107407 154.085220,192.576111 
	C154.270035,192.872253 154.536835,193.027725 155.167953,193.682480 
	C156.831329,195.937332 158.494705,198.192184 160.307312,200.680984 
	C160.307312,200.680984 160.536179,200.837860 160.853668,201.326187 
	C161.622284,202.367416 162.390884,203.408630 163.309021,204.681549 
	C163.309021,204.681549 163.536179,204.837860 163.853668,205.326187 
	C164.622269,206.367416 165.390884,207.408646 166.309692,208.683563 
	C166.309692,208.683563 166.539597,208.839523 166.881088,209.374969 
	C168.306717,211.398880 169.732330,213.422775 171.307114,215.680923 
	C171.307114,215.680923 171.536179,215.837860 171.853668,216.326187 
	C172.622284,217.367401 173.390900,218.408630 174.309692,219.683563 
	C174.309692,219.683563 174.539597,219.839523 174.881088,220.374969 
	C176.306702,222.398880 177.732330,224.422791 179.307114,226.680923 
	C179.307114,226.680923 179.536179,226.837860 179.853668,227.326187 
	C180.622269,228.367416 181.390884,229.408646 182.309692,230.683563 
	C182.309692,230.683563 182.539597,230.839523 182.881088,231.374969 
	C184.306702,233.398880 185.732330,235.422775 187.307114,237.680923 
	C187.307114,237.680923 187.536179,237.837860 187.853668,238.326187 
	C188.622284,239.367401 189.390900,240.408630 190.309692,241.683563 
	C190.309692,241.683563 190.539597,241.839523 190.881088,242.374969 
	C192.306717,244.398880 193.732330,246.422775 195.307114,248.680923 
	C195.307114,248.680923 195.536179,248.837860 195.853668,249.326187 
	C196.622269,250.367416 197.390884,251.408646 198.309692,252.683563 
	C198.309692,252.683563 198.539597,252.839523 198.881104,253.374969 
	C200.306717,255.398880 201.732346,257.422791 203.307114,259.680878 
	C203.307114,259.680878 203.536118,259.837830 203.853622,260.326141 
	C204.622253,261.367371 205.390869,262.408569 206.308960,263.681488 
	C206.308960,263.681488 206.536118,263.837830 206.853607,264.326141 
	C207.622238,265.367371 208.390854,266.408600 209.309677,267.683563 
	C209.309677,267.683563 209.539597,267.839478 209.881088,268.374969 
	C211.306702,270.398895 212.732330,272.422791 214.307114,274.680878 
	C214.307114,274.680878 214.536118,274.837830 214.853622,275.326141 
	C215.622238,276.367371 216.390869,277.408569 217.309677,278.683563 
	C217.309677,278.683563 217.539597,278.839478 217.881104,279.374969 
	C219.306717,281.398865 220.732346,283.422791 222.307114,285.680878 
	C222.307114,285.680878 222.536118,285.837830 222.853622,286.326141 
	C223.622238,287.367371 224.390854,288.408569 225.309677,289.683563 
	C225.309677,289.683563 225.539597,289.839478 225.881104,290.374969 
	C227.306717,292.398865 228.732346,294.422791 230.307114,296.680878 
	C230.307114,296.680878 230.536118,296.837830 230.853622,297.326141 
	C231.622253,298.367371 232.390869,299.408569 233.309677,300.683563 
	C233.309677,300.683563 233.539597,300.839478 233.881104,301.374969 
	C235.306717,303.398865 236.732346,305.422791 238.307114,307.680878 
	C238.307114,307.680878 238.536118,307.837830 238.853607,308.326141 
	C239.622238,309.367371 240.390854,310.408600 241.309647,311.683380 
	C241.309647,311.683380 241.539398,311.839417 241.882111,312.377502 
	C243.568054,314.615997 245.253983,316.854523 246.987656,319.012512 
	C246.987656,319.012512 246.907104,319.060181 247.180313,319.695953 
	C250.828995,322.788361 254.136169,327.852783 258.198547,328.556305 
	C266.272552,329.954498 274.763733,328.850311 283.080048,328.963654 
	C296.496674,329.146454 309.919861,329.281586 323.321625,329.865143 
	C327.377502,330.041748 330.427429,328.743561 330.978485,324.256683 
	C330.930115,323.504608 330.881744,322.752563 330.969543,321.277161 
	C330.040070,320.195221 329.321289,318.710297 328.147095,318.096375 
	C320.165680,313.923218 312.088226,309.933685 303.787598,305.272034 
	C298.563171,300.167175 293.338745,295.062317 287.849121,289.338562 
	C286.586121,287.861359 285.323090,286.384186 284.012451,284.987457 
	C284.012451,284.987457 284.092926,284.939819 283.846924,284.338135 
	C282.844543,283.074768 281.842163,281.811371 280.689850,280.318024 
	C280.689850,280.318024 280.463867,280.162170 280.146362,279.673859 
	C279.377747,278.632629 278.609100,277.591400 277.690979,276.318481 
	C277.690979,276.318481 277.463867,276.162170 277.146362,275.673859 
	C276.377747,274.632629 275.609100,273.591400 274.690979,272.318481 
	C274.690979,272.318481 274.463867,272.162170 274.146362,271.673859 
	C273.377747,270.632629 272.609131,269.591400 271.690979,268.318481 
	C271.690979,268.318481 271.463867,268.162170 271.146362,267.673859 
	C270.377747,266.632629 269.609100,265.591400 268.690979,264.318481 
	C268.690979,264.318481 268.463867,264.162170 268.146362,263.673859 
	C267.377747,262.632629 266.609100,261.591400 265.690308,260.316467 
	C265.690308,260.316467 265.460388,260.160522 265.118927,259.625031 
	C263.693298,257.601135 262.267700,255.577225 260.692871,253.319122 
	C260.692871,253.319122 260.463837,253.162140 260.146332,252.673813 
	C259.377716,251.632584 258.609100,250.591370 257.690948,249.318481 
z"/>
<path fill="#472580" opacity="1.000000" stroke="none" 
	d="
M133.114395,303.957489 
	C134.018936,304.743805 134.923492,305.530090 135.927292,306.978577 
	C136.908981,308.888062 137.543869,310.474457 138.713501,311.328430 
	C147.071182,317.430817 157.064499,318.914032 166.833344,321.000488 
	C166.881821,322.069519 166.930298,323.138550 166.448257,324.603790 
	C140.129379,324.666656 114.341675,324.171356 88.552399,324.067535 
	C75.431267,324.014709 62.308144,324.735382 49.183353,324.896027 
	C47.816635,324.912750 46.432384,323.496887 45.056259,322.745728 
	C46.262520,321.825012 47.339092,320.435974 48.696247,320.060150 
	C57.091198,317.735382 65.231705,315.285339 70.400528,307.301422 
	C76.250992,298.264648 77.838547,288.068573 77.877296,277.825684 
	C78.120026,213.665070 78.026741,149.503052 77.965691,85.341591 
	C77.958153,77.417778 76.032417,69.837128 71.882019,63.042515 
	C70.836327,61.330620 68.583649,60.355995 66.885643,59.042557 
	C65.652893,57.928524 64.420151,56.814487 63.079830,55.025558 
	C61.700760,52.590725 60.789833,49.887939 59.093395,49.239174 
	C52.799454,46.832214 46.178452,45.292072 39.829281,43.011547 
	C37.681156,42.239975 34.408062,40.281406 34.366905,38.790276 
	C34.253315,34.674976 38.002708,34.869068 41.029888,35.020767 
	C46.149323,35.277309 51.260235,35.909271 56.378235,35.950745 
	C72.099899,36.078144 87.824577,36.130692 103.545547,35.967793 
	C121.309586,35.783726 139.070862,35.334442 156.833344,35.000496 
	C156.880936,35.446724 156.928543,35.892952 156.560028,36.747215 
	C155.762619,38.436832 155.381317,39.718418 154.646851,40.846283 
	C145.420380,39.861065 137.394867,42.133381 131.811935,49.140194 
	C129.356873,52.221386 125.950172,56.055679 128.111816,61.044811 
	C128.068039,61.482235 128.024261,61.919655 127.588989,62.736881 
	C127.168922,64.092735 127.140350,65.068787 127.111786,66.044838 
	C127.078857,104.370712 127.045921,142.696594 126.788452,181.695984 
	C127.669853,183.578094 129.279663,186.011734 129.800415,185.797562 
	C133.325745,184.347565 137.235168,182.974075 139.892776,180.408020 
	C160.117111,160.880371 180.082275,141.084290 200.128326,121.371971 
	C200.959244,120.554893 201.808807,119.756058 202.621140,118.920952 
	C215.455215,105.726875 228.692581,92.890961 240.910645,79.148895 
	C245.677689,73.787247 250.177200,67.205864 249.922028,59.178486 
	C249.819962,55.967018 249.550095,52.298923 244.885651,52.042553 
	C244.536896,52.027733 244.270096,51.872265 244.028564,50.959885 
	C242.522552,48.572407 241.416641,46.078442 239.547668,45.190418 
	C236.316772,43.655270 232.637085,43.010345 229.100067,42.188038 
	C225.022629,41.240086 224.116791,38.993538 225.847321,35.000004 
	C227.731445,35.000004 229.543839,34.929951 231.349442,35.011097 
	C245.739182,35.657799 260.127960,36.862194 274.516357,36.853466 
	C289.404694,36.844437 304.289185,35.577778 319.181854,35.043182 
	C325.246277,34.825489 325.857483,35.662926 325.558228,42.000000 
	C322.332550,42.310646 319.270477,41.984520 316.818634,43.055481 
	C310.359009,45.877033 303.648956,48.584934 297.973755,52.645195 
	C286.811890,60.630787 275.930878,69.097305 265.585999,78.113297 
	C253.697632,88.474487 242.531662,99.663231 231.020035,110.458519 
	C225.933624,115.228386 220.763260,119.908607 215.640686,124.640030 
	C207.837952,131.846970 199.867401,138.887772 192.383011,146.411819 
	C190.734726,148.068817 190.823959,151.454208 190.113068,154.043686 
	C190.080582,154.468567 190.048096,154.893463 189.778824,155.848907 
	C189.612305,162.037491 192.581451,166.664429 196.460220,167.160370 
	C196.460220,167.160370 196.690277,167.316315 196.544281,167.782623 
	C196.636963,170.044113 196.323380,172.420425 199.463821,171.162140 
	C199.463821,171.162140 199.690979,171.318451 199.544647,171.783691 
	C199.636963,174.044113 199.323380,176.420425 202.463821,175.162140 
	C202.463821,175.162140 202.690979,175.318451 202.544647,175.783691 
	C202.636963,178.044113 202.323380,180.420425 205.463821,179.162140 
	C205.463821,179.162140 205.690979,179.318451 205.544647,179.783691 
	C205.636963,182.044113 205.323380,184.420425 208.463821,183.162140 
	C208.463821,183.162140 208.690979,183.318451 208.544647,183.783691 
	C208.636963,186.044113 208.323380,188.420425 211.463821,187.162140 
	C211.463821,187.162140 211.692886,187.319077 211.547516,187.771042 
	C212.119919,191.027100 212.087860,194.469971 216.460403,194.160477 
	C216.460403,194.160477 216.690308,194.316437 216.544312,194.782684 
	C216.636963,197.044113 216.323380,199.420425 219.463821,198.162140 
	C219.463821,198.162140 219.690979,198.318451 219.544647,198.783691 
	C219.636963,201.044113 219.323380,203.420425 222.463821,202.162140 
	C222.463821,202.162140 222.690979,202.318451 222.544647,202.783691 
	C222.636963,205.044113 222.323380,207.420425 225.463821,206.162140 
	C225.463821,206.162140 225.690979,206.318451 225.544647,206.783691 
	C225.636963,209.044113 225.323380,211.420425 228.463821,210.162140 
	C228.463821,210.162140 228.690979,210.318451 228.544647,210.783691 
	C228.636963,213.044113 228.323380,215.420425 231.463821,214.162140 
	C231.463821,214.162140 231.690979,214.318451 231.544647,214.783691 
	C231.636963,217.044113 231.323380,219.420425 234.463821,218.162140 
	C234.463821,218.162140 234.692886,218.319077 234.547516,218.771042 
	C235.119919,222.027100 235.087860,225.469971 239.460403,225.160477 
	C239.460403,225.160477 239.690308,225.316437 239.544312,225.782684 
	C239.636963,228.044113 239.323380,230.420425 242.463821,229.162140 
	C242.463821,229.162140 242.690979,229.318451 242.544647,229.783691 
	C242.636963,232.044113 242.323380,234.420425 245.463821,233.162140 
	C245.463821,233.162140 245.690979,233.318451 245.544647,233.783691 
	C245.636963,236.044113 245.323380,238.420425 248.463821,237.162140 
	C248.463821,237.162140 248.690979,237.318451 248.544647,237.783691 
	C248.636963,240.044113 248.323380,242.420425 251.463821,241.162140 
	C251.463821,241.162140 251.690979,241.318451 251.544647,241.783691 
	C251.636963,244.044113 251.323380,246.420425 254.463821,245.162140 
	C254.463821,245.162140 254.690964,245.318466 254.544647,245.783722 
	C254.636932,248.044205 254.323425,250.420456 257.463837,249.162140 
	C257.463837,249.162140 257.690948,249.318481 257.544617,249.783722 
	C257.636963,252.044159 257.323395,254.420471 260.463837,253.162140 
	C260.463837,253.162140 260.692871,253.319122 260.547546,253.771057 
	C261.119843,257.027191 261.087952,260.469879 265.460388,260.160522 
	C265.460388,260.160522 265.690308,260.316467 265.544312,260.782715 
	C265.636902,263.044220 265.323486,265.420441 268.463867,264.162170 
	C268.463867,264.162170 268.690979,264.318481 268.544617,264.783722 
	C268.636902,267.044220 268.323486,269.420441 271.463867,268.162170 
	C271.463867,268.162170 271.690979,268.318481 271.544617,268.783722 
	C271.636902,271.044220 271.323486,273.420441 274.463867,272.162170 
	C274.463867,272.162170 274.690979,272.318481 274.544617,272.783722 
	C274.636902,275.044220 274.323486,277.420441 277.463867,276.162170 
	C277.463867,276.162170 277.690979,276.318481 277.544617,276.783722 
	C277.636902,279.044220 277.323486,281.420441 280.463867,280.162170 
	C280.463867,280.162170 280.689850,280.318024 280.546204,280.775238 
	C281.632660,282.468231 282.862793,283.704041 284.092926,284.939819 
	C284.092926,284.939819 284.012451,284.987457 284.023621,285.335052 
	C284.247009,288.202759 284.941162,290.263000 288.114319,289.957458 
	C293.338745,295.062317 298.563171,300.167175 303.907715,305.961395 
	C304.250214,307.429840 304.217133,308.559326 304.733215,308.935516 
	C312.697632,314.741394 320.703613,320.509247 330.833374,322.000488 
	C330.881744,322.752563 330.930115,323.504608 330.501892,324.629578 
	C323.128998,324.961395 316.232300,324.852600 309.336517,324.893738 
	C296.118835,324.972626 282.886993,324.807312 269.690216,325.397308 
	C262.550323,325.716461 256.031067,325.167358 250.266220,320.569183 
	C249.336685,319.827759 248.036133,319.551483 246.907104,319.060181 
	C246.907104,319.060181 246.987656,319.012512 246.977112,318.670135 
	C246.171799,315.316589 245.800919,311.950836 241.539398,311.839417 
	C241.539398,311.839417 241.309647,311.683380 241.455688,311.217224 
	C241.363068,308.955780 241.676529,306.579529 238.536118,307.837830 
	C238.536118,307.837830 238.307114,307.680878 238.452484,307.228943 
	C237.880020,303.972961 237.912125,300.530029 233.539597,300.839478 
	C233.539597,300.839478 233.309677,300.683563 233.455688,300.217285 
	C233.363068,297.955780 233.676529,295.579529 230.536118,296.837830 
	C230.536118,296.837830 230.307114,296.680878 230.452484,296.228943 
	C229.880020,292.972961 229.912125,289.530029 225.539597,289.839478 
	C225.539597,289.839478 225.309677,289.683563 225.455688,289.217285 
	C225.363068,286.955780 225.676529,284.579529 222.536118,285.837830 
	C222.536118,285.837830 222.307114,285.680878 222.452484,285.228943 
	C221.880020,281.972961 221.912125,278.530029 217.539597,278.839478 
	C217.539597,278.839478 217.309677,278.683563 217.455688,278.217285 
	C217.363068,275.955780 217.676529,273.579529 214.536118,274.837830 
	C214.536118,274.837830 214.307114,274.680878 214.452484,274.228943 
	C213.880020,270.972961 213.912125,267.530029 209.539597,267.839478 
	C209.539597,267.839478 209.309677,267.683563 209.455688,267.217285 
	C209.363068,264.955780 209.676529,262.579529 206.536118,263.837830 
	C206.536118,263.837830 206.308960,263.681488 206.455338,263.216248 
	C206.363068,260.955780 206.676529,258.579529 203.536118,259.837830 
	C203.536118,259.837830 203.307114,259.680878 203.452484,259.228943 
	C202.880051,255.972946 202.912201,252.529984 198.539597,252.839523 
	C198.539597,252.839523 198.309692,252.683563 198.455688,252.217316 
	C198.363037,249.955887 198.676620,247.579575 195.536179,248.837860 
	C195.536179,248.837860 195.307114,248.680923 195.452484,248.228958 
	C194.880081,244.972900 194.912140,241.530029 190.539597,241.839523 
	C190.539597,241.839523 190.309692,241.683563 190.455688,241.217316 
	C190.363037,238.955887 190.676620,236.579575 187.536179,237.837860 
	C187.536179,237.837860 187.307114,237.680923 187.452484,237.228958 
	C186.880081,233.972900 186.912140,230.530029 182.539597,230.839523 
	C182.539597,230.839523 182.309692,230.683563 182.455688,230.217316 
	C182.363037,227.955887 182.676620,225.579575 179.536179,226.837860 
	C179.536179,226.837860 179.307114,226.680923 179.452484,226.228958 
	C178.880081,222.972900 178.912140,219.530029 174.539597,219.839523 
	C174.539597,219.839523 174.309692,219.683563 174.455688,219.217316 
	C174.363037,216.955887 174.676620,214.579575 171.536179,215.837860 
	C171.536179,215.837860 171.307114,215.680923 171.452484,215.228958 
	C170.880081,211.972900 170.912140,208.530029 166.539597,208.839523 
	C166.539597,208.839523 166.309692,208.683563 166.455688,208.217316 
	C166.363037,205.955887 166.676620,203.579575 163.536179,204.837860 
	C163.536179,204.837860 163.309021,204.681549 163.455353,204.216309 
	C163.363037,201.955887 163.676620,199.579575 160.536179,200.837860 
	C160.536179,200.837860 160.307312,200.680984 160.452484,200.228836 
	C160.043732,196.386795 159.031250,193.385864 154.885620,193.042526 
	C154.536835,193.027725 154.270035,192.872253 154.028534,191.961273 
	C153.532928,187.359451 151.891464,185.561295 148.408051,188.838745 
	C141.975266,194.891174 135.461761,200.900330 129.558685,207.447556 
	C127.767677,209.434006 127.874214,213.131287 127.111633,216.044968 
	C127.078903,241.038498 127.046165,266.032013 126.775299,291.706848 
	C126.584976,299.067383 128.760910,302.894867 133.114395,303.957489 
z"/>
<path fill="#472580" opacity="1.000000" stroke="none" 
	d="
M67.032257,59.369347 
	C68.583649,60.355995 70.836327,61.330620 71.882019,63.042515 
	C76.032417,69.837128 77.958153,77.417778 77.965691,85.341591 
	C78.026741,149.503052 78.120026,213.665070 77.877296,277.825684 
	C77.838547,288.068573 76.250992,298.264648 70.400528,307.301422 
	C65.231705,315.285339 57.091198,317.735382 48.696247,320.060150 
	C47.339092,320.435974 46.262520,321.825012 45.056259,322.745728 
	C46.432384,323.496887 47.816635,324.912750 49.183353,324.896027 
	C62.308144,324.735382 75.431267,324.014709 88.552399,324.067535 
	C114.341675,324.171356 140.129379,324.666656 166.375549,324.999756 
	C167.635742,328.772919 165.327438,329.107513 162.492981,329.010925 
	C151.909515,328.650146 141.326462,328.157623 130.739670,328.042419 
	C115.589409,327.877472 100.434608,327.872070 85.284409,328.039886 
	C72.533295,328.181122 59.786125,328.835907 47.036869,328.846222 
	C44.703739,328.848114 42.368988,326.847778 40.034981,325.771667 
	C41.570793,322.777954 42.575161,319.269318 44.814884,316.957581 
	C46.527576,315.189850 49.742313,314.681396 52.393223,314.052246 
	C64.636826,311.146484 69.891014,302.040375 71.821228,290.930420 
	C73.359306,282.077545 73.884743,272.954346 73.910637,263.948456 
	C74.083008,204.006775 74.017242,144.064331 73.980927,84.122185 
	C73.975639,75.384995 72.596672,66.960144 67.032257,59.369347 
z"/>
<path fill="#472580" opacity="1.000000" stroke="none" 
	d="
M245.069305,52.411530 
	C249.550095,52.298923 249.819962,55.967018 249.922028,59.178486 
	C250.177200,67.205864 245.677689,73.787247 240.910645,79.148895 
	C228.692581,92.890961 215.455215,105.726875 202.621140,118.920952 
	C201.808807,119.756058 200.959244,120.554893 200.128326,121.371971 
	C180.082275,141.084290 160.117111,160.880371 139.892776,180.408020 
	C137.235168,182.974075 133.325745,184.347565 129.800415,185.797562 
	C129.279663,186.011734 127.669853,183.578094 126.834625,182.159424 
	C129.935196,180.598434 133.356583,179.862549 135.501602,177.799576 
	C153.112885,160.861786 170.472672,143.662766 187.937180,126.572044 
	C201.353470,113.442886 215.071823,100.609276 228.146973,87.149864 
	C235.373978,79.710472 242.431229,71.769783 245.136780,61.286209 
	C245.825211,58.618645 245.248428,55.624561 245.069305,52.411530 
z"/>
<path fill="#472580" opacity="1.000000" stroke="none" 
	d="
M156.899918,34.616096 
	C139.070862,35.334442 121.309586,35.783726 103.545547,35.967793 
	C87.824577,36.130692 72.099899,36.078144 56.378235,35.950745 
	C51.260235,35.909271 46.149323,35.277309 41.029888,35.020767 
	C38.002708,34.869068 34.253315,34.674976 34.366905,38.790276 
	C34.408062,40.281406 37.681156,42.239975 39.829281,43.011547 
	C46.178452,45.292072 52.799454,46.832214 59.093395,49.239174 
	C60.789833,49.887939 61.700760,52.590725 62.964893,54.732563 
	C55.582836,50.311893 47.164196,48.666656 38.733620,46.959690 
	C32.927025,45.784012 30.274176,42.705109 29.961432,37.977074 
	C29.648935,33.252785 32.325363,30.994005 36.369396,31.101688 
	C51.731606,31.510742 67.079590,32.437313 82.440994,32.902534 
	C87.527016,33.056568 92.636665,32.387108 97.737206,32.127422 
	C99.562691,32.034481 101.393173,32.039165 103.221382,32.000072 
	C118.815491,31.666620 134.409210,31.194666 150.004135,31.150728 
	C152.322006,31.144197 154.645569,33.154472 156.899918,34.616096 
z"/>
<path fill="#472580" opacity="1.000000" stroke="none" 
	d="
M326.000000,42.000000 
	C325.857483,35.662926 325.246277,34.825489 319.181854,35.043182 
	C304.289185,35.577778 289.404694,36.844437 274.516357,36.853466 
	C260.127960,36.862194 245.739182,35.657799 231.349442,35.011097 
	C229.543839,34.929951 227.731445,35.000004 225.847321,35.000004 
	C224.116791,38.993538 225.022629,41.240086 229.100067,42.188038 
	C232.637085,43.010345 236.316772,43.655270 239.547668,45.190418 
	C241.416641,46.078442 242.522552,48.572407 243.964706,50.729050 
	C238.028885,49.094379 232.175888,46.799393 226.147751,45.140869 
	C221.295624,43.805904 220.464813,40.542603 221.076569,36.482834 
	C221.689606,32.414520 224.530182,30.877615 228.493866,30.989058 
	C241.408234,31.352161 254.323502,31.904001 267.239258,31.928181 
	C278.177185,31.948656 289.114685,31.261669 300.055420,31.032949 
	C307.045441,30.886822 314.050629,30.779926 321.030914,31.078600 
	C326.243774,31.301653 328.751923,35.823132 326.799561,41.648270 
	C326.416687,41.999649 326.000000,42.000000 326.000000,42.000000 
z"/>
<path fill="#472580" opacity="1.000000" stroke="none" 
	d="
M325.558228,42.000000 
	C326.000000,42.000000 326.416687,41.999649 326.625031,41.999352 
	C324.906158,43.320126 323.149048,45.322922 321.024475,45.853168 
	C305.620209,49.697697 292.860535,58.219917 281.187408,68.432617 
	C268.906250,79.177284 257.053192,90.412292 245.045502,101.468277 
	C231.814697,113.650414 218.522781,125.769035 205.459274,138.128601 
	C200.272034,143.036331 195.626862,148.517029 190.423981,153.890259 
	C190.823959,151.454208 190.734726,148.068817 192.383011,146.411819 
	C199.867401,138.887772 207.837952,131.846970 215.640686,124.640030 
	C220.763260,119.908607 225.933624,115.228386 231.020035,110.458519 
	C242.531662,99.663231 253.697632,88.474487 265.585999,78.113297 
	C275.930878,69.097305 286.811890,60.630787 297.973755,52.645195 
	C303.648956,48.584934 310.359009,45.877033 316.818634,43.055481 
	C319.270477,41.984520 322.332550,42.310646 325.558228,42.000000 
z"/>
<path fill="#472580" opacity="1.000000" stroke="none" 
	d="
M247.043701,319.378052 
	C248.036133,319.551483 249.336685,319.827759 250.266220,320.569183 
	C256.031067,325.167358 262.550323,325.716461 269.690216,325.397308 
	C282.886993,324.807312 296.118835,324.972626 309.336517,324.893738 
	C316.232300,324.852600 323.128998,324.961395 330.429321,325.000977 
	C330.427429,328.743561 327.377502,330.041748 323.321625,329.865143 
	C309.919861,329.281586 296.496674,329.146454 283.080048,328.963654 
	C274.763733,328.850311 266.272552,329.954498 258.198547,328.556305 
	C254.136169,327.852783 250.828995,322.788361 247.043701,319.378052 
z"/>
<path fill="#472580" opacity="1.000000" stroke="none" 
	d="
M166.901215,320.633423 
	C157.064499,318.914032 147.071182,317.430817 138.713501,311.328430 
	C137.543869,310.474457 136.908981,308.888062 136.034210,307.262817 
	C144.149643,309.921021 152.304398,312.840088 160.336319,316.065033 
	C162.724518,317.023987 164.767792,318.841980 166.901215,320.633423 
z"/>
<path fill="#472580" opacity="1.000000" stroke="none" 
	d="
M128.435410,60.872253 
	C125.950172,56.055679 129.356873,52.221386 131.811935,49.140194 
	C137.394867,42.133381 145.420380,39.861065 154.655548,41.124809 
	C155.025925,41.742641 155.034500,41.928219 155.043060,42.113792 
	C150.834259,43.411793 146.665741,44.864296 142.407898,45.974125 
	C134.662323,47.993050 130.573624,53.257195 128.435410,60.872253 
z"/>
<path fill="#472580" opacity="1.000000" stroke="none" 
	d="
M127.426407,215.886780 
	C127.874214,213.131287 127.767677,209.434006 129.558685,207.447556 
	C135.461761,200.900330 141.975266,194.891174 148.408051,188.838745 
	C151.891464,185.561295 153.532928,187.359451 153.964691,191.730438 
	C152.181015,192.107407 149.828140,191.354904 148.719711,192.211945 
	C140.292847,198.727478 132.672897,206.055756 127.426407,215.886780 
z"/>
<path fill="#472580" opacity="1.000000" stroke="none" 
	d="
M330.901459,321.638824 
	C320.703613,320.509247 312.697632,314.741394 304.733215,308.935516 
	C304.217133,308.559326 304.250214,307.429840 304.034821,306.267792 
	C312.088226,309.933685 320.165680,313.923218 328.147095,318.096375 
	C329.321289,318.710297 330.040070,320.195221 330.901459,321.638824 
z"/>
<path fill="#472580" opacity="1.000000" stroke="none" 
	d="
M196.286438,166.886292 
	C192.581451,166.664429 189.612305,162.037491 189.825439,156.166016 
	C192.110107,159.505783 194.111374,163.059006 196.286438,166.886292 
z"/>
<path fill="#472580" opacity="1.000000" stroke="none" 
	d="
M132.968170,303.631195 
	C128.760910,302.894867 126.584976,299.067383 126.823044,292.170380 
	C129.013245,295.736694 130.917587,299.520782 132.968170,303.631195 
z"/>
<path fill="#472580" opacity="1.000000" stroke="none" 
	d="
M241.710754,312.108459 
	C245.800919,311.950836 246.171799,315.316589 246.953247,318.710388 
	C245.253983,316.854523 243.568054,314.615997 241.710754,312.108459 
z"/>
<path fill="#472580" opacity="1.000000" stroke="none" 
	d="
M155.026794,193.362503 
	C159.031250,193.385864 160.043732,196.386795 160.377869,200.111862 
	C158.494705,198.192184 156.831329,195.937332 155.026794,193.362503 
z"/>
<path fill="#472580" opacity="1.000000" stroke="none" 
	d="
M265.289673,259.892761 
	C261.087952,260.469879 261.119843,257.027191 260.622131,253.888153 
	C262.267700,255.577225 263.693298,257.601135 265.289673,259.892761 
z"/>
<path fill="#472580" opacity="1.000000" stroke="none" 
	d="
M198.710358,253.107239 
	C202.912201,252.529984 202.880051,255.972946 203.377914,259.111877 
	C201.732346,257.422791 200.306717,255.398880 198.710358,253.107239 
z"/>
<path fill="#472580" opacity="1.000000" stroke="none" 
	d="
M190.710342,242.107239 
	C194.912140,241.530029 194.880081,244.972900 195.377899,248.111847 
	C193.732330,246.422775 192.306717,244.398880 190.710342,242.107239 
z"/>
<path fill="#472580" opacity="1.000000" stroke="none" 
	d="
M209.710342,268.107239 
	C213.912125,267.530029 213.880020,270.972961 214.377899,274.111877 
	C212.732330,272.422791 211.306702,270.398895 209.710342,268.107239 
z"/>
<path fill="#472580" opacity="1.000000" stroke="none" 
	d="
M182.710342,231.107239 
	C186.912140,230.530029 186.880081,233.972900 187.377899,237.111847 
	C185.732330,235.422775 184.306702,233.398880 182.710342,231.107239 
z"/>
<path fill="#472580" opacity="1.000000" stroke="none" 
	d="
M217.710358,279.107239 
	C221.912125,278.530029 221.880020,281.972961 222.377914,285.111877 
	C220.732346,283.422791 219.306717,281.398865 217.710358,279.107239 
z"/>
<path fill="#472580" opacity="1.000000" stroke="none" 
	d="
M239.289658,224.892761 
	C235.087860,225.469971 235.119919,222.027100 234.622101,218.888153 
	C236.267670,220.577209 237.693298,222.601120 239.289658,224.892761 
z"/>
<path fill="#472580" opacity="1.000000" stroke="none" 
	d="
M174.710342,220.107239 
	C178.912140,219.530029 178.880081,222.972900 179.377899,226.111847 
	C177.732330,224.422791 176.306702,222.398880 174.710342,220.107239 
z"/>
<path fill="#472580" opacity="1.000000" stroke="none" 
	d="
M166.710342,209.107239 
	C170.912140,208.530029 170.880081,211.972900 171.377899,215.111847 
	C169.732330,213.422775 168.306717,211.398880 166.710342,209.107239 
z"/>
<path fill="#472580" opacity="1.000000" stroke="none" 
	d="
M225.710358,290.107239 
	C229.912125,289.530029 229.880020,292.972961 230.377914,296.111877 
	C228.732346,294.422791 227.306717,292.398865 225.710358,290.107239 
z"/>
<path fill="#472580" opacity="1.000000" stroke="none" 
	d="
M233.710358,301.107239 
	C237.912125,300.530029 237.880020,303.972961 238.377914,307.111877 
	C236.732346,305.422791 235.306717,303.398865 233.710358,301.107239 
z"/>
<path fill="#472580" opacity="1.000000" stroke="none" 
	d="
M216.289658,193.892761 
	C212.087860,194.469971 212.119919,191.027100 211.622101,187.888153 
	C213.267670,189.577209 214.693298,191.601120 216.289658,193.892761 
z"/>
<path fill="#472580" opacity="1.000000" stroke="none" 
	d="
M287.981720,289.648010 
	C284.941162,290.263000 284.247009,288.202759 284.047424,285.294800 
	C285.323090,286.384186 286.586121,287.861359 287.981720,289.648010 
z"/>
<path fill="#472580" opacity="1.000000" stroke="none" 
	d="
M283.969910,284.638977 
	C282.862793,283.704041 281.632660,282.468231 280.621155,280.890228 
	C281.842163,281.811371 282.844543,283.074768 283.969910,284.638977 
z"/>
<path fill="#472580" opacity="1.000000" stroke="none" 
	d="
M277.305115,275.918030 
	C274.323486,277.420441 274.636902,275.044220 274.619385,272.899567 
	C275.609100,273.591400 276.377747,274.632629 277.305115,275.918030 
z"/>
<path fill="#472580" opacity="1.000000" stroke="none" 
	d="
M208.305084,182.917969 
	C205.323380,184.420425 205.636963,182.044113 205.619400,179.899536 
	C206.609100,180.591370 207.377716,181.632599 208.305084,182.917969 
z"/>
<path fill="#472580" opacity="1.000000" stroke="none" 
	d="
M238.694855,308.081970 
	C241.676529,306.579529 241.363068,308.955780 241.380585,311.100403 
	C240.390854,310.408600 239.622238,309.367371 238.694855,308.081970 
z"/>
<path fill="#472580" opacity="1.000000" stroke="none" 
	d="
M203.694870,260.081970 
	C206.676529,258.579529 206.363068,260.955780 206.380600,263.100403 
	C205.390869,262.408569 204.622253,261.367371 203.694870,260.081970 
z"/>
<path fill="#472580" opacity="1.000000" stroke="none" 
	d="
M268.305115,263.918030 
	C265.323486,265.420441 265.636902,263.044220 265.619385,260.899567 
	C266.609100,261.591400 267.377747,262.632629 268.305115,263.918030 
z"/>
<path fill="#472580" opacity="1.000000" stroke="none" 
	d="
M206.694855,264.081970 
	C209.676529,262.579529 209.363068,264.955780 209.380585,267.100403 
	C208.390854,266.408600 207.622238,265.367371 206.694855,264.081970 
z"/>
<path fill="#472580" opacity="1.000000" stroke="none" 
	d="
M271.305115,267.918030 
	C268.323486,269.420441 268.636902,267.044220 268.619385,264.899567 
	C269.609100,265.591400 270.377747,266.632629 271.305115,267.918030 
z"/>
<path fill="#472580" opacity="1.000000" stroke="none" 
	d="
M199.305084,170.917969 
	C196.323380,172.420425 196.636963,170.044113 196.619400,167.899536 
	C197.609100,168.591370 198.377716,169.632599 199.305084,170.917969 
z"/>
<path fill="#472580" opacity="1.000000" stroke="none" 
	d="
M274.305115,271.918030 
	C271.323486,273.420441 271.636902,271.044220 271.619385,268.899567 
	C272.609131,269.591400 273.377747,270.632629 274.305115,271.918030 
z"/>
<path fill="#472580" opacity="1.000000" stroke="none" 
	d="
M214.694870,275.081970 
	C217.676529,273.579529 217.363068,275.955780 217.380600,278.100403 
	C216.390869,277.408569 215.622238,276.367371 214.694870,275.081970 
z"/>
<path fill="#472580" opacity="1.000000" stroke="none" 
	d="
M280.305115,279.918030 
	C277.323486,281.420441 277.636902,279.044220 277.619385,276.899567 
	C278.609100,277.591400 279.377747,278.632629 280.305115,279.918030 
z"/>
<path fill="#472580" opacity="1.000000" stroke="none" 
	d="
M230.694870,297.081970 
	C233.676529,295.579529 233.363068,297.955780 233.380600,300.100403 
	C232.390869,299.408569 231.622253,298.367371 230.694870,297.081970 
z"/>
<path fill="#472580" opacity="1.000000" stroke="none" 
	d="
M222.694870,286.081970 
	C225.676529,284.579529 225.363068,286.955780 225.380600,289.100403 
	C224.390854,288.408569 223.622238,287.367371 222.694870,286.081970 
z"/>
<path fill="#472580" opacity="1.000000" stroke="none" 
	d="
M195.694916,249.082031 
	C198.676620,247.579575 198.363037,249.955887 198.380600,252.100464 
	C197.390884,251.408646 196.622269,250.367416 195.694916,249.082031 
z"/>
<path fill="#472580" opacity="1.000000" stroke="none" 
	d="
M205.305084,178.917969 
	C202.323380,180.420425 202.636963,178.044113 202.619400,175.899536 
	C203.609116,176.591370 204.377716,177.632584 205.305084,178.917969 
z"/>
<path fill="#472580" opacity="1.000000" stroke="none" 
	d="
M211.305084,186.917969 
	C208.323380,188.420425 208.636963,186.044113 208.619400,183.899536 
	C209.609116,184.591370 210.377731,185.632584 211.305084,186.917969 
z"/>
<path fill="#472580" opacity="1.000000" stroke="none" 
	d="
M202.305084,174.917969 
	C199.323380,176.420425 199.636963,174.044113 199.619400,171.899536 
	C200.609116,172.591354 201.377731,173.632584 202.305084,174.917969 
z"/>
<path fill="#472580" opacity="1.000000" stroke="none" 
	d="
M219.305084,197.917969 
	C216.323380,199.420425 216.636963,197.044113 216.619400,194.899536 
	C217.609100,195.591370 218.377716,196.632599 219.305084,197.917969 
z"/>
<path fill="#472580" opacity="1.000000" stroke="none" 
	d="
M222.305084,201.917969 
	C219.323380,203.420425 219.636963,201.044113 219.619400,198.899536 
	C220.609100,199.591370 221.377716,200.632584 222.305084,201.917969 
z"/>
<path fill="#472580" opacity="1.000000" stroke="none" 
	d="
M160.694916,201.082031 
	C163.676620,199.579575 163.363037,201.955887 163.380600,204.100464 
	C162.390884,203.408630 161.622284,202.367416 160.694916,201.082031 
z"/>
<path fill="#472580" opacity="1.000000" stroke="none" 
	d="
M225.305084,205.917969 
	C222.323380,207.420425 222.636963,205.044113 222.619400,202.899536 
	C223.609116,203.591354 224.377731,204.632584 225.305084,205.917969 
z"/>
<path fill="#472580" opacity="1.000000" stroke="none" 
	d="
M163.694916,205.082031 
	C166.676620,203.579575 166.363037,205.955887 166.380600,208.100464 
	C165.390884,207.408646 164.622269,206.367416 163.694916,205.082031 
z"/>
<path fill="#472580" opacity="1.000000" stroke="none" 
	d="
M228.305084,209.917969 
	C225.323380,211.420425 225.636963,209.044113 225.619400,206.899536 
	C226.609116,207.591370 227.377716,208.632584 228.305084,209.917969 
z"/>
<path fill="#472580" opacity="1.000000" stroke="none" 
	d="
M231.305084,213.917969 
	C228.323380,215.420425 228.636963,213.044113 228.619400,210.899536 
	C229.609116,211.591370 230.377716,212.632584 231.305084,213.917969 
z"/>
<path fill="#472580" opacity="1.000000" stroke="none" 
	d="
M171.694916,216.082031 
	C174.676620,214.579575 174.363037,216.955887 174.380600,219.100464 
	C173.390900,218.408630 172.622284,217.367401 171.694916,216.082031 
z"/>
<path fill="#472580" opacity="1.000000" stroke="none" 
	d="
M234.305084,217.917969 
	C231.323380,219.420425 231.636963,217.044113 231.619400,214.899536 
	C232.609116,215.591354 233.377731,216.632584 234.305084,217.917969 
z"/>
<path fill="#472580" opacity="1.000000" stroke="none" 
	d="
M179.694916,227.082031 
	C182.676620,225.579575 182.363037,227.955887 182.380600,230.100464 
	C181.390884,229.408646 180.622269,228.367416 179.694916,227.082031 
z"/>
<path fill="#472580" opacity="1.000000" stroke="none" 
	d="
M242.305084,228.917969 
	C239.323380,230.420425 239.636963,228.044113 239.619400,225.899536 
	C240.609116,226.591370 241.377716,227.632584 242.305084,228.917969 
z"/>
<path fill="#472580" opacity="1.000000" stroke="none" 
	d="
M245.305084,232.917969 
	C242.323380,234.420425 242.636963,232.044113 242.619400,229.899536 
	C243.609116,230.591370 244.377716,231.632584 245.305084,232.917969 
z"/>
<path fill="#472580" opacity="1.000000" stroke="none" 
	d="
M248.305084,236.917969 
	C245.323380,238.420425 245.636963,236.044113 245.619400,233.899536 
	C246.609116,234.591370 247.377716,235.632584 248.305084,236.917969 
z"/>
<path fill="#472580" opacity="1.000000" stroke="none" 
	d="
M187.694916,238.082031 
	C190.676620,236.579575 190.363037,238.955887 190.380600,241.100464 
	C189.390900,240.408630 188.622284,239.367401 187.694916,238.082031 
z"/>
<path fill="#472580" opacity="1.000000" stroke="none" 
	d="
M251.305084,240.917969 
	C248.323380,242.420425 248.636963,240.044113 248.619400,237.899536 
	C249.609116,238.591370 250.377716,239.632584 251.305084,240.917969 
z"/>
<path fill="#472580" opacity="1.000000" stroke="none" 
	d="
M254.305084,244.917969 
	C251.323380,246.420425 251.636963,244.044113 251.619400,241.899536 
	C252.609116,242.591370 253.377716,243.632584 254.305084,244.917969 
z"/>
<path fill="#472580" opacity="1.000000" stroke="none" 
	d="
M257.305084,248.917969 
	C254.323425,250.420456 254.636932,248.044205 254.619415,245.899567 
	C255.609116,246.591370 256.377716,247.632584 257.305084,248.917969 
z"/>
<path fill="#472580" opacity="1.000000" stroke="none" 
	d="
M260.305084,252.917969 
	C257.323395,254.420471 257.636963,252.044159 257.619385,249.899536 
	C258.609100,250.591370 259.377716,251.632584 260.305084,252.917969 
z"/>
<path fill="#472580" opacity="1.000000" stroke="none" 
	d="
M155.367615,41.946613 
	C155.034500,41.928219 155.025925,41.742641 155.008682,41.278530 
	C155.381317,39.718418 155.762619,38.436832 156.488647,37.078083 
	C156.452957,38.593754 156.072556,40.186592 155.367615,41.946613 
z"/>
<path fill="#472580" opacity="1.000000" stroke="none" 
	d="
M127.423309,65.889008 
	C127.140350,65.068787 127.168922,64.092735 127.515411,63.058746 
	C127.800507,63.911598 127.767670,64.822388 127.423309,65.889008 
z"/>
</svg>