<svg version="1.1" id="Layer_1" xmlns="http://www.w3.org/2000/svg" xmlns:xlink="http://www.w3.org/1999/xlink" x="0px" y="0px"
	 width="100%" viewBox="0 0 2690 854" enable-background="new 0 0 2690 854" xml:space="preserve">
<path fill="#FFFFFF" opacity="1.000000" stroke="none" 
	d="
M1872.000000,855.000000 
	C1248.000000,855.000000 624.500000,855.000000 1.000000,855.000000 
	C1.000000,570.333313 1.000000,285.666656 1.000000,1.000000 
	C897.666687,1.000000 1794.333374,1.000000 2691.000000,1.000000 
	C2691.000000,285.666656 2691.000000,570.333313 2691.000000,855.000000 
	C2418.166748,855.000000 2145.333252,855.000000 1872.000000,855.000000 
M1362.335083,237.925919 
	C1361.879517,238.000351 1361.424072,238.074783 1360.140381,238.025940 
	C1357.767700,238.375092 1355.395142,238.724243 1352.323608,238.968704 
	C1351.867798,239.068497 1351.411987,239.168274 1350.168701,239.226776 
	C1348.244385,239.431412 1346.213501,240.140945 1344.412598,239.760834 
	C1329.868286,236.691025 1315.266235,236.759552 1300.797119,239.584030 
	C1235.107178,252.407227 1194.023193,313.038147 1206.047241,379.083557 
	C1215.313721,429.981873 1261.035889,470.528076 1312.469360,474.295288 
	C1328.394165,475.461670 1344.144897,470.695435 1360.804321,474.132782 
	C1371.080811,473.641235 1381.632812,474.483826 1391.586426,472.428741 
	C1436.255981,463.205963 1467.310791,436.931122 1481.744629,393.698517 
	C1496.164673,350.507050 1487.349365,310.798553 1457.290405,276.444824 
	C1442.993286,260.104828 1425.197388,248.626205 1403.449585,242.410461 
	C1392.930542,240.919968 1382.411621,239.429474 1371.151367,237.645477 
	C1370.110596,237.735260 1369.069702,237.825058 1367.417236,237.743866 
	C1365.950806,237.848618 1364.484253,237.953369 1362.335083,237.925919 
M284.841919,588.500000 
	C284.841919,597.928223 284.841919,607.356384 284.841919,616.799927 
	C289.589844,616.799927 293.642517,616.799927 298.102905,616.799927 
	C298.102905,605.250000 298.102905,594.054810 298.102905,582.859680 
	C304.089264,592.822571 309.267456,602.980408 314.393097,613.164673 
	C315.530609,615.424866 316.486084,618.203064 319.684021,617.056580 
	C321.553009,616.386597 323.665558,614.953491 324.568237,613.272766 
	C329.210754,604.628906 333.492432,595.791382 337.911255,587.027039 
	C338.675995,585.510254 339.494629,584.020691 340.288391,582.518494 
	C340.627075,582.640503 340.965759,582.762451 341.304443,582.884460 
	C341.304443,594.142334 341.304443,605.400208 341.304443,616.780762 
	C345.767517,616.780762 349.806915,616.780762 353.783813,616.780762 
	C353.783813,593.347717 353.783813,570.295349 353.783813,547.276794 
	C344.678955,546.565552 344.669800,546.560852 340.697357,554.264404 
	C337.571716,560.325745 334.485596,566.407410 331.357635,572.467590 
	C327.525269,579.892517 323.667572,587.304443 319.518402,595.304993 
	C312.132324,580.949402 305.102600,567.367065 298.151337,553.744690 
	C294.191254,545.984131 294.017273,545.844543 284.841766,547.695374 
	C284.841766,560.908020 284.841766,574.203979 284.841919,588.500000 
M539.421570,546.985229 
	C526.525391,546.985229 513.629211,546.985229 500.701843,546.985229 
	C500.701843,570.760315 500.701843,593.794678 500.701843,617.023438 
	C515.979980,617.023438 530.930115,617.359314 545.854004,616.878174 
	C553.042664,616.646362 557.921448,610.371460 557.983154,602.821411 
	C558.087708,590.007751 558.016052,577.192566 558.013794,564.378052 
	C558.011536,551.967712 552.984253,547.009399 539.421570,546.985229 
M461.243896,546.989075 
	C447.326416,546.989075 433.408966,546.989075 419.426697,546.989075 
	C419.426697,570.717773 419.426697,593.768982 419.426697,616.962036 
	C434.837463,616.962036 449.967773,617.310364 465.069641,616.806519 
	C472.010132,616.575012 476.798431,609.971497 476.840546,602.369507 
	C476.914307,589.049438 476.896942,575.728577 476.852356,562.408264 
	C476.821289,553.123535 471.607574,547.705688 461.243896,546.989075 
M2210.910400,616.606873 
	C2216.004639,613.370667 2218.365479,608.760376 2218.032959,602.714661 
	C2217.905029,600.389893 2218.012451,598.052185 2218.012451,595.720337 
	C2218.011719,585.807922 2215.577637,582.615112 2206.186768,580.124146 
	C2198.636719,578.121460 2191.092529,576.096497 2183.551270,574.060486 
	C2177.710938,572.483643 2176.688721,570.429688 2177.701660,563.172913 
	C2178.412109,558.081970 2182.180420,558.669128 2185.659668,558.637085 
	C2188.823975,558.607910 2191.989014,558.629883 2195.153564,558.630127 
	C2204.314209,558.630798 2204.309814,558.631409 2205.205322,567.842163 
	C2205.230713,568.105042 2205.581055,568.336365 2205.773926,568.575012 
	C2209.719482,568.575012 2213.643311,568.575012 2218.012939,568.575012 
	C2218.012939,565.673584 2218.043945,563.042786 2218.007080,560.412903 
	C2217.892334,552.220581 2212.753418,546.255981 2204.624512,545.904846 
	C2195.485596,545.510010 2186.301514,545.531494 2177.162842,545.943848 
	C2169.695557,546.280884 2164.422363,552.298767 2164.160645,559.839905 
	C2164.051025,563.000854 2164.136475,566.168579 2164.133057,569.333191 
	C2164.123779,578.260620 2166.672363,581.598206 2175.255127,583.889465 
	C2183.285645,586.033264 2191.327637,588.134399 2199.343994,590.329224 
	C2204.305420,591.687683 2205.106445,593.673462 2204.381836,600.919739 
	C2203.945557,605.284607 2201.069336,605.740051 2197.641846,605.699646 
	C2194.311035,605.660400 2190.979492,605.702515 2187.648193,605.701782 
	C2178.055176,605.699768 2178.059570,605.697876 2177.083252,596.504089 
	C2177.052490,596.214294 2176.736328,595.954712 2176.644531,595.817322 
	C2172.487793,595.817322 2168.434082,595.817322 2164.134521,595.817322 
	C2164.134521,598.084961 2164.132812,599.906372 2164.134766,601.727844 
	C2164.147461,613.065674 2169.508789,618.451355 2180.991943,618.604004 
	C2185.322021,618.661560 2189.666260,618.842834 2193.980225,618.579407 
	C2199.410156,618.247742 2204.815918,617.517944 2210.910400,616.606873 
M939.292725,581.037109 
	C931.267761,578.878174 923.242004,576.721863 915.217957,574.559448 
	C907.276855,572.419373 907.211670,572.183899 907.587463,564.000610 
	C907.761658,560.206726 909.511414,558.570068 913.187805,558.625122 
	C916.351318,558.672485 919.516174,558.630676 922.680481,558.630371 
	C933.431030,558.629272 933.431030,558.629578 935.302734,568.504028 
	C939.366943,568.504028 943.432007,568.504028 947.862671,568.504028 
	C947.862671,565.678650 947.887024,563.206116 947.858398,560.734253 
	C947.756897,551.965027 942.512512,546.161621 933.792419,545.856995 
	C925.144226,545.554932 916.468323,545.538635 907.821350,545.854187 
	C899.609802,546.153931 894.188782,551.958252 893.999695,559.994202 
	C893.913513,563.656067 893.952148,567.322083 893.994568,570.985535 
	C894.072632,577.717896 896.826477,581.467651 903.339050,583.334045 
	C911.007080,585.531494 918.723328,587.561401 926.426208,589.636230 
	C934.488708,591.807983 934.360840,591.790588 934.181152,600.052917 
	C934.092163,604.145142 932.188721,605.753784 928.336182,605.708313 
	C924.672852,605.665039 921.008484,605.703247 917.344604,605.702515 
	C907.641479,605.700623 907.645691,605.699585 906.792419,596.432495 
	C906.768494,596.171875 906.419861,595.941162 906.188416,595.654053 
	C902.287659,595.654053 898.358459,595.654053 893.986511,595.654053 
	C893.986511,598.393250 893.963745,600.860168 893.990540,603.326477 
	C894.084167,611.936462 898.831116,617.746338 907.434631,618.292358 
	C916.383667,618.860352 925.421326,618.848206 934.373779,618.313232 
	C942.960205,617.800110 947.773987,611.965454 947.858459,603.370667 
	C947.889587,600.206665 947.800598,597.040527 947.881287,593.878235 
	C948.033264,587.923157 945.652527,583.597290 939.292725,581.037109 
M1880.851318,614.209229 
	C1880.851318,591.951050 1880.851318,569.692932 1880.851318,547.280029 
	C1876.051880,547.280029 1871.819580,547.280029 1867.084106,547.280029 
	C1867.084106,557.933533 1867.084106,568.306885 1867.084106,579.666260 
	C1865.257202,578.058044 1864.151001,577.183655 1863.158569,576.194946 
	C1855.256226,568.321899 1847.034058,560.732361 1839.611328,552.429016 
	C1834.873901,547.129517 1829.710205,545.990051 1823.085693,547.481995 
	C1823.085693,570.605225 1823.085693,593.677795 1823.085693,616.998169 
	C1827.543823,616.998169 1831.795654,616.998169 1836.700684,616.998169 
	C1836.700684,600.883667 1836.700684,585.050232 1836.700684,568.790771 
	C1837.833984,569.284607 1838.352783,569.363037 1838.650391,569.661743 
	C1847.697510,578.742188 1856.772461,587.796448 1865.681274,597.011047 
	C1866.664062,598.027710 1867.026001,599.970154 1867.076660,601.503113 
	C1867.245239,606.599182 1867.140503,611.704346 1867.140503,617.103821 
	C1871.498291,617.103821 1875.298828,617.190308 1879.087402,617.015930 
	C1879.696533,616.987915 1880.252075,615.795166 1880.851318,614.209229 
M2140.606689,559.272766 
	C2138.250732,550.571777 2133.779541,547.051147 2124.901855,546.996033 
	C2118.572754,546.956726 2112.242920,546.990540 2105.913574,546.991150 
	C2100.994141,546.991638 2096.074707,546.991272 2091.335449,546.991272 
	C2091.335449,570.818054 2091.335449,593.872742 2091.335449,616.934387 
	C2095.939941,616.934387 2100.195068,616.934387 2104.934570,616.934387 
	C2104.934570,608.492065 2104.934570,600.402893 2104.934570,592.471863 
	C2110.850342,590.703796 2114.745605,592.110779 2117.779297,597.263306 
	C2121.231934,603.127197 2125.407715,608.573242 2129.408447,614.100220 
	C2130.309814,615.345154 2131.724365,616.949341 2133.010010,617.052795 
	C2137.508789,617.414917 2142.054199,617.193115 2147.373291,617.193115 
	C2141.048828,608.185791 2135.339355,600.054016 2129.427734,591.634705 
	C2138.372070,588.730103 2141.199219,582.442383 2140.885498,574.112305 
	C2140.710205,569.455139 2140.795166,564.788147 2140.606689,559.272766 
M1411.043091,595.662720 
	C1411.975830,597.995483 1413.499390,600.274841 1413.715942,602.672302 
	C1414.141846,607.385437 1413.841309,612.164246 1413.841309,616.777954 
	C1418.713867,616.777954 1422.781494,616.777954 1426.773438,616.777954 
	C1426.773438,593.354980 1426.773438,570.316956 1426.773438,547.326904 
	C1422.308472,547.326904 1418.234131,547.326904 1413.696777,547.326904 
	C1413.696777,558.040283 1413.696777,568.425842 1413.696777,579.890198 
	C1411.739258,578.108337 1410.532349,577.092468 1409.418945,575.982971 
	C1401.516602,568.108948 1393.213013,560.582703 1385.893066,552.198486 
	C1381.062622,546.665527 1375.788574,546.308594 1369.477051,547.430786 
	C1369.477051,570.669556 1369.477051,593.718079 1369.477051,616.880371 
	C1374.056641,616.880371 1378.303223,616.880371 1383.084717,616.880371 
	C1383.084717,600.597473 1383.084717,584.586914 1383.084717,567.826355 
	C1392.668457,577.358887 1401.600098,586.242798 1411.043091,595.662720 
M1781.238281,605.472168 
	C1775.085083,605.549622 1768.929077,605.540405 1762.779419,605.732910 
	C1758.108887,605.879211 1756.185913,603.824585 1756.246948,599.143677 
	C1756.396973,587.659180 1756.294678,576.171387 1756.294067,564.684875 
	C1756.293701,558.894775 1756.293823,553.104614 1756.293823,547.294067 
	C1751.538574,547.294067 1747.299683,547.294067 1742.705200,547.294067 
	C1742.705200,565.891724 1742.680054,584.185425 1742.715088,602.478943 
	C1742.734619,612.718811 1748.006836,618.305054 1758.240112,618.589050 
	C1766.390869,618.815247 1774.557129,618.795959 1782.708740,618.586548 
	C1793.127686,618.318848 1798.581543,612.614563 1798.611572,602.207214 
	C1798.660034,585.393799 1798.635376,568.580139 1798.620239,551.766541 
	C1798.618896,550.307495 1798.458374,548.848511 1798.360352,547.198608 
	C1793.766968,547.198608 1789.490601,547.198608 1784.702637,547.198608 
	C1784.702637,549.126526 1784.702759,550.920715 1784.702759,552.714905 
	C1784.702759,568.030212 1784.802856,583.346985 1784.588379,598.659302 
	C1784.558105,600.822083 1782.991821,602.963440 1781.238281,605.472168 
M1330.719482,549.031982 
	C1330.719482,557.600098 1330.719482,566.168213 1330.719482,574.761658 
	C1320.708984,574.761658 1311.498291,574.761658 1301.786133,574.761658 
	C1301.786133,565.328430 1301.786133,556.262756 1301.786133,547.218628 
	C1297.163818,547.218628 1293.053711,547.218628 1288.785645,547.218628 
	C1288.785645,570.616028 1288.785645,593.781372 1288.785645,617.082031 
	C1293.321777,617.082031 1297.436035,617.082031 1302.138794,617.082031 
	C1302.138794,607.333252 1302.138794,597.786316 1302.138794,588.389404 
	C1311.956909,588.389404 1321.180786,588.389404 1330.894531,588.389404 
	C1330.894531,598.169983 1330.894531,607.580872 1330.894531,616.982239 
	C1335.657593,616.982239 1339.914917,616.982239 1344.348633,616.982239 
	C1344.348633,593.601929 1344.348633,570.539734 1344.348633,546.493042 
	C1339.598389,547.071228 1335.196167,547.606995 1330.719482,549.031982 
M1254.933716,569.628662 
	C1258.365356,569.628662 1261.796875,569.628662 1265.637207,569.628662 
	C1265.637207,566.775330 1265.650024,564.640015 1265.635010,562.504761 
	C1265.556641,551.352722 1260.187500,545.826294 1249.166504,545.718079 
	C1241.173340,545.639587 1233.173340,545.538086 1225.185913,545.773254 
	C1215.740601,546.051392 1210.186768,551.929993 1210.146484,561.424438 
	C1210.088623,575.080811 1210.104004,588.737671 1210.155151,602.394104 
	C1210.192017,612.208374 1215.632324,618.204163 1225.293823,618.551636 
	C1233.776245,618.856689 1242.285767,618.823608 1250.769897,618.539917 
	C1257.907837,618.301270 1263.389648,614.440979 1264.718262,608.489136 
	C1265.671021,604.221619 1265.516357,599.706909 1265.874878,595.054565 
	C1260.835449,595.054565 1256.631348,595.054565 1252.123413,595.054565 
	C1252.123413,596.559143 1252.141235,597.709839 1252.120361,598.859863 
	C1252.017212,604.570190 1251.034790,605.619751 1245.489502,605.675171 
	C1240.160889,605.728394 1234.830811,605.725586 1229.502197,605.665771 
	C1225.939453,605.625793 1223.967407,604.004028 1223.989990,600.158569 
	C1224.060303,588.167786 1224.060181,576.176086 1223.987793,564.185364 
	C1223.965088,560.430908 1225.611084,558.629089 1229.359985,558.645874 
	C1234.689087,558.669739 1240.018677,558.610779 1245.347778,558.641541 
	C1251.223267,558.675415 1251.833496,559.418152 1252.213867,565.215027 
	C1252.312012,566.709839 1253.415039,568.138550 1254.933716,569.628662 
M1491.141602,603.226135 
	C1491.499512,612.244385 1496.184814,617.874390 1505.016968,618.379272 
	C1514.304932,618.910278 1523.663940,618.810303 1532.961426,618.357605 
	C1539.671143,618.030884 1544.931152,613.529846 1545.792847,607.698120 
	C1546.407227,603.539734 1545.912109,599.217407 1545.912109,595.050903 
	C1541.533569,595.050903 1537.466919,595.050903 1533.129761,595.050903 
	C1533.129761,596.386658 1533.149170,597.371277 1533.126709,598.354919 
	C1532.983032,604.645142 1532.002930,605.657532 1525.890991,605.692749 
	C1520.728882,605.722534 1515.566406,605.701050 1510.404175,605.692383 
	C1506.734497,605.686218 1504.867310,603.869690 1504.868774,600.166626 
	C1504.873535,588.176880 1504.910889,576.186829 1504.846191,564.197449 
	C1504.824097,560.110596 1506.852905,558.521790 1510.728760,558.612976 
	C1514.223999,558.695251 1517.722412,558.633118 1521.219482,558.633240 
	C1532.072632,558.633667 1532.072632,558.633362 1533.643799,569.332642 
	C1537.657471,569.332642 1541.715820,569.332642 1546.303101,569.332642 
	C1546.303101,566.937988 1546.303345,564.807251 1546.303101,562.676575 
	C1546.301514,551.185059 1541.042236,545.786560 1529.664551,545.704102 
	C1522.171387,545.649780 1514.676880,545.636475 1507.183960,545.713562 
	C1496.757080,545.820740 1491.142822,551.484192 1491.131470,561.823914 
	C1491.116577,575.312378 1491.134766,588.800903 1491.141602,603.226135 
M1185.270630,559.006409 
	C1190.177490,558.695557 1190.997925,556.057007 1188.934082,547.364014 
	C1173.189087,547.364014 1157.465210,547.364014 1141.761475,547.364014 
	C1141.761475,570.787292 1141.761475,593.834717 1141.761475,617.008179 
	C1158.044922,617.008179 1173.952393,617.008179 1190.034912,617.008179 
	C1190.034912,612.804138 1190.034912,608.885681 1190.034912,604.447144 
	C1178.389404,604.447144 1166.980347,604.447144 1155.295410,604.447144 
	C1155.295410,598.509827 1155.295410,593.093262 1155.295410,587.225830 
	C1163.956543,587.225830 1172.389893,587.225830 1180.892090,587.225830 
	C1180.892090,583.246277 1180.892090,579.724731 1180.892090,575.752930 
	C1172.089233,575.752930 1163.671997,575.752930 1155.243164,575.752930 
	C1155.243164,570.024780 1155.243164,564.759521 1155.243164,559.006042 
	C1165.088501,559.006042 1174.702637,559.006042 1185.270630,559.006409 
M748.142944,604.480530 
	C748.142944,608.590271 748.142944,612.700012 748.142944,616.968567 
	C764.771912,616.968567 780.836914,616.968567 796.998657,616.968567 
	C796.998657,612.717102 796.998657,608.798157 796.998657,604.354614 
	C785.319580,604.354614 773.918152,604.354614 762.341003,604.354614 
	C762.341003,598.432434 762.341003,593.041687 762.341003,587.276245 
	C770.956970,587.276245 779.250061,587.276245 787.665222,587.276245 
	C787.665222,583.347839 787.665222,579.807312 787.665222,575.734497 
	C778.936829,575.734497 770.543274,575.734497 762.296143,575.734497 
	C762.296143,569.926941 762.296143,564.662048 762.296143,559.002014 
	C773.669983,559.002014 784.763306,559.002014 796.039185,559.002014 
	C796.039185,554.834229 796.039185,551.074036 796.039185,547.314880 
	C780.026733,547.314880 764.290588,547.314880 748.143066,547.314880 
	C748.143066,566.253357 748.143066,584.869690 748.142944,604.480530 
M662.790955,575.845093 
	C662.367004,570.382751 661.943054,564.920471 661.476990,558.915405 
	C673.518188,558.915405 684.584045,558.915405 695.657104,558.915405 
	C695.657104,554.690674 695.657104,550.973206 695.657104,547.379272 
	C679.593079,547.379272 663.882141,547.379272 648.302856,547.379272 
	C648.302856,570.830811 648.302856,593.891541 648.302856,616.929871 
	C664.661682,616.929871 680.705933,616.929871 696.692871,616.929871 
	C696.692871,612.644958 696.692871,608.729248 696.692871,604.225220 
	C685.006531,604.225220 673.622498,604.225220 662.135254,604.225220 
	C662.135254,598.363770 662.135254,593.104309 662.135254,587.204529 
	C670.784302,587.204529 679.171082,587.204529 687.501953,587.204529 
	C687.501953,583.144531 687.501953,579.735168 687.501953,575.968750 
	C679.350159,575.968750 671.546692,575.968750 662.790955,575.845093 
M2049.503418,559.009705 
	C2055.928711,559.009705 2062.354004,559.009705 2068.600586,559.009705 
	C2068.600586,554.573364 2068.600586,550.852844 2068.600586,547.269165 
	C2052.591064,547.269165 2036.994141,547.269165 2021.195068,547.269165 
	C2021.195068,570.641541 2021.195068,593.734924 2021.195068,616.924866 
	C2037.425293,616.924866 2053.483398,616.924866 2069.503418,616.924866 
	C2069.503418,612.637573 2069.503418,608.728333 2069.503418,604.184937 
	C2057.774170,604.184937 2046.388062,604.184937 2035.002930,604.184937 
	C2035.002930,598.287415 2035.002930,593.045349 2035.002930,587.194580 
	C2043.769653,587.194580 2052.171631,587.194580 2060.523682,587.194580 
	C2060.523682,583.155945 2060.523682,579.743225 2060.523682,575.835449 
	C2051.772705,575.835449 2043.351807,575.835449 2034.883789,575.835449 
	C2034.883789,570.061401 2034.883789,564.796143 2034.883789,559.009705 
	C2039.591675,559.009705 2044.049194,559.009705 2049.503418,559.009705 
M829.191345,606.797241 
	C830.670166,604.209839 831.941589,599.563965 833.663635,599.390503 
	C841.232605,598.627930 848.931702,599.157471 856.583618,599.218628 
	C858.627319,604.087585 860.674438,608.955017 862.710327,613.827209 
	C862.966064,614.439148 863.027649,615.183960 863.420410,615.673645 
	C863.895386,616.265808 864.615967,617.044800 865.250122,617.063293 
	C869.458557,617.186157 873.672302,617.126953 878.378052,617.126953 
	C870.116028,595.865784 862.164856,575.440063 854.243652,555.002747 
	C851.122498,546.949829 851.146851,547.144226 842.449402,546.890564 
	C838.959778,546.788757 837.532654,547.999756 836.438599,551.156982 
	C834.046570,558.059875 831.191772,564.801758 828.552429,571.619690 
	C822.756348,586.592285 816.976807,601.571289 811.041321,616.933838 
	C812.467285,617.088806 813.419678,617.258301 814.376282,617.286316 
	C825.133972,617.601562 825.134155,617.595642 829.191345,606.797241 
M1577.511230,614.069275 
	C1579.383911,609.111450 1581.256470,604.153625 1583.200195,599.007690 
	C1588.192627,599.007690 1593.007935,599.007996 1597.823120,599.007690 
	C1608.132690,599.007080 1608.133301,599.006714 1611.641357,608.436218 
	C1612.452148,610.615601 1613.082764,612.886658 1614.138306,614.939697 
	C1614.643188,615.921692 1615.909790,617.082275 1616.896729,617.145874 
	C1620.815186,617.398193 1624.759277,617.249634 1629.175659,617.249634 
	C1628.467407,615.182861 1628.043335,613.792542 1627.519775,612.440735 
	C1620.083008,593.236023 1612.618042,574.042053 1605.192261,554.833069 
	C1602.156250,546.979614 1602.185181,547.164612 1593.782227,546.898499 
	C1590.202759,546.785034 1588.604614,547.963989 1587.360840,551.297180 
	C1581.672241,566.543213 1575.685547,581.678040 1569.810181,596.854370 
	C1567.259521,603.442749 1564.718750,610.034851 1561.928589,617.259766 
	C1566.464233,617.259766 1570.274292,617.443848 1574.046265,617.145569 
	C1575.150391,617.058167 1576.145996,615.599426 1577.511230,614.069275 
M1976.697510,580.057739 
	C1974.911865,584.800354 1973.126099,589.542908 1970.922363,595.395630 
	C1969.875977,592.755737 1969.257812,591.304016 1968.720215,589.822998 
	C1964.012817,576.851379 1959.385132,563.849976 1954.536011,550.931641 
	C1953.957764,549.391357 1952.318604,547.353088 1950.956421,547.173462 
	C1947.083008,546.662659 1943.098511,546.994202 1938.781372,546.994202 
	C1939.181763,548.514099 1939.343384,549.479065 1939.685425,550.375244 
	C1947.747192,571.497559 1955.974243,592.558838 1963.779297,613.775513 
	C1965.291748,617.886719 1967.934692,617.260315 1970.820068,617.281067 
	C1973.924561,617.303345 1976.617065,617.705627 1978.171631,613.424011 
	C1984.922241,594.830627 1992.195190,576.426941 1999.263062,557.948547 
	C2000.591187,554.476257 2001.851318,550.978027 2003.328491,546.990295 
	C1999.217773,546.990295 1995.880005,547.212524 1992.586548,546.925415 
	C1989.526245,546.658691 1988.192139,547.878662 1987.229370,550.684448 
	C1983.938477,560.274719 1980.391235,569.777100 1976.697510,580.057739 
M609.499512,617.305054 
	C616.436890,617.305054 623.374207,617.305054 630.294434,617.305054 
	C630.294434,612.656860 630.294434,608.741455 630.294434,604.126831 
	C618.603760,604.126831 607.237305,604.126831 595.373840,604.126831 
	C595.373840,584.698853 595.373840,565.977478 595.373840,547.262634 
	C590.580322,547.262634 586.322571,547.262634 581.935669,547.262634 
	C581.935669,570.618530 581.935669,593.695679 581.935669,617.304321 
	C590.945984,617.304321 599.722778,617.304321 609.499512,617.305054 
M1656.309204,546.991150 
	C1653.215210,546.991150 1650.121094,546.991150 1647.005981,546.991150 
	C1647.005981,570.688843 1647.005981,593.748108 1647.005981,616.870056 
	C1663.316284,616.870056 1679.329224,616.870056 1695.226807,616.870056 
	C1695.226807,612.524536 1695.226807,608.624573 1695.226807,604.201782 
	C1683.599243,604.201782 1672.360229,604.201782 1660.609863,604.201782 
	C1660.609863,601.891968 1660.609619,600.098145 1660.609863,598.304260 
	C1660.612305,582.656982 1660.601685,567.009705 1660.631470,551.362427 
	C1660.636108,548.951660 1660.950806,546.445679 1656.309204,546.991150 
M1087.136475,598.499146 
	C1087.136475,604.607178 1087.136475,610.715271 1087.136475,616.996216 
	C1091.976562,616.996216 1096.239502,616.996216 1100.965210,616.996216 
	C1100.965210,597.614807 1100.965210,578.531006 1100.965210,558.851562 
	C1108.801025,558.851562 1116.188721,558.851562 1123.590820,558.851562 
	C1123.590820,554.655884 1123.590820,551.066772 1123.590820,547.261963 
	C1103.579590,547.261963 1083.857422,547.261963 1064.096924,547.261963 
	C1064.096924,551.274658 1064.096924,555.010620 1064.096924,559.173645 
	C1071.911621,559.173645 1079.342041,559.173645 1087.136597,559.173645 
	C1087.136597,572.240540 1087.136597,584.869995 1087.136475,598.499146 
M1023.634216,551.628662 
	C1023.540344,550.180908 1023.446411,548.733154 1023.354736,547.320190 
	C1003.231506,547.320190 983.517151,547.320190 963.793457,547.320190 
	C963.793457,551.362305 963.793457,555.065491 963.793457,559.248169 
	C971.613892,559.248169 979.021851,559.248169 986.991943,559.248169 
	C986.991943,578.763794 986.991943,597.797791 986.991943,616.771545 
	C991.797241,616.771545 996.012634,616.771545 1000.817627,616.771545 
	C1000.817627,597.365479 1000.817627,578.341553 1000.817627,558.878296 
	C1008.658936,558.878296 1015.907288,558.878296 1023.633789,558.878296 
	C1023.633789,556.467590 1023.633789,554.507141 1023.634216,551.628662 
M2403.920410,546.987793 
	C2401.922363,546.989258 2399.879395,547.261841 2397.935547,546.938293 
	C2393.242920,546.157410 2390.826660,548.342407 2388.731445,552.345276 
	C2384.732422,559.985596 2380.176758,567.334717 2375.532471,575.356995 
	C2370.563965,566.672363 2365.949463,558.447632 2361.133789,550.342407 
	C2360.315186,548.964600 2358.715088,547.287476 2357.335693,547.149475 
	C2353.146240,546.730286 2348.887939,546.997681 2343.831543,546.997681 
	C2351.804932,560.331177 2359.387939,572.801697 2366.698975,585.429626 
	C2368.032715,587.733093 2368.795166,590.658386 2368.893799,593.330750 
	C2369.179932,601.100525 2368.995117,608.887634 2368.995117,616.870972 
	C2373.560791,616.870972 2377.615479,616.870972 2382.156982,616.870972 
	C2382.156982,611.637024 2382.551758,606.643799 2382.069580,601.736816 
	C2381.234131,593.235352 2383.433105,585.923401 2388.168945,578.809265 
	C2394.336914,569.543701 2399.739014,559.766113 2405.377441,550.154236 
	C2405.933105,549.207092 2408.515137,547.323059 2403.920410,546.987793 
M2303.500000,546.989807 
	C2293.744385,546.989807 2283.988770,546.989807 2274.398193,546.989807 
	C2274.398193,551.421265 2274.398193,555.141602 2274.398193,559.184204 
	C2282.083984,559.184204 2289.364502,559.184204 2297.130371,559.184204 
	C2297.130371,578.588318 2297.130371,597.665161 2297.130371,617.012573 
	C2301.895752,617.012573 2306.164307,617.012573 2310.918945,617.012573 
	C2310.918945,597.660278 2310.918945,578.586548 2310.918945,558.902832 
	C2318.770508,558.902832 2326.156250,558.902832 2333.598633,558.902832 
	C2333.598633,554.692078 2333.598633,551.101501 2333.598633,546.989807 
	C2323.729004,546.989807 2314.114502,546.989807 2303.500000,546.989807 
M1920.300049,567.500488 
	C1920.300049,560.747559 1920.300049,553.994690 1920.300049,547.299561 
	C1915.314331,547.299561 1911.060669,547.299561 1906.676758,547.299561 
	C1906.676758,570.680054 1906.676758,593.744019 1906.676758,616.896851 
	C1911.378296,616.896851 1915.749023,616.896851 1920.299438,616.896851 
	C1920.299438,600.487427 1920.299438,584.493958 1920.300049,567.500488 
M2255.857422,610.332764 
	C2255.857422,589.293884 2255.857422,568.255005 2255.857422,547.219604 
	C2250.758545,547.219604 2246.469238,547.219604 2241.987793,547.219604 
	C2241.987793,570.534485 2241.987793,593.616821 2241.987793,616.998291 
	C2246.663330,616.998291 2251.068359,616.998291 2255.857178,616.998291 
	C2255.857178,614.894104 2255.857178,613.086182 2255.857422,610.332764 
M393.861237,603.490479 
	C393.861237,584.737671 393.861237,565.984802 393.861237,547.272888 
	C388.824585,547.272888 384.553894,547.272888 380.089752,547.272888 
	C380.089752,570.635071 380.089752,593.713318 380.089752,616.849792 
	C384.732422,616.849792 389.116577,616.849792 393.861145,616.849792 
	C393.861145,612.434326 393.861145,608.460205 393.861237,603.490479 
M1466.861084,607.457397 
	C1466.861084,587.406189 1466.861084,567.354919 1466.861084,547.267944 
	C1461.891113,547.267944 1457.643433,547.267944 1453.236084,547.267944 
	C1453.236084,570.575317 1453.236084,593.604248 1453.236084,616.757202 
	C1457.836548,616.757202 1462.182495,616.757202 1466.860962,616.757202 
	C1466.860962,613.716919 1466.860962,611.079773 1466.861084,607.457397 
z"/>
<path fill="#E31A38" opacity="1.000000" stroke="none" 
	d="
M1404.001953,242.896225 
	C1425.197388,248.626205 1442.993286,260.104828 1457.290405,276.444824 
	C1487.349365,310.798553 1496.164673,350.507050 1481.744629,393.698517 
	C1467.310791,436.931122 1436.255981,463.205963 1391.586426,472.428741 
	C1381.632812,474.483826 1371.080811,473.641235 1360.315918,473.654968 
	C1356.171997,471.914948 1352.516724,470.652679 1349.994629,469.781738 
	C1350.821045,465.757446 1351.921143,462.887848 1351.925171,460.016693 
	C1352.021484,391.695587 1351.987793,323.374298 1352.043213,255.053085 
	C1352.045532,252.200378 1352.680176,249.348175 1353.052490,246.224823 
	C1358.955200,249.093369 1360.871826,248.652786 1362.426758,244.733627 
	C1363.173218,244.937286 1363.584595,245.110321 1364.006470,245.623550 
	C1365.180420,246.243942 1366.343750,246.524124 1367.854736,246.832367 
	C1412.486084,266.989594 1438.374512,301.356445 1440.351807,349.775360 
	C1442.779541,409.217987 1412.212036,448.394714 1357.248047,470.102478 
	C1368.392944,471.740753 1379.109131,471.104187 1389.808838,469.179138 
	C1435.354980,460.984802 1471.680420,426.299713 1481.768066,381.351776 
	C1491.886475,336.266418 1474.191406,289.218140 1436.131470,262.729401 
	C1426.306396,255.891464 1414.747559,251.544968 1403.989746,245.659302 
	C1403.996826,244.475143 1403.999390,243.685684 1404.001953,242.896225 
z"/>
<path fill="#E31A38" opacity="1.000000" stroke="none" 
	d="
M1362.091431,244.703003 
	C1360.871826,248.652786 1358.955200,249.093369 1353.052490,246.224823 
	C1352.680176,249.348175 1352.045532,252.200378 1352.043213,255.053085 
	C1351.987793,323.374298 1352.021484,391.695587 1351.925171,460.016693 
	C1351.921143,462.887848 1350.821045,465.757446 1349.994629,469.781738 
	C1352.516724,470.652679 1356.171997,471.914948 1359.913086,473.549744 
	C1344.144897,470.695435 1328.394165,475.461670 1312.469360,474.295288 
	C1261.035889,470.528076 1215.313721,429.981873 1206.047241,379.083557 
	C1194.023193,313.038147 1235.107178,252.407227 1300.797119,239.584030 
	C1315.266235,236.759552 1329.868286,236.691025 1344.412598,239.760834 
	C1346.213501,240.140945 1348.244385,239.431412 1350.443237,239.465103 
	C1350.478516,240.134995 1350.239258,240.566559 1349.609375,240.998749 
	C1348.177246,240.990250 1347.135742,240.981125 1345.702393,240.787628 
	C1344.156494,240.771576 1342.982666,240.855347 1341.851196,241.120224 
	C1275.195679,256.724152 1235.181763,328.807556 1257.703369,393.503662 
	C1272.390747,435.694550 1302.543335,461.118408 1345.757812,472.206665 
	C1345.905640,469.560974 1346.032959,467.280670 1346.572998,464.997101 
	C1351.336426,465.076569 1349.949951,461.756836 1349.951660,459.615845 
	C1350.009766,386.744537 1350.000000,313.873169 1350.289185,241.139282 
	C1351.475830,241.768158 1352.373169,242.259552 1353.796753,243.039047 
	C1353.445557,241.240311 1353.234009,240.156845 1353.022461,239.073395 
	C1355.395142,238.724243 1357.767700,238.375092 1360.331421,238.323425 
	C1359.681274,239.662262 1358.839966,240.703629 1357.770264,241.875122 
	C1357.401733,242.074051 1357.223145,242.111160 1357.132446,242.220932 
	C1357.048706,242.322189 1357.009888,242.619003 1357.035156,242.629608 
	C1358.715210,243.333679 1360.403687,244.017456 1362.091431,244.703003 
z"/>
<path fill="#727276" opacity="1.000000" stroke="none" 
	d="
M284.841858,588.000000 
	C284.841766,574.203979 284.841766,560.908020 284.841766,547.695374 
	C294.017273,545.844543 294.191254,545.984131 298.151337,553.744690 
	C305.102600,567.367065 312.132324,580.949402 319.518402,595.304993 
	C323.667572,587.304443 327.525269,579.892517 331.357635,572.467590 
	C334.485596,566.407410 337.571716,560.325745 340.697357,554.264404 
	C344.669800,546.560852 344.678955,546.565552 353.783813,547.276794 
	C353.783813,570.295349 353.783813,593.347717 353.783813,616.780762 
	C349.806915,616.780762 345.767517,616.780762 341.304443,616.780762 
	C341.304443,605.400208 341.304443,594.142334 341.304443,582.884460 
	C340.965759,582.762451 340.627075,582.640503 340.288391,582.518494 
	C339.494629,584.020691 338.675995,585.510254 337.911255,587.027039 
	C333.492432,595.791382 329.210754,604.628906 324.568237,613.272766 
	C323.665558,614.953491 321.553009,616.386597 319.684021,617.056580 
	C316.486084,618.203064 315.530609,615.424866 314.393097,613.164673 
	C309.267456,602.980408 304.089264,592.822571 298.102905,582.859680 
	C298.102905,594.054810 298.102905,605.250000 298.102905,616.799927 
	C293.642517,616.799927 289.589844,616.799927 284.841919,616.799927 
	C284.841919,607.356384 284.841919,597.928223 284.841858,588.000000 
z"/>
<path fill="#757478" opacity="1.000000" stroke="none" 
	d="
M539.905396,546.985229 
	C552.984253,547.009399 558.011536,551.967712 558.013794,564.378052 
	C558.016052,577.192566 558.087708,590.007751 557.983154,602.821411 
	C557.921448,610.371460 553.042664,616.646362 545.854004,616.878174 
	C530.930115,617.359314 515.979980,617.023438 500.701843,617.023438 
	C500.701843,593.794678 500.701843,570.760315 500.701843,546.985229 
	C513.629211,546.985229 526.525391,546.985229 539.905396,546.985229 
M520.587402,604.365601 
	C526.571533,604.369446 532.555725,604.371277 538.539856,604.377869 
	C541.757935,604.381470 544.129028,603.393372 544.128662,599.622498 
	C544.127686,587.986633 544.255981,576.347595 543.968628,564.718750 
	C543.928833,563.108337 541.889465,560.231812 540.674438,560.176697 
	C531.964844,559.781982 523.229004,559.965759 514.462585,559.965759 
	C514.462585,575.026184 514.462585,589.411804 514.462585,604.365967 
	C516.381042,604.365967 517.998047,604.365967 520.587402,604.365601 
z"/>
<path fill="#747377" opacity="1.000000" stroke="none" 
	d="
M461.705078,546.989807 
	C471.607574,547.705688 476.821289,553.123535 476.852356,562.408264 
	C476.896942,575.728577 476.914307,589.049438 476.840546,602.369507 
	C476.798431,609.971497 472.010132,616.575012 465.069641,616.806519 
	C449.967773,617.310364 434.837463,616.962036 419.426697,616.962036 
	C419.426697,593.768982 419.426697,570.717773 419.426697,546.989075 
	C433.408966,546.989075 447.326416,546.989075 461.705078,546.989807 
M462.988068,598.160767 
	C462.987396,587.338745 463.156036,576.511597 462.829102,565.699463 
	C462.770630,563.765808 460.748779,560.317749 459.485138,560.247803 
	C450.771851,559.765320 442.019165,559.993958 433.279907,559.993958 
	C433.279907,575.033325 433.279907,589.452820 433.279907,604.312927 
	C441.990326,604.312927 450.452209,604.560059 458.872345,604.078003 
	C460.334198,603.994324 461.619659,600.828796 462.988068,598.160767 
z"/>
<path fill="#747477" opacity="1.000000" stroke="none" 
	d="
M2210.571289,616.783386 
	C2204.815918,617.517944 2199.410156,618.247742 2193.980225,618.579407 
	C2189.666260,618.842834 2185.322021,618.661560 2180.991943,618.604004 
	C2169.508789,618.451355 2164.147461,613.065674 2164.134766,601.727844 
	C2164.132812,599.906372 2164.134521,598.084961 2164.134521,595.817322 
	C2168.434082,595.817322 2172.487793,595.817322 2176.644531,595.817322 
	C2176.736328,595.954712 2177.052490,596.214294 2177.083252,596.504089 
	C2178.059570,605.697876 2178.055176,605.699768 2187.648193,605.701782 
	C2190.979492,605.702515 2194.311035,605.660400 2197.641846,605.699646 
	C2201.069336,605.740051 2203.945557,605.284607 2204.381836,600.919739 
	C2205.106445,593.673462 2204.305420,591.687683 2199.343994,590.329224 
	C2191.327637,588.134399 2183.285645,586.033264 2175.255127,583.889465 
	C2166.672363,581.598206 2164.123779,578.260620 2164.133057,569.333191 
	C2164.136475,566.168579 2164.051025,563.000854 2164.160645,559.839905 
	C2164.422363,552.298767 2169.695557,546.280884 2177.162842,545.943848 
	C2186.301514,545.531494 2195.485596,545.510010 2204.624512,545.904846 
	C2212.753418,546.255981 2217.892334,552.220581 2218.007080,560.412903 
	C2218.043945,563.042786 2218.012939,565.673584 2218.012939,568.575012 
	C2213.643311,568.575012 2209.719482,568.575012 2205.773926,568.575012 
	C2205.581055,568.336365 2205.230713,568.105042 2205.205322,567.842163 
	C2204.309814,558.631409 2204.314209,558.630798 2195.153564,558.630127 
	C2191.989014,558.629883 2188.823975,558.607910 2185.659668,558.637085 
	C2182.180420,558.669128 2178.412109,558.081970 2177.701660,563.172913 
	C2176.688721,570.429688 2177.710938,572.483643 2183.551270,574.060486 
	C2191.092529,576.096497 2198.636719,578.121460 2206.186768,580.124146 
	C2215.577637,582.615112 2218.011719,585.807922 2218.012451,595.720337 
	C2218.012451,598.052185 2217.905029,600.389893 2218.032959,602.714661 
	C2218.365479,608.760376 2216.004639,613.370667 2210.571289,616.783386 
z"/>
<path fill="#747477" opacity="1.000000" stroke="none" 
	d="
M939.658691,581.152893 
	C945.652527,583.597290 948.033264,587.923157 947.881287,593.878235 
	C947.800598,597.040527 947.889587,600.206665 947.858459,603.370667 
	C947.773987,611.965454 942.960205,617.800110 934.373779,618.313232 
	C925.421326,618.848206 916.383667,618.860352 907.434631,618.292358 
	C898.831116,617.746338 894.084167,611.936462 893.990540,603.326477 
	C893.963745,600.860168 893.986511,598.393250 893.986511,595.654053 
	C898.358459,595.654053 902.287659,595.654053 906.188416,595.654053 
	C906.419861,595.941162 906.768494,596.171875 906.792419,596.432495 
	C907.645691,605.699585 907.641479,605.700623 917.344604,605.702515 
	C921.008484,605.703247 924.672852,605.665039 928.336182,605.708313 
	C932.188721,605.753784 934.092163,604.145142 934.181152,600.052917 
	C934.360840,591.790588 934.488708,591.807983 926.426208,589.636230 
	C918.723328,587.561401 911.007080,585.531494 903.339050,583.334045 
	C896.826477,581.467651 894.072632,577.717896 893.994568,570.985535 
	C893.952148,567.322083 893.913513,563.656067 893.999695,559.994202 
	C894.188782,551.958252 899.609802,546.153931 907.821350,545.854187 
	C916.468323,545.538635 925.144226,545.554932 933.792419,545.856995 
	C942.512512,546.161621 947.756897,551.965027 947.858398,560.734253 
	C947.887024,563.206116 947.862671,565.678650 947.862671,568.504028 
	C943.432007,568.504028 939.366943,568.504028 935.302734,568.504028 
	C933.431030,558.629578 933.431030,558.629272 922.680481,558.630371 
	C919.516174,558.630676 916.351318,558.672485 913.187805,558.625122 
	C909.511414,558.570068 907.761658,560.206726 907.587463,564.000610 
	C907.211670,572.183899 907.276855,572.419373 915.217957,574.559448 
	C923.242004,576.721863 931.267761,578.878174 939.658691,581.152893 
z"/>
<path fill="#737376" opacity="1.000000" stroke="none" 
	d="
M1880.841797,614.675049 
	C1880.252075,615.795166 1879.696533,616.987915 1879.087402,617.015930 
	C1875.298828,617.190308 1871.498291,617.103821 1867.140503,617.103821 
	C1867.140503,611.704346 1867.245239,606.599182 1867.076660,601.503113 
	C1867.026001,599.970154 1866.664062,598.027710 1865.681274,597.011047 
	C1856.772461,587.796448 1847.697510,578.742188 1838.650391,569.661743 
	C1838.352783,569.363037 1837.833984,569.284607 1836.700684,568.790771 
	C1836.700684,585.050232 1836.700684,600.883667 1836.700684,616.998169 
	C1831.795654,616.998169 1827.543823,616.998169 1823.085693,616.998169 
	C1823.085693,593.677795 1823.085693,570.605225 1823.085693,547.481995 
	C1829.710205,545.990051 1834.873901,547.129517 1839.611328,552.429016 
	C1847.034058,560.732361 1855.256226,568.321899 1863.158569,576.194946 
	C1864.151001,577.183655 1865.257202,578.058044 1867.084106,579.666260 
	C1867.084106,568.306885 1867.084106,557.933533 1867.084106,547.280029 
	C1871.819580,547.280029 1876.051880,547.280029 1880.851318,547.280029 
	C1880.851318,569.692932 1880.851318,591.951050 1880.841797,614.675049 
z"/>
<path fill="#737376" opacity="1.000000" stroke="none" 
	d="
M2140.684814,559.699219 
	C2140.795166,564.788147 2140.710205,569.455139 2140.885498,574.112305 
	C2141.199219,582.442383 2138.372070,588.730103 2129.427734,591.634705 
	C2135.339355,600.054016 2141.048828,608.185791 2147.373291,617.193115 
	C2142.054199,617.193115 2137.508789,617.414917 2133.010010,617.052795 
	C2131.724365,616.949341 2130.309814,615.345154 2129.408447,614.100220 
	C2125.407715,608.573242 2121.231934,603.127197 2117.779297,597.263306 
	C2114.745605,592.110779 2110.850342,590.703796 2104.934570,592.471863 
	C2104.934570,600.402893 2104.934570,608.492065 2104.934570,616.934387 
	C2100.195068,616.934387 2095.939941,616.934387 2091.335449,616.934387 
	C2091.335449,593.872742 2091.335449,570.818054 2091.335449,546.991272 
	C2096.074707,546.991272 2100.994141,546.991638 2105.913574,546.991150 
	C2112.242920,546.990540 2118.572754,546.956726 2124.901855,546.996033 
	C2133.779541,547.051147 2138.250732,550.571777 2140.684814,559.699219 
M2116.298828,580.847534 
	C2117.293701,580.846130 2118.291016,580.889282 2119.282959,580.835144 
	C2122.745361,580.646179 2126.624268,580.063110 2126.775146,575.942505 
	C2126.971191,570.583923 2129.308594,564.632996 2124.400635,560.003723 
	C2123.746582,559.386597 2122.602539,559.019165 2121.677490,559.003418 
	C2116.254150,558.911377 2110.828613,558.958191 2105.185547,558.958191 
	C2105.185547,566.383972 2105.185547,573.391602 2105.185547,580.847412 
	C2108.793945,580.847412 2112.076904,580.847412 2116.298828,580.847534 
z"/>
<path fill="#727276" opacity="1.000000" stroke="none" 
	d="
M1410.787354,595.394653 
	C1401.600098,586.242798 1392.668457,577.358887 1383.084717,567.826355 
	C1383.084717,584.586914 1383.084717,600.597473 1383.084717,616.880371 
	C1378.303223,616.880371 1374.056641,616.880371 1369.477051,616.880371 
	C1369.477051,593.718079 1369.477051,570.669556 1369.477051,547.430786 
	C1375.788574,546.308594 1381.062622,546.665527 1385.893066,552.198486 
	C1393.213013,560.582703 1401.516602,568.108948 1409.418945,575.982971 
	C1410.532349,577.092468 1411.739258,578.108337 1413.696777,579.890198 
	C1413.696777,568.425842 1413.696777,558.040283 1413.696777,547.326904 
	C1418.234131,547.326904 1422.308472,547.326904 1426.773438,547.326904 
	C1426.773438,570.316956 1426.773438,593.354980 1426.773438,616.777954 
	C1422.781494,616.777954 1418.713867,616.777954 1413.841309,616.777954 
	C1413.841309,612.164246 1414.141846,607.385437 1413.715942,602.672302 
	C1413.499390,600.274841 1411.975830,597.995483 1410.787354,595.394653 
z"/>
<path fill="#747377" opacity="1.000000" stroke="none" 
	d="
M1781.687378,605.293457 
	C1782.991821,602.963440 1784.558105,600.822083 1784.588379,598.659302 
	C1784.802856,583.346985 1784.702759,568.030212 1784.702759,552.714905 
	C1784.702759,550.920715 1784.702637,549.126526 1784.702637,547.198608 
	C1789.490601,547.198608 1793.766968,547.198608 1798.360352,547.198608 
	C1798.458374,548.848511 1798.618896,550.307495 1798.620239,551.766541 
	C1798.635376,568.580139 1798.660034,585.393799 1798.611572,602.207214 
	C1798.581543,612.614563 1793.127686,618.318848 1782.708740,618.586548 
	C1774.557129,618.795959 1766.390869,618.815247 1758.240112,618.589050 
	C1748.006836,618.305054 1742.734619,612.718811 1742.715088,602.478943 
	C1742.680054,584.185425 1742.705200,565.891724 1742.705200,547.294067 
	C1747.299683,547.294067 1751.538574,547.294067 1756.293823,547.294067 
	C1756.293823,553.104614 1756.293701,558.894775 1756.294067,564.684875 
	C1756.294678,576.171387 1756.396973,587.659180 1756.246948,599.143677 
	C1756.185913,603.824585 1758.108887,605.879211 1762.779419,605.732910 
	C1768.929077,605.540405 1775.085083,605.549622 1781.687378,605.293457 
z"/>
<path fill="#737376" opacity="1.000000" stroke="none" 
	d="
M1330.756714,548.587402 
	C1335.196167,547.606995 1339.598389,547.071228 1344.348633,546.493042 
	C1344.348633,570.539734 1344.348633,593.601929 1344.348633,616.982239 
	C1339.914917,616.982239 1335.657593,616.982239 1330.894531,616.982239 
	C1330.894531,607.580872 1330.894531,598.169983 1330.894531,588.389404 
	C1321.180786,588.389404 1311.956909,588.389404 1302.138794,588.389404 
	C1302.138794,597.786316 1302.138794,607.333252 1302.138794,617.082031 
	C1297.436035,617.082031 1293.321777,617.082031 1288.785645,617.082031 
	C1288.785645,593.781372 1288.785645,570.616028 1288.785645,547.218628 
	C1293.053711,547.218628 1297.163818,547.218628 1301.786133,547.218628 
	C1301.786133,556.262756 1301.786133,565.328430 1301.786133,574.761658 
	C1311.498291,574.761658 1320.708984,574.761658 1330.719482,574.761658 
	C1330.719482,566.168213 1330.719482,557.600098 1330.756714,548.587402 
z"/>
<path fill="#757478" opacity="1.000000" stroke="none" 
	d="
M1254.495117,569.613159 
	C1253.415039,568.138550 1252.312012,566.709839 1252.213867,565.215027 
	C1251.833496,559.418152 1251.223267,558.675415 1245.347778,558.641541 
	C1240.018677,558.610779 1234.689087,558.669739 1229.359985,558.645874 
	C1225.611084,558.629089 1223.965088,560.430908 1223.987793,564.185364 
	C1224.060181,576.176086 1224.060303,588.167786 1223.989990,600.158569 
	C1223.967407,604.004028 1225.939453,605.625793 1229.502197,605.665771 
	C1234.830811,605.725586 1240.160889,605.728394 1245.489502,605.675171 
	C1251.034790,605.619751 1252.017212,604.570190 1252.120361,598.859863 
	C1252.141235,597.709839 1252.123413,596.559143 1252.123413,595.054565 
	C1256.631348,595.054565 1260.835449,595.054565 1265.874878,595.054565 
	C1265.516357,599.706909 1265.671021,604.221619 1264.718262,608.489136 
	C1263.389648,614.440979 1257.907837,618.301270 1250.769897,618.539917 
	C1242.285767,618.823608 1233.776245,618.856689 1225.293823,618.551636 
	C1215.632324,618.204163 1210.192017,612.208374 1210.155151,602.394104 
	C1210.104004,588.737671 1210.088623,575.080811 1210.146484,561.424438 
	C1210.186768,551.929993 1215.740601,546.051392 1225.185913,545.773254 
	C1233.173340,545.538086 1241.173340,545.639587 1249.166504,545.718079 
	C1260.187500,545.826294 1265.556641,551.352722 1265.635010,562.504761 
	C1265.650024,564.640015 1265.637207,566.775330 1265.637207,569.628662 
	C1261.796875,569.628662 1258.365356,569.628662 1254.495117,569.613159 
z"/>
<path fill="#757478" opacity="1.000000" stroke="none" 
	d="
M1491.140137,602.757751 
	C1491.134766,588.800903 1491.116577,575.312378 1491.131470,561.823914 
	C1491.142822,551.484192 1496.757080,545.820740 1507.183960,545.713562 
	C1514.676880,545.636475 1522.171387,545.649780 1529.664551,545.704102 
	C1541.042236,545.786560 1546.301514,551.185059 1546.303101,562.676575 
	C1546.303345,564.807251 1546.303101,566.937988 1546.303101,569.332642 
	C1541.715820,569.332642 1537.657471,569.332642 1533.643799,569.332642 
	C1532.072632,558.633362 1532.072632,558.633667 1521.219482,558.633240 
	C1517.722412,558.633118 1514.223999,558.695251 1510.728760,558.612976 
	C1506.852905,558.521790 1504.824097,560.110596 1504.846191,564.197449 
	C1504.910889,576.186829 1504.873535,588.176880 1504.868774,600.166626 
	C1504.867310,603.869690 1506.734497,605.686218 1510.404175,605.692383 
	C1515.566406,605.701050 1520.728882,605.722534 1525.890991,605.692749 
	C1532.002930,605.657532 1532.983032,604.645142 1533.126709,598.354919 
	C1533.149170,597.371277 1533.129761,596.386658 1533.129761,595.050903 
	C1537.466919,595.050903 1541.533569,595.050903 1545.912109,595.050903 
	C1545.912109,599.217407 1546.407227,603.539734 1545.792847,607.698120 
	C1544.931152,613.529846 1539.671143,618.030884 1532.961426,618.357605 
	C1523.663940,618.810303 1514.304932,618.910278 1505.016968,618.379272 
	C1496.184814,617.874390 1491.499512,612.244385 1491.140137,602.757751 
z"/>
<path fill="#727276" opacity="1.000000" stroke="none" 
	d="
M1184.793701,559.006226 
	C1174.702637,559.006042 1165.088501,559.006042 1155.243164,559.006042 
	C1155.243164,564.759521 1155.243164,570.024780 1155.243164,575.752930 
	C1163.671997,575.752930 1172.089233,575.752930 1180.892090,575.752930 
	C1180.892090,579.724731 1180.892090,583.246277 1180.892090,587.225830 
	C1172.389893,587.225830 1163.956543,587.225830 1155.295410,587.225830 
	C1155.295410,593.093262 1155.295410,598.509827 1155.295410,604.447144 
	C1166.980347,604.447144 1178.389404,604.447144 1190.034912,604.447144 
	C1190.034912,608.885681 1190.034912,612.804138 1190.034912,617.008179 
	C1173.952393,617.008179 1158.044922,617.008179 1141.761475,617.008179 
	C1141.761475,593.834717 1141.761475,570.787292 1141.761475,547.364014 
	C1157.465210,547.364014 1173.189087,547.364014 1188.934082,547.364014 
	C1190.997925,556.057007 1190.177490,558.695557 1184.793701,559.006226 
z"/>
<path fill="#737376" opacity="1.000000" stroke="none" 
	d="
M748.143005,603.983276 
	C748.143066,584.869690 748.143066,566.253357 748.143066,547.314880 
	C764.290588,547.314880 780.026733,547.314880 796.039185,547.314880 
	C796.039185,551.074036 796.039185,554.834229 796.039185,559.002014 
	C784.763306,559.002014 773.669983,559.002014 762.296143,559.002014 
	C762.296143,564.662048 762.296143,569.926941 762.296143,575.734497 
	C770.543274,575.734497 778.936829,575.734497 787.665222,575.734497 
	C787.665222,579.807312 787.665222,583.347839 787.665222,587.276245 
	C779.250061,587.276245 770.956970,587.276245 762.341003,587.276245 
	C762.341003,593.041687 762.341003,598.432434 762.341003,604.354614 
	C773.918152,604.354614 785.319580,604.354614 796.998657,604.354614 
	C796.998657,608.798157 796.998657,612.717102 796.998657,616.968567 
	C780.836914,616.968567 764.771912,616.968567 748.142944,616.968567 
	C748.142944,612.700012 748.142944,608.590271 748.143005,603.983276 
z"/>
<path fill="#737276" opacity="1.000000" stroke="none" 
	d="
M663.267090,575.906921 
	C671.546692,575.968750 679.350159,575.968750 687.501953,575.968750 
	C687.501953,579.735168 687.501953,583.144531 687.501953,587.204529 
	C679.171082,587.204529 670.784302,587.204529 662.135254,587.204529 
	C662.135254,593.104309 662.135254,598.363770 662.135254,604.225220 
	C673.622498,604.225220 685.006531,604.225220 696.692871,604.225220 
	C696.692871,608.729248 696.692871,612.644958 696.692871,616.929871 
	C680.705933,616.929871 664.661682,616.929871 648.302856,616.929871 
	C648.302856,593.891541 648.302856,570.830811 648.302856,547.379272 
	C663.882141,547.379272 679.593079,547.379272 695.657104,547.379272 
	C695.657104,550.973206 695.657104,554.690674 695.657104,558.915405 
	C684.584045,558.915405 673.518188,558.915405 661.476990,558.915405 
	C661.943054,564.920471 662.367004,570.382751 663.267090,575.906921 
z"/>
<path fill="#737376" opacity="1.000000" stroke="none" 
	d="
M2049.005127,559.009705 
	C2044.049194,559.009705 2039.591675,559.009705 2034.883789,559.009705 
	C2034.883789,564.796143 2034.883789,570.061401 2034.883789,575.835449 
	C2043.351807,575.835449 2051.772705,575.835449 2060.523682,575.835449 
	C2060.523682,579.743225 2060.523682,583.155945 2060.523682,587.194580 
	C2052.171631,587.194580 2043.769653,587.194580 2035.002930,587.194580 
	C2035.002930,593.045349 2035.002930,598.287415 2035.002930,604.184937 
	C2046.388062,604.184937 2057.774170,604.184937 2069.503418,604.184937 
	C2069.503418,608.728333 2069.503418,612.637573 2069.503418,616.924866 
	C2053.483398,616.924866 2037.425293,616.924866 2021.195068,616.924866 
	C2021.195068,593.734924 2021.195068,570.641541 2021.195068,547.269165 
	C2036.994141,547.269165 2052.591064,547.269165 2068.600586,547.269165 
	C2068.600586,550.852844 2068.600586,554.573364 2068.600586,559.009705 
	C2062.354004,559.009705 2055.928711,559.009705 2049.005127,559.009705 
z"/>
<path fill="#737276" opacity="1.000000" stroke="none" 
	d="
M829.075684,607.173340 
	C825.134155,617.595642 825.133972,617.601562 814.376282,617.286316 
	C813.419678,617.258301 812.467285,617.088806 811.041321,616.933838 
	C816.976807,601.571289 822.756348,586.592285 828.552429,571.619690 
	C831.191772,564.801758 834.046570,558.059875 836.438599,551.156982 
	C837.532654,547.999756 838.959778,546.788757 842.449402,546.890564 
	C851.146851,547.144226 851.122498,546.949829 854.243652,555.002747 
	C862.164856,575.440063 870.116028,595.865784 878.378052,617.126953 
	C873.672302,617.126953 869.458557,617.186157 865.250122,617.063293 
	C864.615967,617.044800 863.895386,616.265808 863.420410,615.673645 
	C863.027649,615.183960 862.966064,614.439148 862.710327,613.827209 
	C860.674438,608.955017 858.627319,604.087585 856.583618,599.218628 
	C848.931702,599.157471 841.232605,598.627930 833.663635,599.390503 
	C831.941589,599.563965 830.670166,604.209839 829.075684,607.173340 
M838.782959,580.224670 
	C837.868591,582.668213 836.954224,585.111755 835.966309,587.751892 
	C841.908264,587.751892 847.324219,587.751892 853.346375,587.751892 
	C850.444763,580.006470 847.700378,572.680664 844.626099,564.474121 
	C842.493347,570.162720 840.747681,574.819031 838.782959,580.224670 
z"/>
<path fill="#737276" opacity="1.000000" stroke="none" 
	d="
M1577.351318,614.419250 
	C1576.145996,615.599426 1575.150391,617.058167 1574.046265,617.145569 
	C1570.274292,617.443848 1566.464233,617.259766 1561.928589,617.259766 
	C1564.718750,610.034851 1567.259521,603.442749 1569.810181,596.854370 
	C1575.685547,581.678040 1581.672241,566.543213 1587.360840,551.297180 
	C1588.604614,547.963989 1590.202759,546.785034 1593.782227,546.898499 
	C1602.185181,547.164612 1602.156250,546.979614 1605.192261,554.833069 
	C1612.618042,574.042053 1620.083008,593.236023 1627.519775,612.440735 
	C1628.043335,613.792542 1628.467407,615.182861 1629.175659,617.249634 
	C1624.759277,617.249634 1620.815186,617.398193 1616.896729,617.145874 
	C1615.909790,617.082275 1614.643188,615.921692 1614.138306,614.939697 
	C1613.082764,612.886658 1612.452148,610.615601 1611.641357,608.436218 
	C1608.133301,599.006714 1608.132690,599.007080 1597.823120,599.007690 
	C1593.007935,599.007996 1588.192627,599.007690 1583.200195,599.007690 
	C1581.256470,604.153625 1579.383911,609.111450 1577.351318,614.419250 
M1590.006714,579.478577 
	C1589.044800,582.188049 1588.082764,584.897461 1587.108887,587.640259 
	C1593.056152,587.640259 1598.426758,587.640259 1604.281616,587.640259 
	C1601.397949,579.902100 1598.692993,572.643555 1595.657715,564.498596 
	C1593.614746,569.860840 1591.924194,574.297913 1590.006714,579.478577 
z"/>
<path fill="#737376" opacity="1.000000" stroke="none" 
	d="
M1976.819702,579.685425 
	C1980.391235,569.777100 1983.938477,560.274719 1987.229370,550.684448 
	C1988.192139,547.878662 1989.526245,546.658691 1992.586548,546.925415 
	C1995.880005,547.212524 1999.217773,546.990295 2003.328491,546.990295 
	C2001.851318,550.978027 2000.591187,554.476257 1999.263062,557.948547 
	C1992.195190,576.426941 1984.922241,594.830627 1978.171631,613.424011 
	C1976.617065,617.705627 1973.924561,617.303345 1970.820068,617.281067 
	C1967.934692,617.260315 1965.291748,617.886719 1963.779297,613.775513 
	C1955.974243,592.558838 1947.747192,571.497559 1939.685425,550.375244 
	C1939.343384,549.479065 1939.181763,548.514099 1938.781372,546.994202 
	C1943.098511,546.994202 1947.083008,546.662659 1950.956421,547.173462 
	C1952.318604,547.353088 1953.957764,549.391357 1954.536011,550.931641 
	C1959.385132,563.849976 1964.012817,576.851379 1968.720215,589.822998 
	C1969.257812,591.304016 1969.875977,592.755737 1970.922363,595.395630 
	C1973.126099,589.542908 1974.911865,584.800354 1976.819702,579.685425 
z"/>
<path fill="#757478" opacity="1.000000" stroke="none" 
	d="
M608.999573,617.304688 
	C599.722778,617.304321 590.945984,617.304321 581.935669,617.304321 
	C581.935669,593.695679 581.935669,570.618530 581.935669,547.262634 
	C586.322571,547.262634 590.580322,547.262634 595.373840,547.262634 
	C595.373840,565.977478 595.373840,584.698853 595.373840,604.126831 
	C607.237305,604.126831 618.603760,604.126831 630.294434,604.126831 
	C630.294434,608.741455 630.294434,612.656860 630.294434,617.305054 
	C623.374207,617.305054 616.436890,617.305054 608.999573,617.304688 
z"/>
<path fill="#737376" opacity="1.000000" stroke="none" 
	d="
M1656.772217,546.991577 
	C1660.950806,546.445679 1660.636108,548.951660 1660.631470,551.362427 
	C1660.601685,567.009705 1660.612305,582.656982 1660.609863,598.304260 
	C1660.609619,600.098145 1660.609863,601.891968 1660.609863,604.201782 
	C1672.360229,604.201782 1683.599243,604.201782 1695.226807,604.201782 
	C1695.226807,608.624573 1695.226807,612.524536 1695.226807,616.870056 
	C1679.329224,616.870056 1663.316284,616.870056 1647.005981,616.870056 
	C1647.005981,593.748108 1647.005981,570.688843 1647.005981,546.991150 
	C1650.121094,546.991150 1653.215210,546.991150 1656.772217,546.991577 
z"/>
<path fill="#747377" opacity="1.000000" stroke="none" 
	d="
M1087.136475,597.999268 
	C1087.136597,584.869995 1087.136597,572.240540 1087.136597,559.173645 
	C1079.342041,559.173645 1071.911621,559.173645 1064.096924,559.173645 
	C1064.096924,555.010620 1064.096924,551.274658 1064.096924,547.261963 
	C1083.857422,547.261963 1103.579590,547.261963 1123.590820,547.261963 
	C1123.590820,551.066772 1123.590820,554.655884 1123.590820,558.851562 
	C1116.188721,558.851562 1108.801025,558.851562 1100.965210,558.851562 
	C1100.965210,578.531006 1100.965210,597.614807 1100.965210,616.996216 
	C1096.239502,616.996216 1091.976562,616.996216 1087.136475,616.996216 
	C1087.136475,610.715271 1087.136475,604.607178 1087.136475,597.999268 
z"/>
<path fill="#727276" opacity="1.000000" stroke="none" 
	d="
M1023.634033,552.087646 
	C1023.633789,554.507141 1023.633789,556.467590 1023.633789,558.878296 
	C1015.907288,558.878296 1008.658936,558.878296 1000.817627,558.878296 
	C1000.817627,578.341553 1000.817627,597.365479 1000.817627,616.771545 
	C996.012634,616.771545 991.797241,616.771545 986.991943,616.771545 
	C986.991943,597.797791 986.991943,578.763794 986.991943,559.248169 
	C979.021851,559.248169 971.613892,559.248169 963.793457,559.248169 
	C963.793457,555.065491 963.793457,551.362305 963.793457,547.320190 
	C983.517151,547.320190 1003.231506,547.320190 1023.354736,547.320190 
	C1023.446411,548.733154 1023.540344,550.180908 1023.634033,552.087646 
z"/>
<path fill="#737276" opacity="1.000000" stroke="none" 
	d="
M2404.341309,546.990601 
	C2408.515137,547.323059 2405.933105,549.207092 2405.377441,550.154236 
	C2399.739014,559.766113 2394.336914,569.543701 2388.168945,578.809265 
	C2383.433105,585.923401 2381.234131,593.235352 2382.069580,601.736816 
	C2382.551758,606.643799 2382.156982,611.637024 2382.156982,616.870972 
	C2377.615479,616.870972 2373.560791,616.870972 2368.995117,616.870972 
	C2368.995117,608.887634 2369.179932,601.100525 2368.893799,593.330750 
	C2368.795166,590.658386 2368.032715,587.733093 2366.698975,585.429626 
	C2359.387939,572.801697 2351.804932,560.331177 2343.831543,546.997681 
	C2348.887939,546.997681 2353.146240,546.730286 2357.335693,547.149475 
	C2358.715088,547.287476 2360.315186,548.964600 2361.133789,550.342407 
	C2365.949463,558.447632 2370.563965,566.672363 2375.532471,575.356995 
	C2380.176758,567.334717 2384.732422,559.985596 2388.731445,552.345276 
	C2390.826660,548.342407 2393.242920,546.157410 2397.935547,546.938293 
	C2399.879395,547.261841 2401.922363,546.989258 2404.341309,546.990601 
z"/>
<path fill="#737376" opacity="1.000000" stroke="none" 
	d="
M2304.000000,546.989807 
	C2314.114502,546.989807 2323.729004,546.989807 2333.598633,546.989807 
	C2333.598633,551.101501 2333.598633,554.692078 2333.598633,558.902832 
	C2326.156250,558.902832 2318.770508,558.902832 2310.918945,558.902832 
	C2310.918945,578.586548 2310.918945,597.660278 2310.918945,617.012573 
	C2306.164307,617.012573 2301.895752,617.012573 2297.130371,617.012573 
	C2297.130371,597.665161 2297.130371,578.588318 2297.130371,559.184204 
	C2289.364502,559.184204 2282.083984,559.184204 2274.398193,559.184204 
	C2274.398193,555.141602 2274.398193,551.421265 2274.398193,546.989807 
	C2283.988770,546.989807 2293.744385,546.989807 2304.000000,546.989807 
z"/>
<path fill="#757478" opacity="1.000000" stroke="none" 
	d="
M1920.299805,568.000488 
	C1920.299438,584.493958 1920.299438,600.487427 1920.299438,616.896851 
	C1915.749023,616.896851 1911.378296,616.896851 1906.676758,616.896851 
	C1906.676758,593.744019 1906.676758,570.680054 1906.676758,547.299561 
	C1911.060669,547.299561 1915.314331,547.299561 1920.300049,547.299561 
	C1920.300049,553.994690 1920.300049,560.747559 1920.299805,568.000488 
z"/>
<path fill="#737376" opacity="1.000000" stroke="none" 
	d="
M2255.857422,610.805542 
	C2255.857178,613.086182 2255.857178,614.894104 2255.857178,616.998291 
	C2251.068359,616.998291 2246.663330,616.998291 2241.987793,616.998291 
	C2241.987793,593.616821 2241.987793,570.534485 2241.987793,547.219604 
	C2246.469238,547.219604 2250.758545,547.219604 2255.857422,547.219604 
	C2255.857422,568.255005 2255.857422,589.293884 2255.857422,610.805542 
z"/>
<path fill="#737376" opacity="1.000000" stroke="none" 
	d="
M393.861206,603.988281 
	C393.861145,608.460205 393.861145,612.434326 393.861145,616.849792 
	C389.116577,616.849792 384.732422,616.849792 380.089752,616.849792 
	C380.089752,593.713318 380.089752,570.635071 380.089752,547.272888 
	C384.553894,547.272888 388.824585,547.272888 393.861237,547.272888 
	C393.861237,565.984802 393.861237,584.737671 393.861206,603.988281 
z"/>
<path fill="#737376" opacity="1.000000" stroke="none" 
	d="
M1466.861084,607.949951 
	C1466.860962,611.079773 1466.860962,613.716919 1466.860962,616.757202 
	C1462.182495,616.757202 1457.836548,616.757202 1453.236084,616.757202 
	C1453.236084,593.604248 1453.236084,570.575317 1453.236084,547.267944 
	C1457.643433,547.267944 1461.891113,547.267944 1466.861084,547.267944 
	C1466.861084,567.354919 1466.861084,587.406189 1466.861084,607.949951 
z"/>
<path fill="#E31A38" opacity="1.000000" stroke="none" 
	d="
M1403.725830,242.653351 
	C1403.999390,243.685684 1403.996826,244.475143 1403.590820,245.661209 
	C1393.791504,244.356567 1384.395752,242.655319 1374.953369,240.629425 
	C1373.901978,239.516190 1372.897339,238.727585 1371.892578,237.938980 
	C1382.411621,239.429474 1392.930542,240.919968 1403.725830,242.653351 
z"/>
<path fill="#E31A38" opacity="1.000000" stroke="none" 
	d="
M1363.017822,238.058105 
	C1364.484253,237.953369 1365.950806,237.848618 1367.714722,238.208374 
	C1368.008057,239.431046 1368.004028,240.189209 1367.590820,241.037628 
	C1365.787720,241.124771 1364.393799,241.121658 1363.000000,240.735977 
	C1363.005981,239.588318 1363.011963,238.823212 1363.017822,238.058105 
z"/>
<path fill="#E31A38" opacity="1.000000" stroke="none" 
	d="
M1368.000000,240.947388 
	C1368.004028,240.189209 1368.008057,239.431046 1368.020508,238.293854 
	C1369.069702,237.825058 1370.110596,237.735260 1371.521973,237.792236 
	C1372.897339,238.727585 1373.901978,239.516190 1374.521973,240.714905 
	C1372.091431,241.065811 1370.045776,241.006592 1368.000000,240.947388 
z"/>
<path fill="#E31A38" opacity="1.000000" stroke="none" 
	d="
M1362.676514,237.992004 
	C1363.011963,238.823212 1363.005981,239.588318 1362.667969,240.886047 
	C1360.890137,241.527420 1359.444458,241.636200 1357.998779,241.744965 
	C1358.839966,240.703629 1359.681274,239.662262 1360.745483,238.385071 
	C1361.424072,238.074783 1361.879517,238.000351 1362.676514,237.992004 
z"/>
<path fill="#E31A38" opacity="1.000000" stroke="none" 
	d="
M1350.000000,240.998154 
	C1350.239258,240.566559 1350.478516,240.134995 1350.836914,239.485748 
	C1351.411987,239.168274 1351.867798,239.068497 1352.673096,239.021057 
	C1353.234009,240.156845 1353.445557,241.240311 1353.796753,243.039047 
	C1352.373169,242.259552 1351.475830,241.768158 1350.289185,241.138367 
	C1350.000000,241.000000 1350.000000,240.998169 1350.000000,240.998154 
z"/>
<path fill="#FEFDFD" opacity="1.000000" stroke="none" 
	d="
M1357.770264,241.875122 
	C1359.444458,241.636200 1360.890137,241.527420 1362.667969,241.268585 
	C1364.393799,241.121658 1365.787720,241.124771 1367.590820,241.037628 
	C1370.045776,241.006592 1372.091431,241.065811 1374.568604,241.039551 
	C1384.395752,242.655319 1393.791504,244.356567 1403.586182,246.055908 
	C1414.747559,251.544968 1426.306396,255.891464 1436.131470,262.729401 
	C1474.191406,289.218140 1491.886475,336.266418 1481.768066,381.351776 
	C1471.680420,426.299713 1435.354980,460.984802 1389.808838,469.179138 
	C1379.109131,471.104187 1368.392944,471.740753 1357.248047,470.102478 
	C1412.212036,448.394714 1442.779541,409.217987 1440.351807,349.775360 
	C1438.374512,301.356445 1412.486084,266.989594 1367.635010,246.586243 
	C1366.043823,245.969162 1365.019775,245.626266 1363.995850,245.283356 
	C1363.584595,245.110321 1363.173218,244.937286 1362.426758,244.733612 
	C1360.403687,244.017456 1358.715210,243.333679 1357.035156,242.629608 
	C1357.009888,242.619003 1357.048706,242.322189 1357.132446,242.220932 
	C1357.223145,242.111160 1357.401733,242.074051 1357.770264,241.875122 
z"/>
<path fill="#E31A38" opacity="1.000000" stroke="none" 
	d="
M1364.006470,245.623566 
	C1365.019775,245.626266 1366.043823,245.969162 1367.287354,246.558197 
	C1366.343750,246.524124 1365.180420,246.243942 1364.006470,245.623566 
z"/>
<path fill="#FFFFFF" opacity="1.000000" stroke="none" 
	d="
M1346.160400,465.000366 
	C1346.032959,467.280670 1345.905640,469.560974 1345.757812,472.206665 
	C1302.543335,461.118408 1272.390747,435.694550 1257.703369,393.503662 
	C1235.181763,328.807556 1275.195679,256.724152 1341.851196,241.120224 
	C1342.982666,240.855347 1344.156494,240.771576 1345.659424,241.256409 
	C1346.004761,315.112274 1346.000488,388.314972 1346.004395,461.517700 
	C1346.004517,462.678589 1346.106201,463.839478 1346.160400,465.000366 
M1343.000000,325.500000 
	C1343.000000,315.168121 1343.000000,304.836212 1343.000000,294.504333 
	C1342.999878,281.839417 1343.081421,269.173309 1342.891479,256.511200 
	C1342.868896,255.008041 1341.458862,252.310944 1340.527954,252.237183 
	C1335.270142,251.820541 1329.962280,252.035889 1324.448120,252.035889 
	C1324.131104,256.170837 1323.163208,259.560852 1318.735352,259.843994 
	C1315.314819,260.062683 1311.869019,259.887634 1308.213135,259.887634 
	C1308.404175,264.889069 1306.203125,267.155853 1302.265381,268.020508 
	C1301.539307,268.179962 1300.349487,268.706360 1300.312622,269.142731 
	C1299.933716,273.626312 1296.880249,275.143799 1293.154907,276.288788 
	C1292.373657,276.528900 1292.159912,278.263702 1291.430420,279.083588 
	C1287.869141,283.086487 1284.833618,288.065674 1280.412354,290.634552 
	C1276.845581,292.706940 1276.278687,294.527100 1275.779663,298.043427 
	C1275.333496,301.187164 1276.958740,305.934509 1271.815918,307.144043 
	C1268.609375,307.898193 1267.880005,309.759644 1267.920288,312.889832 
	C1268.044067,322.544159 1267.905396,322.545929 1259.771606,324.675629 
	C1259.771606,343.579132 1259.771606,362.402649 1259.771606,380.967896 
	C1267.750854,383.863251 1268.041992,384.232117 1267.979370,392.468689 
	C1267.952881,395.949463 1267.639038,399.427612 1267.585205,402.908966 
	C1267.571899,403.772858 1268.010254,405.380188 1268.328491,405.402588 
	C1273.377197,405.757782 1276.260742,408.153198 1276.541504,413.381165 
	C1276.558594,413.700897 1277.236816,414.148438 1277.676636,414.257538 
	C1283.886353,415.798157 1283.921631,420.672546 1284.073853,425.652924 
	C1284.117432,427.078857 1284.862305,429.585022 1285.600830,429.708405 
	C1290.227295,430.481049 1291.889893,433.578979 1292.448486,437.824768 
	C1298.362549,437.391327 1299.876831,441.372040 1300.752930,446.001404 
	C1303.858887,446.001404 1306.682739,446.098541 1309.496948,445.976074 
	C1312.787231,445.832855 1315.191772,447.034576 1315.583984,450.420258 
	C1315.985718,453.888885 1318.026123,454.116608 1320.782471,454.036224 
	C1326.535889,453.868500 1331.941528,454.466736 1332.627075,461.706512 
	C1343.000000,462.536041 1343.000000,462.536041 1343.000000,452.982361 
	C1343.000000,410.821564 1343.000000,368.660797 1343.000000,325.500000 
z"/>
<path fill="#E31A38" opacity="1.000000" stroke="none" 
	d="
M1346.573120,464.997101 
	C1346.106201,463.839478 1346.004517,462.678589 1346.004395,461.517700 
	C1346.000488,388.314972 1346.004761,315.112274 1346.051270,241.440765 
	C1347.135742,240.981125 1348.177246,240.990250 1349.609375,240.998779 
	C1350.000000,240.998169 1350.000000,241.000000 1350.000000,241.000916 
	C1350.000000,313.873169 1350.009766,386.744537 1349.951660,459.615845 
	C1349.949951,461.756836 1351.336426,465.076569 1346.573120,464.997101 
z"/>
<path fill="#FEFDFD" opacity="1.000000" stroke="none" 
	d="
M520.101257,604.365784 
	C517.998047,604.365967 516.381042,604.365967 514.462585,604.365967 
	C514.462585,589.411804 514.462585,575.026184 514.462585,559.965759 
	C523.229004,559.965759 531.964844,559.781982 540.674438,560.176697 
	C541.889465,560.231812 543.928833,563.108337 543.968628,564.718750 
	C544.255981,576.347595 544.127686,587.986633 544.128662,599.622498 
	C544.129028,603.393372 541.757935,604.381470 538.539856,604.377869 
	C532.555725,604.371277 526.571533,604.369446 520.101257,604.365784 
z"/>
<path fill="#FFFFFF" opacity="1.000000" stroke="none" 
	d="
M462.987335,598.623779 
	C461.619659,600.828796 460.334198,603.994324 458.872345,604.078003 
	C450.452209,604.560059 441.990326,604.312927 433.279907,604.312927 
	C433.279907,589.452820 433.279907,575.033325 433.279907,559.993958 
	C442.019165,559.993958 450.771851,559.765320 459.485138,560.247803 
	C460.748779,560.317749 462.770630,563.765808 462.829102,565.699463 
	C463.156036,576.511597 462.987396,587.338745 462.987335,598.623779 
z"/>
<path fill="#FEFDFD" opacity="1.000000" stroke="none" 
	d="
M2115.829346,580.847473 
	C2112.076904,580.847412 2108.793945,580.847412 2105.185547,580.847412 
	C2105.185547,573.391602 2105.185547,566.383972 2105.185547,558.958191 
	C2110.828613,558.958191 2116.254150,558.911377 2121.677490,559.003418 
	C2122.602539,559.019165 2123.746582,559.386597 2124.400635,560.003723 
	C2129.308594,564.632996 2126.971191,570.583923 2126.775146,575.942505 
	C2126.624268,580.063110 2122.745361,580.646179 2119.282959,580.835144 
	C2118.291016,580.889282 2117.293701,580.846130 2115.829346,580.847473 
z"/>
<path fill="#FEFDFD" opacity="1.000000" stroke="none" 
	d="
M838.892456,579.849976 
	C840.747681,574.819031 842.493347,570.162720 844.626099,564.474121 
	C847.700378,572.680664 850.444763,580.006470 853.346375,587.751892 
	C847.324219,587.751892 841.908264,587.751892 835.966309,587.751892 
	C836.954224,585.111755 837.868591,582.668213 838.892456,579.849976 
z"/>
<path fill="#FEFDFD" opacity="1.000000" stroke="none" 
	d="
M1590.120117,579.106812 
	C1591.924194,574.297913 1593.614746,569.860840 1595.657715,564.498596 
	C1598.692993,572.643555 1601.397949,579.902100 1604.281616,587.640259 
	C1598.426758,587.640259 1593.056152,587.640259 1587.108887,587.640259 
	C1588.082764,584.897461 1589.044800,582.188049 1590.120117,579.106812 
z"/>
<path fill="#FFFFFF" opacity="1.000000" stroke="none" 
	d="
M1343.000000,326.000000 
	C1343.000000,368.660797 1343.000000,410.821564 1343.000000,452.982361 
	C1343.000000,462.536041 1343.000000,462.536041 1332.627075,461.706512 
	C1331.941528,454.466736 1326.535889,453.868500 1320.782471,454.036224 
	C1318.026123,454.116608 1315.985718,453.888885 1315.583984,450.420258 
	C1315.191772,447.034576 1312.787231,445.832855 1309.496948,445.976074 
	C1306.682739,446.098541 1303.858887,446.001404 1300.752930,446.001404 
	C1299.876831,441.372040 1298.362549,437.391327 1292.448486,437.824768 
	C1291.889893,433.578979 1290.227295,430.481049 1285.600830,429.708405 
	C1284.862305,429.585022 1284.117432,427.078857 1284.073853,425.652924 
	C1283.921631,420.672546 1283.886353,415.798157 1277.676636,414.257538 
	C1277.236816,414.148438 1276.558594,413.700897 1276.541504,413.381165 
	C1276.260742,408.153198 1273.377197,405.757782 1268.328491,405.402588 
	C1268.010254,405.380188 1267.571899,403.772858 1267.585205,402.908966 
	C1267.639038,399.427612 1267.952881,395.949463 1267.979370,392.468689 
	C1268.041992,384.232117 1267.750854,383.863251 1259.771606,380.967896 
	C1259.771606,362.402649 1259.771606,343.579132 1259.771606,324.675629 
	C1267.905396,322.545929 1268.044067,322.544159 1267.920288,312.889832 
	C1267.880005,309.759644 1268.609375,307.898193 1271.815918,307.144043 
	C1276.958740,305.934509 1275.333496,301.187164 1275.779663,298.043427 
	C1276.278687,294.527100 1276.845581,292.706940 1280.412354,290.634552 
	C1284.833618,288.065674 1287.869141,283.086487 1291.430420,279.083588 
	C1292.159912,278.263702 1292.373657,276.528900 1293.154907,276.288788 
	C1296.880249,275.143799 1299.933716,273.626312 1300.312622,269.142731 
	C1300.349487,268.706360 1301.539307,268.179962 1302.265381,268.020508 
	C1306.203125,267.155853 1308.404175,264.889069 1308.213135,259.887634 
	C1311.869019,259.887634 1315.314819,260.062683 1318.735352,259.843994 
	C1323.163208,259.560852 1324.131104,256.170837 1324.448120,252.035889 
	C1329.962280,252.035889 1335.270142,251.820541 1340.527954,252.237183 
	C1341.458862,252.310944 1342.868896,255.008041 1342.891479,256.511200 
	C1343.081421,269.173309 1342.999878,281.839417 1343.000000,294.504333 
	C1343.000000,304.836212 1343.000000,315.168121 1343.000000,326.000000 
z"/>
</svg>