<svg version="1.1" id="Layer_1" xmlns="http://www.w3.org/2000/svg" xmlns:xlink="http://www.w3.org/1999/xlink" x="0px" y="0px"
	 width="100%" viewBox="0 0 320 320" enable-background="new 0 0 320 320" xml:space="preserve">
<path fill="#FFFFFF" opacity="1.000000" stroke="none" 
	d="
M1.000000,119.000000 
	C1.000000,79.348633 1.000000,40.197262 1.000000,1.022947 
	C107.609703,1.022947 214.219421,1.022947 320.914551,1.022947 
	C320.914551,107.567986 320.914551,214.136063 320.914551,320.852051 
	C214.333481,320.852051 107.666771,320.852051 1.000000,320.852051 
	C1.000000,253.780701 1.000000,186.640350 1.000000,119.000000 
M274.283875,242.290543 
	C274.283875,242.290543 274.448456,242.122009 275.280365,242.625732 
	C279.340485,243.345352 283.022064,243.579437 283.304321,237.806152 
	C283.349213,236.887375 284.399139,235.497894 285.264771,235.229187 
	C288.978699,234.076233 291.140778,231.874878 291.655640,227.935989 
	C291.758331,227.150452 292.768616,226.323029 293.553894,225.812531 
	C300.078583,221.570953 301.987854,212.167633 297.704041,205.147705 
	C298.183197,204.099182 298.662384,203.050644 299.932159,202.003433 
	C306.994812,203.061737 306.884735,203.059326 307.041351,195.894531 
	C307.135162,191.603455 307.963013,187.310257 307.817749,183.039886 
	C307.746582,180.947510 306.209106,178.905045 305.271210,175.927216 
	C305.662140,171.929962 306.053040,167.932693 306.641602,163.775085 
	C306.793152,163.533752 306.762482,163.310165 306.322327,162.182007 
	C306.121521,156.492935 305.920746,150.803879 306.386078,144.616043 
	C306.564850,135.912048 306.831512,127.208008 306.827332,118.504105 
	C306.826721,117.204506 305.750946,114.945908 304.838959,114.759048 
	C297.948273,113.347168 299.566040,107.697945 299.119873,103.367661 
	C298.793640,100.201027 298.651337,97.820969 294.604095,97.806335 
	C293.746460,97.803238 292.379486,96.313622 292.139771,95.298195 
	C291.500153,92.588768 291.332703,89.766258 291.008606,86.985077 
	C290.923401,86.253860 281.564972,74.143982 280.871613,74.052734 
	C279.886261,73.923035 278.685272,74.214523 277.941986,73.746048 
	C276.809357,73.032158 275.569611,71.984764 275.108032,70.794800 
	C272.838684,64.944084 266.387268,63.165421 263.145874,58.282898 
	C262.858276,57.849655 261.556610,57.942589 260.750793,58.027428 
	C258.133606,58.302971 255.527969,58.688412 252.338623,58.945587 
	C251.893311,58.576889 251.447998,58.208195 251.020691,57.066547 
	C252.615494,52.671146 252.538101,49.607319 246.418945,49.703598 
	C245.108398,49.724213 243.843582,47.060699 242.401550,45.814320 
	C240.808594,44.437489 239.183243,42.542114 237.310623,42.162704 
	C233.614822,41.413910 229.504135,40.635994 225.989609,41.533249 
	C220.007065,43.060585 218.544815,40.367138 218.564453,35.064903 
	C215.337357,34.687286 212.404129,34.086189 209.463470,34.047359 
	C199.889648,33.920940 190.311264,33.880909 180.738113,34.030224 
	C168.840652,34.215790 156.946793,34.859791 145.051117,34.866539 
	C133.766205,34.872944 122.477783,34.393745 111.197868,33.950668 
	C107.879509,33.820324 106.586258,35.029175 106.990005,38.263100 
	C107.154518,39.580765 107.187836,40.914814 107.259361,42.217274 
	C107.259361,42.217274 107.236374,42.195843 106.777885,42.177948 
	C106.460838,42.243835 106.215477,42.413403 105.403198,42.954697 
	C104.947517,43.000179 104.491837,43.045658 103.467865,42.464981 
	C98.351768,42.316296 93.218323,41.876095 88.129120,42.179123 
	C86.378944,42.283337 83.728973,43.916477 83.243576,45.418011 
	C81.928009,49.487579 79.426636,50.243942 75.682762,50.061878 
	C71.605881,49.863621 66.517899,48.522053 66.621620,55.503517 
	C61.972958,57.598137 59.650417,63.702595 56.271725,65.002892 
	C50.655029,67.164490 50.783222,69.974068 51.045853,74.045715 
	C51.045853,74.045715 51.170940,74.132271 50.284645,74.050369 
	C46.636955,73.756134 43.123947,73.528511 42.773521,78.738823 
	C42.721016,79.519524 41.352642,80.711624 40.460369,80.848434 
	C36.813938,81.407524 34.833179,83.032173 34.682690,86.993263 
	C34.644550,87.997269 32.716896,89.757568 31.663824,89.752846 
	C26.882656,89.731445 26.896595,92.701920 26.954367,96.114136 
	C26.990286,98.235641 26.847303,100.440323 26.274616,102.463303 
	C25.903667,103.773651 24.733454,105.690514 23.711334,105.833435 
	C20.103262,106.337936 18.799831,108.260193 19.011448,111.588051 
	C19.347063,116.865883 19.750006,122.139442 20.184256,127.975769 
	C20.056992,128.326431 19.929728,128.677094 19.111773,129.375137 
	C18.321787,129.581329 17.479498,130.077621 16.750383,129.946167 
	C12.330070,129.149216 10.412088,131.655411 10.455904,135.389359 
	C10.528653,141.588959 11.154515,147.787003 11.690943,153.973251 
	C11.855266,155.868286 12.946214,157.752579 12.825706,159.590149 
	C12.402189,166.048203 11.376732,172.471542 11.071650,178.931290 
	C10.754762,185.640991 12.169219,187.061951 19.675453,189.405701 
	C19.799812,190.264847 19.924171,191.123978 19.379135,192.335815 
	C19.413523,197.774216 19.414934,203.213409 19.548685,208.649368 
	C19.558729,209.057587 20.464811,209.687103 21.036413,209.800629 
	C26.940718,210.973419 27.435917,215.201385 27.024174,220.057877 
	C26.874090,221.828110 27.000011,223.621735 27.000011,225.691086 
	C33.398281,225.432114 34.082901,228.961761 34.198463,233.801743 
	C34.263630,236.531158 35.598019,240.556290 37.607525,241.602219 
	C40.615746,243.167969 43.228828,243.905945 43.310318,247.922867 
	C43.324638,248.628876 45.153454,249.393051 46.235592,249.954376 
	C47.220928,250.465515 49.049244,250.497025 49.268860,251.153671 
	C50.736038,255.540680 52.327831,259.583008 57.940693,259.680511 
	C59.686649,266.263458 65.426392,265.179077 70.174904,266.396881 
	C72.059761,266.880341 73.398766,269.329834 75.097618,270.751129 
	C76.509697,271.932526 77.946167,273.377258 79.620407,273.884003 
	C82.114479,274.638763 84.918159,274.371338 87.411308,275.127991 
	C88.790222,275.546478 90.663132,277.055328 90.817055,278.263306 
	C91.218262,281.411835 92.846848,282.047882 95.543205,282.022217 
	C102.870094,281.952484 110.199936,282.080811 117.523727,281.915009 
	C118.695343,281.888489 119.841789,280.750366 121.687943,280.025909 
	C122.141289,280.107971 122.594635,280.190063 123.632553,280.725403 
	C124.621735,280.780121 125.610916,280.834808 127.419899,280.585846 
	C134.069748,280.666595 140.719604,280.747314 147.908951,280.868652 
	C148.238968,280.744324 148.568970,280.619995 149.567841,280.223297 
	C150.044388,280.245422 150.520950,280.267548 151.243408,281.032440 
	C156.403397,281.304901 161.562164,281.622589 166.725739,281.763153 
	C167.134125,281.774261 167.576019,280.555267 168.856216,279.846130 
	C170.265579,280.028320 171.674927,280.210541 173.626984,280.773895 
	C174.509705,280.816833 175.392426,280.859802 177.165649,280.729919 
	C183.564392,280.762573 189.963150,280.795258 196.920105,280.860413 
	C197.254333,280.716644 197.588577,280.572906 198.750137,280.158813 
	C200.484695,280.051971 202.219238,279.945129 204.132568,280.655334 
	C205.596054,281.103516 207.045685,281.874664 208.525665,281.938202 
	C212.659286,282.115601 216.805511,282.011139 220.946686,281.997498 
	C227.748383,281.975098 228.736588,280.652740 227.166992,273.766724 
	C227.166992,273.766724 227.394241,273.854950 228.418396,273.932251 
	C235.796295,273.932251 243.174179,273.932251 250.426178,273.932251 
	C250.645172,271.596191 250.366180,268.562744 251.040054,268.333771 
	C256.478882,266.485870 259.685760,262.333923 262.853210,258.031860 
	C262.920197,257.940918 263.185913,258.021545 263.335052,257.962097 
	C267.362946,256.357178 269.248322,253.793549 267.287506,249.245544 
	C267.287506,249.245544 267.491364,249.082657 268.157440,249.616623 
	C270.087219,249.524307 273.327423,250.020874 273.686127,249.222565 
	C274.552368,247.294846 274.072693,244.762329 274.283875,242.290543 
z"/>
<path fill="#E21A37" opacity="1.000000" stroke="none" 
	d="
M203.953796,279.838318 
	C202.219238,279.945129 200.484695,280.051971 198.050293,280.238525 
	C197.020935,280.488098 196.691422,280.658020 196.361908,280.827942 
	C189.963150,280.795258 183.564392,280.762573 176.461685,280.597229 
	C174.866577,280.440582 173.975433,280.416656 173.084290,280.392731 
	C171.674927,280.210541 170.265579,280.028320 168.102753,279.669861 
	C162.564774,279.581665 161.163116,277.501099 161.175705,272.537781 
	C161.366226,197.437393 161.307510,122.336357 161.307175,47.235474 
	C161.307159,45.385727 161.307175,43.535980 161.307175,41.373386 
	C175.281952,38.365078 189.965775,38.051685 204.729736,40.329052 
	C221.390427,42.899002 236.644257,49.185982 251.002686,57.839500 
	C251.447998,58.208195 251.893311,58.576889 252.805893,59.276978 
	C264.356079,67.118462 273.865234,76.272102 281.964661,86.925194 
	C295.098450,104.199944 302.492218,123.803413 305.719910,145.114807 
	C305.920746,150.803879 306.121521,156.492935 306.335083,162.841431 
	C306.347839,163.500854 306.443939,163.935425 306.443970,163.935425 
	C306.053040,167.932693 305.662140,171.929962 305.202789,176.739441 
	C303.136749,185.701813 301.139130,193.851959 299.141541,202.002121 
	C298.662384,203.050644 298.183197,204.099182 297.423920,205.756409 
	C291.675507,219.614975 283.807434,231.341644 274.448456,242.122009 
	C274.448456,242.122009 274.283875,242.290543 273.960327,242.549835 
	C271.588318,244.900314 269.539856,246.991486 267.491364,249.082657 
	C267.491364,249.082657 267.287506,249.245544 266.939392,249.494247 
	C255.044556,260.249542 241.666306,267.778748 227.394241,273.854950 
	C227.394241,273.854950 227.166992,273.766724 226.695282,273.870117 
	C218.800323,275.928467 211.377060,277.883392 203.953796,279.838318 
M245.143021,105.379494 
	C261.505096,139.037964 262.838409,173.326141 248.141144,207.703873 
	C233.468521,242.024017 207.301086,264.244080 172.225769,276.472046 
	C222.131729,280.088013 261.738831,261.938019 286.794739,218.469467 
	C311.727875,175.213898 308.724457,131.506516 280.107086,90.672630 
	C251.673706,50.101265 203.320023,37.752903 171.861053,43.792324 
	C204.517395,54.440392 228.919357,74.527443 245.143021,105.379494 
z"/>
<path fill="#FEFDFD" opacity="1.000000" stroke="none" 
	d="
M251.011688,57.453026 
	C236.644257,49.185982 221.390427,42.899002 204.729736,40.329052 
	C189.965775,38.051685 175.281952,38.365078 161.307175,41.373386 
	C161.307175,43.535980 161.307159,45.385727 161.307175,47.235474 
	C161.307510,122.336357 161.366226,197.437393 161.175705,272.537781 
	C161.163116,277.501099 162.564774,279.581665 167.675827,279.700775 
	C167.576019,280.555267 167.134125,281.774261 166.725739,281.763153 
	C161.562164,281.622589 156.403397,281.304901 151.517883,280.554749 
	C154.409225,279.640778 157.026093,279.204529 159.389969,278.810455 
	C100.979584,260.951599 65.353500,222.602890 65.015465,160.521393 
	C64.678780,98.689911 99.657486,59.908878 157.888107,40.940899 
	C153.318451,40.059898 148.598236,38.855278 143.962051,39.120338 
	C131.715530,39.820507 119.505440,41.157761 107.280853,42.241405 
	C107.187836,40.914814 107.154518,39.580765 106.990005,38.263100 
	C106.586258,35.029175 107.879509,33.820324 111.197868,33.950668 
	C122.477783,34.393745 133.766205,34.872944 145.051117,34.866539 
	C156.946793,34.859791 168.840652,34.215790 180.738113,34.030224 
	C190.311264,33.880909 199.889648,33.920940 209.463470,34.047359 
	C212.404129,34.086189 215.337357,34.687286 218.564453,35.064903 
	C218.544815,40.367138 220.007065,43.060585 225.989609,41.533249 
	C229.504135,40.635994 233.614822,41.413910 237.310623,42.162704 
	C239.183243,42.542114 240.808594,44.437489 242.401550,45.814320 
	C243.843582,47.060699 245.108398,49.724213 246.418945,49.703598 
	C252.538101,49.607319 252.615494,52.671146 251.011688,57.453026 
z"/>
<path fill="#E21937" opacity="1.000000" stroke="none" 
	d="
M107.270111,42.229340 
	C119.505440,41.157761 131.715530,39.820507 143.962051,39.120338 
	C148.598236,38.855278 153.318451,40.059898 157.888107,40.940899 
	C99.657486,59.908878 64.678780,98.689911 65.015465,160.521393 
	C65.353500,222.602890 100.979584,260.951599 159.389969,278.810455 
	C157.026093,279.204529 154.409225,279.640778 151.394928,280.183350 
	C150.520950,280.267548 150.044388,280.245422 148.956711,280.287598 
	C148.020203,280.510590 147.694824,280.669312 147.369461,280.828033 
	C140.719604,280.747314 134.069748,280.666595 126.716820,280.497498 
	C125.025154,280.363495 124.036568,280.317810 123.047981,280.272125 
	C122.594635,280.190063 122.141289,280.107971 120.967529,279.937195 
	C119.602013,279.687378 118.964912,279.475403 118.310654,279.372467 
	C89.258461,274.801270 65.192039,261.223450 45.719582,239.288773 
	C33.484291,225.506393 25.539446,209.415421 20.048531,191.983124 
	C19.924171,191.123978 19.799812,190.264847 19.443171,188.736313 
	C14.705619,168.340088 15.104410,148.662384 19.802464,129.027756 
	C19.929728,128.677094 20.056992,128.326431 20.398243,127.395615 
	C26.196264,106.584900 37.024723,89.396355 51.170940,74.132271 
	C51.170940,74.132271 51.045853,74.045715 51.403313,73.988312 
	C66.570305,59.217384 84.281494,49.422359 104.036156,43.091141 
	C104.491837,43.045658 104.947517,43.000179 105.962021,42.861229 
	C106.894936,42.746765 107.133446,42.556126 107.236374,42.195843 
	C107.236374,42.195843 107.259361,42.217274 107.270111,42.229340 
z"/>
<path fill="#FEFDFD" opacity="1.000000" stroke="none" 
	d="
M19.713833,192.159470 
	C25.539446,209.415421 33.484291,225.506393 45.719582,239.288773 
	C65.192039,261.223450 89.258461,274.801270 118.310654,279.372467 
	C118.964912,279.475403 119.602013,279.687378 120.623489,279.987305 
	C119.841789,280.750366 118.695343,281.888489 117.523727,281.915009 
	C110.199936,282.080811 102.870094,281.952484 95.543205,282.022217 
	C92.846848,282.047882 91.218262,281.411835 90.817055,278.263306 
	C90.663132,277.055328 88.790222,275.546478 87.411308,275.127991 
	C84.918159,274.371338 82.114479,274.638763 79.620407,273.884003 
	C77.946167,273.377258 76.509697,271.932526 75.097618,270.751129 
	C73.398766,269.329834 72.059761,266.880341 70.174904,266.396881 
	C65.426392,265.179077 59.686649,266.263458 57.940693,259.680511 
	C52.327831,259.583008 50.736038,255.540680 49.268860,251.153671 
	C49.049244,250.497025 47.220928,250.465515 46.235592,249.954376 
	C45.153454,249.393051 43.324638,248.628876 43.310318,247.922867 
	C43.228828,243.905945 40.615746,243.167969 37.607525,241.602219 
	C35.598019,240.556290 34.263630,236.531158 34.198463,233.801743 
	C34.082901,228.961761 33.398281,225.432114 27.000011,225.691086 
	C27.000011,223.621735 26.874090,221.828110 27.024174,220.057877 
	C27.435917,215.201385 26.940718,210.973419 21.036413,209.800629 
	C20.464811,209.687103 19.558729,209.057587 19.548685,208.649368 
	C19.414934,203.213409 19.413523,197.774216 19.713833,192.159470 
z"/>
<path fill="#FEFDFD" opacity="1.000000" stroke="none" 
	d="
M306.052979,144.865417 
	C302.492218,123.803413 295.098450,104.199944 281.964661,86.925194 
	C273.865234,76.272102 264.356079,67.118462 253.095520,59.319954 
	C255.527969,58.688412 258.133606,58.302971 260.750793,58.027428 
	C261.556610,57.942589 262.858276,57.849655 263.145874,58.282898 
	C266.387268,63.165421 272.838684,64.944084 275.108032,70.794800 
	C275.569611,71.984764 276.809357,73.032158 277.941986,73.746048 
	C278.685272,74.214523 279.886261,73.923035 280.871613,74.052734 
	C281.564972,74.143982 290.923401,86.253860 291.008606,86.985077 
	C291.332703,89.766258 291.500153,92.588768 292.139771,95.298195 
	C292.379486,96.313622 293.746460,97.803238 294.604095,97.806335 
	C298.651337,97.820969 298.793640,100.201027 299.119873,103.367661 
	C299.566040,107.697945 297.948273,113.347168 304.838959,114.759048 
	C305.750946,114.945908 306.826721,117.204506 306.827332,118.504105 
	C306.831512,127.208008 306.564850,135.912048 306.052979,144.865417 
z"/>
<path fill="#FEFDFD" opacity="1.000000" stroke="none" 
	d="
M19.457119,129.201447 
	C15.104410,148.662384 14.705619,168.340088 19.229996,188.487518 
	C12.169219,187.061951 10.754762,185.640991 11.071650,178.931290 
	C11.376732,172.471542 12.402189,166.048203 12.825706,159.590149 
	C12.946214,157.752579 11.855266,155.868286 11.690943,153.973251 
	C11.154515,147.787003 10.528653,141.588959 10.455904,135.389359 
	C10.412088,131.655411 12.330070,129.149216 16.750383,129.946167 
	C17.479498,130.077621 18.321787,129.581329 19.457119,129.201447 
z"/>
<path fill="#FEFDFD" opacity="1.000000" stroke="none" 
	d="
M50.727791,74.091324 
	C37.024723,89.396355 26.196264,106.584900 20.368347,127.115128 
	C19.750006,122.139442 19.347063,116.865883 19.011448,111.588051 
	C18.799831,108.260193 20.103262,106.337936 23.711334,105.833435 
	C24.733454,105.690514 25.903667,103.773651 26.274616,102.463303 
	C26.847303,100.440323 26.990286,98.235641 26.954367,96.114136 
	C26.896595,92.701920 26.882656,89.731445 31.663824,89.752846 
	C32.716896,89.757568 34.644550,87.997269 34.682690,86.993263 
	C34.833179,83.032173 36.813938,81.407524 40.460369,80.848434 
	C41.352642,80.711624 42.721016,79.519524 42.773521,78.738823 
	C43.123947,73.528511 46.636955,73.756134 50.727791,74.091324 
z"/>
<path fill="#FEFDFD" opacity="1.000000" stroke="none" 
	d="
M103.752014,42.778061 
	C84.281494,49.422359 66.570305,59.217384 51.446526,74.050903 
	C50.783222,69.974068 50.655029,67.164490 56.271725,65.002892 
	C59.650417,63.702595 61.972958,57.598137 66.621620,55.503517 
	C66.517899,48.522053 71.605881,49.863621 75.682762,50.061878 
	C79.426636,50.243942 81.928009,49.487579 83.243576,45.418011 
	C83.728973,43.916477 86.378944,42.283337 88.129120,42.179123 
	C93.218323,41.876095 98.351768,42.316296 103.752014,42.778061 
z"/>
<path fill="#FEFDFD" opacity="1.000000" stroke="none" 
	d="
M227.906311,273.893616 
	C241.666306,267.778748 255.044556,260.249542 266.857361,249.595749 
	C269.248322,253.793549 267.362946,256.357178 263.335052,257.962097 
	C263.185913,258.021545 262.920197,257.940918 262.853210,258.031860 
	C259.685760,262.333923 256.478882,266.485870 251.040054,268.333771 
	C250.366180,268.562744 250.645172,271.596191 250.426178,273.932251 
	C243.174179,273.932251 235.796295,273.932251 227.906311,273.893616 
z"/>
<path fill="#FEFDFD" opacity="1.000000" stroke="none" 
	d="
M274.864410,242.373871 
	C283.807434,231.341644 291.675507,219.614975 297.346863,206.096497 
	C301.987854,212.167633 300.078583,221.570953 293.553894,225.812531 
	C292.768616,226.323029 291.758331,227.150452 291.655640,227.935989 
	C291.140778,231.874878 288.978699,234.076233 285.264771,235.229187 
	C284.399139,235.497894 283.349213,236.887375 283.304321,237.806152 
	C283.022064,243.579437 279.340485,243.345352 274.864410,242.373871 
z"/>
<path fill="#FEFDFD" opacity="1.000000" stroke="none" 
	d="
M299.536835,202.002777 
	C301.139130,193.851959 303.136749,185.701813 305.234802,177.195831 
	C306.209106,178.905045 307.746582,180.947510 307.817749,183.039886 
	C307.963013,187.310257 307.135162,191.603455 307.041351,195.894531 
	C306.884735,203.059326 306.994812,203.061737 299.536835,202.002777 
z"/>
<path fill="#FEFDFD" opacity="1.000000" stroke="none" 
	d="
M204.043182,280.246826 
	C211.377060,277.883392 218.800323,275.928467 226.611206,273.958374 
	C228.736588,280.652740 227.748383,281.975098 220.946686,281.997498 
	C216.805511,282.011139 212.659286,282.115601 208.525665,281.938202 
	C207.045685,281.874664 205.596054,281.103516 204.043182,280.246826 
z"/>
<path fill="#FEFDFD" opacity="1.000000" stroke="none" 
	d="
M267.824402,249.349640 
	C269.539856,246.991486 271.588318,244.900314 273.886230,242.641388 
	C274.072693,244.762329 274.552368,247.294846 273.686127,249.222565 
	C273.327423,250.020874 270.087219,249.524307 267.824402,249.349640 
z"/>
<path fill="#FEFDFD" opacity="1.000000" stroke="none" 
	d="
M123.340271,280.498779 
	C124.036568,280.317810 125.025154,280.363495 126.306915,280.649353 
	C125.610916,280.834808 124.621735,280.780121 123.340271,280.498779 
z"/>
<path fill="#FEFDFD" opacity="1.000000" stroke="none" 
	d="
M173.355637,280.583313 
	C173.975433,280.416656 174.866577,280.440582 176.016434,280.683655 
	C175.392426,280.859802 174.509705,280.816833 173.355637,280.583313 
z"/>
<path fill="#FEFDFD" opacity="1.000000" stroke="none" 
	d="
M306.542786,163.855255 
	C306.443939,163.935425 306.347839,163.500854 306.448730,163.302582 
	C306.762482,163.310165 306.793152,163.533752 306.542786,163.855255 
z"/>
<path fill="#FEFDFD" opacity="1.000000" stroke="none" 
	d="
M147.639206,280.848328 
	C147.694824,280.669312 148.020203,280.510590 148.622284,280.423767 
	C148.568970,280.619995 148.238968,280.744324 147.639206,280.848328 
z"/>
<path fill="#FEFDFD" opacity="1.000000" stroke="none" 
	d="
M196.641006,280.844177 
	C196.691422,280.658020 197.020935,280.488098 197.636627,280.373657 
	C197.588577,280.572906 197.254333,280.716644 196.641006,280.844177 
z"/>
<path fill="#FEFDFD" opacity="1.000000" stroke="none" 
	d="
M107.007126,42.186897 
	C107.133446,42.556126 106.894936,42.746765 106.281311,42.727207 
	C106.215477,42.413403 106.460838,42.243835 107.007126,42.186897 
z"/>
<path fill="#FEFCFC" opacity="1.000000" stroke="none" 
	d="
M245.002930,105.033615 
	C228.919357,74.527443 204.517395,54.440392 171.861053,43.792324 
	C203.320023,37.752903 251.673706,50.101265 280.107086,90.672630 
	C308.724457,131.506516 311.727875,175.213898 286.794739,218.469467 
	C261.738831,261.938019 222.131729,280.088013 172.225769,276.472046 
	C207.301086,264.244080 233.468521,242.024017 248.141144,207.703873 
	C262.838409,173.326141 261.505096,139.037964 245.002930,105.033615 
z"/>
</svg>